<?xml version="1.0" encoding="utf-8"?>
<!-- Generator: Adobe Illustrator 22.1.0, SVG Export Plug-In . SVG Version: 6.00 Build 0)  -->
<svg version="1.1" id="图层_1" xmlns="http://www.w3.org/2000/svg" xmlns:xlink="http://www.w3.org/1999/xlink" x="0px" y="0px"
	 viewBox="0 0 100 100" style="enable-background:new 0 0 100 100;" xml:space="preserve">
<style type="text/css">
	.st0{fill:#8C6D35;}
	.st1{fill:#FFFFFF;}
</style>
<g>
	<polyline class="st0" points="100,0 100,100 0,100 	"/>
</g>
<path class="st1" d="M59.1,86c-0.5,0-0.9-0.2-1.2-0.5L45.6,73.9c-0.7-0.7-0.8-1.8-0.1-2.6c0.7-0.7,1.8-0.8,2.6-0.1l11,10.3
	l25.6-28.3c0.7-0.7,1.8-0.8,2.6-0.1c0.7,0.7,0.8,1.8,0.1,2.6L60.5,85.4C60.1,85.8,59.7,86,59.1,86C59.2,86,59.1,86,59.1,86z"/>
</svg>
