<?xml version="1.0" encoding="utf-8"?>
<!-- Generator: Adobe Illustrator 22.0.1, SVG Export Plug-In . SVG Version: 6.00 Build 0)  -->
<svg version="1.1" id="图层_1" xmlns="http://www.w3.org/2000/svg" xmlns:xlink="http://www.w3.org/1999/xlink" x="0px" y="0px"
	 viewBox="0 0 100 100" style="enable-background:new 0 0 100 100;" xml:space="preserve">
<style type="text/css">
	.st0{fill:#FFFFFF;}
</style>

	<g>
		<path class="st0" d="M45.5,0v45.5H0V0H45.5z M45.5,54.5V100H0V54.5H45.5z M9.1,36.4h27.3V9.1H9.1V36.4z M9.1,90.9h27.3V63.6H9.1V90.9z
			 M27.3,18.2v9.1h-9.1v-9.1H27.3z M27.3,72.7v9.1h-9.1v-9.1H27.3z M100,0v45.5H54.5V0H100z M100,54.5v27.3H72.7v-9.1h-9.1V100h-9.1
			V54.5h27.3v9.1h9.1v-9.1H100z M63.6,36.4h27.3V9.1H63.6V36.4z M81.8,18.2v9.1h-9.1v-9.1H81.8z M81.8,90.9v9.1h-9.1v-9.1L81.8,90.9
			z M100,90.9v9.1h-9.1v-9.1L100,90.9z M100,90.9"/>
	</g>

</svg>
