<?xml version="1.0" encoding="utf-8"?>
<!-- Generator: Adobe Illustrator 22.1.0, SVG Export Plug-In . SVG Version: 6.00 Build 0)  -->
<svg version="1.1" id="图层_1" xmlns="http://www.w3.org/2000/svg" xmlns:xlink="http://www.w3.org/1999/xlink" x="0px" y="0px"
	 viewBox="0 0 200 200" style="enable-background:new 0 0 200 200;" xml:space="preserve">
<style type="text/css">
	.st0{fill:#A67C52;}
</style>
<g>
	<path class="st0" d="M161.1,91.3l-32.8-10.9l4.5-17.9c0-0.1,0-0.2-0.1-0.2c-0.1-0.1-0.1-0.1-0.2-0.1L67.6,72.3
		c-0.1,0-0.2,0.1-0.2,0.2l-3.9,14l-0.3,0c-0.3,0-0.5,0.2-0.5,0.5v63l-9,7.5c-0.1,0.1-0.1,0.2-0.1,0.3c0,0.1,0.1,0.2,0.2,0.2
		l64.9,10.1c0,0,0,0,0,0c0.1,0,0.1,0,0.2-0.1l8.8-9.8c0,0,0.1,0,0.1,0c0.1,0,0.1,0,0.2,0l32.9-10.6c0.2-0.1,0.4-0.3,0.4-0.5V91.8
		C161.4,91.6,161.3,91.4,161.1,91.3z M100.1,97.1l-35.2-9.8l62-6.3l0.1,13.5L100.1,97.1z M100.3,97.6l26.7-2.6l0.2,24.1v24.1
		l-26.9-0.5L100.3,97.6C100.3,97.6,100.3,97.6,100.3,97.6z M63.8,87.6l36,10c0,0,0,0,0,0.1v45.2l-36,6.9V87.6z M100.1,143.3
		l27.1,0.5v13.1L64.9,150L100.1,143.3z M67.8,72.8l64.3-10.1l-4.3,17.2c-0.1,0-0.1,0-0.2,0l-63.6,6.5L67.8,72.8z M118.7,167.6
		l-64.2-10l8.3-7c0.1,0.1,0.2,0.3,0.4,0.3l64.1,7.1L118.7,167.6z M160.4,146.7L128.4,157l-0.2-37.8V81.5l32.2,10.7V146.7z"/>
	<path class="st0" d="M135,109.6c1,0.5,2,0.5,2.5,0.5s1-1,1.5-1c0.5,0,3,0.5,4.3,0.8c1,0,0.3-0.8,0.3-0.8s-6.1-2-7.6-2
		c-1.5,0-2,0.5-2,1S134,109.1,135,109.6z"/>
	<path class="st0" d="M143,124c0,0.2,0.1,0.4,0.3,0.4l5.6,0.5c0,0,0,0,0,0c0.2,0,0.4-0.1,0.4-0.3c0-0.2-0.1-0.4-0.3-0.4l-5.6-0.5
		C143.2,123.6,143,123.8,143,124z"/>
	<path class="st0" d="M37.7,97.2c-0.2-0.1-0.6,0-0.7,0.2c0,0.1-3.9,7-8.1,12.1c-2.3,2.8-5.2,4.8-6.4,5.4c0.2-0.7,0.2-1.4,0.2-2.1
		c0-0.7-0.6-3.5-3.4-4c-2.7-0.5-4.7,1.1-5.2,2.9c-0.6,2.3,0.7,3.6,1.2,4c0.9,0.9,2.2,1,3.2,1.1l0.1,0c0.5,0.1,1.3,0,2.3-0.3
		c-0.9,2.2-2.5,4.6-5,5.9c-7.3,3.9-11.8,3-11.8,3c-0.3-0.1-0.5,0.1-0.6,0.4c-0.1,0.3,0.1,0.5,0.4,0.6c0.1,0,0.6,0.1,1.6,0.1
		c2,0,5.8-0.5,10.9-3.2c2.8-1.5,4.8-4.4,5.8-7.2c0.3-0.1,0.5-0.2,0.8-0.4c1.3-0.7,4.3-2.7,6.7-5.7c4.2-5.1,8.1-12.2,8.2-12.2
		C38,97.7,38,97.3,37.7,97.2z M21.3,115.5c-1.1,0.4-2.1,0.5-2.6,0.4l-0.2,0c-0.9-0.1-2-0.2-2.6-0.9c-0.4-0.4-1.3-1.3-0.9-3.1
		c0.2-1,1.3-2.3,3.1-2.3c0.3,0,0.6,0,0.9,0.1c2.4,0.5,2.6,3,2.6,3.1C21.8,113.6,21.6,114.5,21.3,115.5z"/>
	<path class="st0" d="M149.5,74.8c3.5,0,4.4-0.7,5.6-2.5c1-1.5,0.5-2.5,0.5-2.5s-0.5-1-1-0.5c-0.5,0.5-2.5,2-4.1,2
		c-1.5,0-3.5-0.1-4.1-0.5c-1.5-1-2-0.5-2-0.5c-0.2,0.2-0.2,1.2,0.5,2C146,73.6,148.3,74.8,149.5,74.8z"/>
	<path class="st0" d="M196.2,31.9c-0.2,0-0.4,0.1-0.4,0.3c-0.3,1.7-5.1,10.5-11.3,16.3c-1.6,1.5-5.2,3.5-9,4.5
		c-0.7,0.2-1.4,0.3-2,0.4c1.6-3.5,1.4-6.8-0.4-8.2c-0.4-0.3-1.5-1.1-3-1.3c-0.9-0.1-2.7-0.4-4.3,0.6c-1.3,0.8-2.5,2.5-2.7,3.3
		c-0.2,0.8-0.4,3,0.6,4.4c1.1,1.6,3.5,2.1,3.8,2.2c0.7,0.1,2.5,0.3,4.7,0.1c-2.2,3.4-14.6,9.5-14.7,9.6c-0.2,0.1-0.3,0.3-0.2,0.5
		c0.1,0.1,0.2,0.2,0.3,0.2c0.1,0,0.1,0,0.2,0c0.5-0.3,13.1-6.4,15.1-10c0.1-0.1,0.1-0.2,0.2-0.3c0.8-0.1,1.7-0.3,2.6-0.5
		c3.9-1,7.6-3.1,9.3-4.7c6-5.6,11.2-14.6,11.5-16.7C196.5,32.1,196.4,31.9,196.2,31.9z M172.6,53.5c-2.3,0.3-4.3,0.1-5,0
		c-0.9-0.2-2.5-0.8-3.3-1.9c-0.8-1.2-0.6-3.2-0.5-3.7c0.2-0.6,1.3-2.2,2.4-2.8c0.8-0.5,1.7-0.6,2.4-0.6c0.6,0,1.1,0.1,1.4,0.1
		c1.3,0.2,2.3,0.9,2.6,1.2C174.3,47,174.2,50.2,172.6,53.5z"/>
	<path class="st0" d="M150.2,112.4c0.7,0.4,1.3,0.4,1.7,0.4s0.7-0.8,1-0.8c0.3,0,2,0.4,2.9,0.6c0.7,0,0.2-0.6,0.2-0.6
		s-4-1.7-5.1-1.7s-1.3,0.4-1.3,0.8C149.5,111.6,149.5,112,150.2,112.4z"/>
	<path class="st0" d="M32.4,152.8c-0.3,0.4-1.6,0.7-2.6,0.8c-1,0.1-2.5-1.2-2.9-1.7c-0.4-0.5-0.6,0.6-0.6,0.6s-0.2,1,0.6,2.4
		c1,1.6,1.6,2.3,3.9,2.1c0.8-0.1,2.1-1.5,2.7-2.8c0.4-0.9,0.3-1.8,0.1-2C33.6,152.1,33.2,151.7,32.4,152.8z"/>
</g>
</svg>
