<?xml version="1.0" encoding="utf-8"?>
<!-- Generator: Adobe Illustrator 22.1.0, SVG Export Plug-In . SVG Version: 6.00 Build 0)  -->
<svg version="1.1" id="图层_1" xmlns="http://www.w3.org/2000/svg" xmlns:xlink="http://www.w3.org/1999/xlink" x="0px" y="0px"
	 viewBox="0 0 100 100" style="enable-background:new 0 0 100 100;" xml:space="preserve">
<style type="text/css">
	.st0{fill:#D8B36A;}
</style>
<g>
	<path class="st0" d="M66.8,42H33.2C23.2,42,15,51,15,62s8.1,19.9,18.2,19.9h33.7c10,0,18.2-8.9,18.2-19.9S76.8,42,66.8,42L66.8,42z
		 M39.2,64.6h-4v4c0,1.5-1.2,2.7-2.7,2.7s-2.7-1.2-2.7-2.7v-4h-4c-1.5,0-2.7-1.2-2.7-2.7s1.2-2.7,2.7-2.7h4v-4
		c0-1.5,1.2-2.7,2.7-2.7s2.7,1.2,2.7,2.7v4h4c1.5,0,2.7,1.2,2.7,2.7S40.8,64.6,39.2,64.6L39.2,64.6z M60.8,64.6
		c-1.5,0-2.7-1.2-2.7-2.7s1.2-2.7,2.7-2.7s2.7,1.2,2.7,2.7S62.2,64.6,60.8,64.6L60.8,64.6z M67.4,71.2c-1.5,0-2.7-1.2-2.7-2.7
		s1.2-2.7,2.7-2.7s2.7,1.2,2.7,2.7C70.2,70.1,68.9,71.2,67.4,71.2L67.4,71.2z M67.4,58c-1.5,0-2.7-1.2-2.7-2.7s1.2-2.7,2.7-2.7
		s2.7,1.2,2.7,2.7C70.2,56.7,68.9,58,67.4,58L67.4,58z M74.2,64.6c-1.5,0-2.7-1.2-2.7-2.7s1.2-2.7,2.7-2.7s2.7,1.2,2.7,2.7
		S75.8,64.6,74.2,64.6L74.2,64.6z M68.8,22.1v-4h-5.4v3c0,10.8-16.2-1.4-16.2,12.9v4h5.4C51.7,23.4,68.8,39.5,68.8,22.1L68.8,22.1z"
		/>
</g>
</svg>
