<?xml version="1.0" encoding="utf-8"?>
<!-- Generator: Adobe Illustrator 22.1.0, SVG Export Plug-In . SVG Version: 6.00 Build 0)  -->
<svg version="1.1" id="图层_1" xmlns="http://www.w3.org/2000/svg" xmlns:xlink="http://www.w3.org/1999/xlink" x="0px" y="0px"
	 viewBox="0 0 200 200" style="enable-background:new 0 0 200 200;" xml:space="preserve">
<style type="text/css">
	.st0{fill:url(#SVGID_1_);}
	.st1{fill:url(#SVGID_2_);}
	.st2{fill:url(#SVGID_3_);}
</style>
<g>
	
		<linearGradient id="SVGID_1_" gradientUnits="userSpaceOnUse" x1="88.0027" y1="143.096" x2="88.0027" y2="164.0762" gradientTransform="matrix(1 0 0 -1 0 200)">
		<stop  offset="0" style="stop-color:#FFB86A"/>
		<stop  offset="1" style="stop-color:#FFD457"/>
	</linearGradient>
	<path class="st0" d="M162.1,44.9c0-4.9-3.9-8.9-8.6-8.9H22.6c-4.8,0-8.6,4-8.6,8.9V57h148.1V44.9z"/>
	
		<linearGradient id="SVGID_2_" gradientUnits="userSpaceOnUse" x1="88.0027" y1="61.7506" x2="88.0027" y2="130.1222" gradientTransform="matrix(1 0 0 -1 0 200)">
		<stop  offset="0" style="stop-color:#FFB86A"/>
		<stop  offset="1" style="stop-color:#FFD457"/>
	</linearGradient>
	<path class="st1" d="M153,86.5c3.1,0,6.1,0.3,9,0.9V69.9H14v59.5c0,4.9,3.9,8.9,8.6,8.9h85.7c-0.3-2.1-0.5-4.3-0.5-6.5
		c0-7.1,1.7-13.8,4.6-19.9c0.3-0.5,0.5-1,0.8-1.5c0.3-0.5,0.6-1.2,1-1.7c0.4-0.6,0.8-1.3,1.2-1.9c0.5-0.8,1-1.4,1.5-2.1
		c0.3-0.4,0.5-0.8,0.8-1C125.8,93.2,138.6,86.5,153,86.5z M59.5,116.8H31.9v-12.3h27.6V116.8z"/>
	
		<linearGradient id="SVGID_3_" gradientUnits="userSpaceOnUse" x1="151.2142" y1="35.95" x2="151.2142" y2="105.6116" gradientTransform="matrix(1 0 0 -1 0 200)">
		<stop  offset="0" style="stop-color:#FFB86A"/>
		<stop  offset="1" style="stop-color:#FFD457"/>
	</linearGradient>
	<path class="st2" d="M151.2,94.4c-19.2,0-34.8,15.6-34.8,34.8s15.6,34.8,34.8,34.8s34.8-15.6,34.8-34.8
		C186,110,170.4,94.4,151.2,94.4z M172.8,123.5c-4.1,0.9-18.3,13.8-25.7,27.5c-6.1-11.1-18.4-16.3-18.4-16.3l10.3-5.9l7.9,8.4
		c0,0,9-19.4,25.9-30.6l-0.4,1.9C171.3,113.6,171.5,118.6,172.8,123.5z"/>
</g>
</svg>
