<?xml version="1.0" encoding="utf-8"?>
<!-- Generator: Adobe Illustrator 22.1.0, SVG Export Plug-In . SVG Version: 6.00 Build 0)  -->
<svg version="1.1" id="图层_1" xmlns="http://www.w3.org/2000/svg" xmlns:xlink="http://www.w3.org/1999/xlink" x="0px" y="0px"
	 viewBox="0 0 100 100" style="enable-background:new 0 0 100 100;" xml:space="preserve">
<style type="text/css">
	.st0{fill:#D8B36A;}
</style>
<g>
	<path class="st0" d="M20,49.9h-4c-0.8,0-1.2,0.9-0.8,1.5l7,9.3c0.4,0.5,1.1,0.5,1.5,0l7-9.3c0.5-0.6,0-1.5-0.8-1.5h-3
		c-0.5,0-1-0.5-1-1c0.6-14.2,12.3-25.6,26.6-25.6c7.1,0,13.8,2.8,18.8,7.8c5,5,7.8,11.8,7.8,18.8c0,9.7-5.2,18.6-13.7,23.3
		c-7.7,4.3-16.9,4.4-24.7,0.6c-1.3-0.7-3-0.2-3.8,1l0,0c-1,1.5-0.5,3.5,1.1,4.3c4.3,2.1,9.2,3.4,14.4,3.4l0,0
		c17.9,0,32.5-14.6,32.5-32.5c0-18-14.5-32.5-32.5-32.5C34.6,17.4,20,31.9,20,49.9L20,49.9z M54.4,37.3c0-1.2-1-2.2-2.2-2.2
		c-0.6,0-1.1,0.2-1.6,0.6c-0.4,0.4-0.6,1-0.7,1.6v14.2c0,0.9,0.5,1.7,1.2,2.1l12.4,7.5c1.1,0.6,2.4,0.3,3.1-0.8l-0.1,0.2
		c0.3-0.5,0.4-1.1,0.3-1.7s-0.5-1.1-1-1.4l-10.2-6c-0.8-0.4-1.2-1.3-1.2-2.1L54.4,37.3L54.4,37.3z"/>
</g>
</svg>
