<?xml version="1.0" encoding="utf-8"?>
<!-- Generator: Adobe Illustrator 22.1.0, SVG Export Plug-In . SVG Version: 6.00 Build 0)  -->
<svg version="1.1" id="图层_1" xmlns="http://www.w3.org/2000/svg" xmlns:xlink="http://www.w3.org/1999/xlink" x="0px" y="0px"
	 viewBox="0 0 200 200" style="enable-background:new 0 0 200 200;" xml:space="preserve">
<style type="text/css">
	.st0{fill:url(#SVGID_1_);}
	.st1{fill:url(#SVGID_2_);}
	.st2{fill:url(#SVGID_3_);}
	.st3{fill:url(#SVGID_4_);}
	.st4{fill:url(#SVGID_5_);}
	.st5{fill:url(#SVGID_6_);}
</style>
<g>
	
		<linearGradient id="SVGID_1_" gradientUnits="userSpaceOnUse" x1="80.4231" y1="132.8017" x2="80.4231" y2="184" gradientTransform="matrix(1 0 0 -1 0 200)">
		<stop  offset="0" style="stop-color:#FFB86A"/>
		<stop  offset="1" style="stop-color:#FFD457"/>
	</linearGradient>
	<path class="st0" d="M48.6,63.8c19.7,4.6,44,4.6,63.6,0c19.7-4.6,31.8-13.1,31.8-22.2C144,27.4,115.6,16,80.4,16
		S16.8,27.5,16.8,41.5l0,0C16.8,50.7,29.1,59.2,48.6,63.8z"/>
	
		<linearGradient id="SVGID_2_" gradientUnits="userSpaceOnUse" x1="80.6314" y1="100.9247" x2="80.6314" y2="148.6867" gradientTransform="matrix(1 0 0 -1 0 200)">
		<stop  offset="0" style="stop-color:#FFB86A"/>
		<stop  offset="1" style="stop-color:#FFD457"/>
	</linearGradient>
	<path class="st1" d="M144.4,75.1V52c-0.8,13.7-29,25-63.6,25c-34.7,0-64-11.5-64-25.5v22.1c0,14.3,28.6,25.7,63.6,25.7
		c9.3,0,15.8-0.3,23.5-1.8l0,0c9.2-7.1,19-12.6,36.4-13.3C143.3,81.5,144.3,79,144.4,75.1z"/>
	
		<linearGradient id="SVGID_3_" gradientUnits="userSpaceOnUse" x1="16.8331" y1="117.7719" x2="16.8331" y2="117.7719" gradientTransform="matrix(1 0 0 -1 0 200)">
		<stop  offset="0" style="stop-color:#FFB86A"/>
		<stop  offset="1" style="stop-color:#FFD457"/>
	</linearGradient>
	<path class="st2" d="M16.8,82.2L16.8,82.2L16.8,82.2L16.8,82.2z"/>
	
		<linearGradient id="SVGID_4_" gradientUnits="userSpaceOnUse" x1="56.0562" y1="70.1488" x2="56.0562" y2="117.7719" gradientTransform="matrix(1 0 0 -1 0 200)">
		<stop  offset="0" style="stop-color:#FFB86A"/>
		<stop  offset="1" style="stop-color:#FFD457"/>
	</linearGradient>
	<path class="st3" d="M80.6,129.9h4.6c0.6-7.8,4.7-16,10.1-22.6c-5.4,0.6-9.3,1-14.9,1c-35.1,0-63.6-11.5-63.6-26v22.1
		C16.8,118.3,45.4,129.9,80.6,129.9z"/>
	
		<linearGradient id="SVGID_5_" gradientUnits="userSpaceOnUse" x1="52.9322" y1="38.2149" x2="52.9322" y2="85.838" gradientTransform="matrix(1 0 0 -1 0 200)">
		<stop  offset="0" style="stop-color:#FFB86A"/>
		<stop  offset="1" style="stop-color:#FFD457"/>
	</linearGradient>
	<path class="st4" d="M80.4,139.7c-35.3,0-63.7-11-63.7-25.5v22.1c0,14.2,28.6,25.5,63.7,25.5h8.7c-3.6-6.4-4.7-13.6-4.7-22.1
		C84.4,139.7,80.4,139.7,80.4,139.7z"/>
	
		<linearGradient id="SVGID_6_" gradientUnits="userSpaceOnUse" x1="139.1537" y1="16" x2="139.1537" y2="104.3041" gradientTransform="matrix(1 0 0 -1 0 200)">
		<stop  offset="0" style="stop-color:#FFB86A"/>
		<stop  offset="1" style="stop-color:#FFD457"/>
	</linearGradient>
	<path class="st5" d="M139.2,95.7c-24.4,0-44.2,19.7-44.2,44.2s19.7,44.2,44.2,44.2s44.2-19.7,44.2-44.2S163.6,95.7,139.2,95.7z
		 M166.5,132.5c-5.3,1.2-23.2,17.5-32.5,34.8c-7.8-14-23.3-20.5-23.3-20.5l13.1-7.5l10,10.6c0,0,11.5-24.6,32.8-38.7l-0.6,2.4
		C164.7,119.9,164.8,126.4,166.5,132.5z"/>
</g>
</svg>
