<?xml version="1.0" encoding="utf-8"?>
<!-- Generator: Adobe Illustrator 22.1.0, SVG Export Plug-In . SVG Version: 6.00 Build 0)  -->
<svg version="1.1" id="图层_1" xmlns="http://www.w3.org/2000/svg" xmlns:xlink="http://www.w3.org/1999/xlink" x="0px" y="0px"
	 viewBox="0 0 100 100" style="enable-background:new 0 0 100 100;" xml:space="preserve">
<style type="text/css">
	.st0{fill:#D8B36A;}
	.st1{enable-background:new    ;}
	.st2{fill:#B21617;}
</style>
<g>
	<path class="st0" d="M77.2,81.5c20.5-20.2-4.8-52.9-9.6-56.4c1.9,4.1,2.2,11.1-1.6,14.5c-6.4-24.4-22.4-29.4-22.4-29.4
		c1.9,12.6-6.8,26.4-15.2,36.7c-0.3-5-0.6-8.5-3.3-13.3c-0.6,9.1-7.6,16.6-9.5,25.7C14,67,15.1,73.5,20.4,79.6
		c6.2,7.2,15.6,9.1,25.1,9.8C56.8,90.2,68.2,90.4,77.2,81.5z"/>
	<g class="st1">
		<path class="st2" d="M37.4,52c-0.1,3.6-0.5,6.9-1.2,10.2l-1.6-0.4c0.6-3.1,1-6.4,1.1-9.9L37.4,52z M41.7,45.3v9.9
			c1.5-1.5,2.7-3.1,3.7-4.8l1.1,1.4c-1.3,1.9-2.8,3.7-4.8,5.5v1c0,2.4-0.2,4.6-0.4,6.7c1.4,1.9,3,4.1,4.5,6.6l-1.1,1.6
			c-1.4-2.7-2.7-4.8-3.7-6.3c-0.9,4.6-2.4,8.2-4.6,10.9l-1.4-1.3c3.2-3.8,4.9-9.8,5-18.1V45.3H41.7z M65.2,46.2v9.1h-3.7v2.6h5v1.5
			h-5v2.7h5.7v1.6h-5.8c1.3,1.8,3.3,3.5,6.2,4.9l-1.2,1.4c-1.3-0.8-2.3-1.5-3.2-2.3c-0.9,1-2,2-3.2,2.8L59,69.2
			c1.2-0.8,2.1-1.7,3-2.6c-0.9-0.9-1.7-1.9-2.2-2.9h-6.3c-0.7,1.2-1.6,2.2-2.7,3.1c1.2,0.8,2.1,1.7,3,2.5l-1.1,1.1
			c-0.8-0.9-1.8-1.7-3.1-2.7c-1,0.6-2.1,1.2-3.2,1.8l-0.9-1.6c2.9-1.1,5-2.6,6.4-4.3h-6.3v-1.6h6.6v-2.7h-5.1v-1.5h5.1v-2.6h-3.7
			v-9.1H65.2z M53.9,72.8c-1.9,1.2-4.2,2.3-7,3.2l-0.7-1.7c2.8-0.8,5.3-1.9,7.3-3.1L53.9,72.8z M63.4,50.2v-2.5H50v2.5H63.4z
			 M63.4,51.5H50v2.4h13.4V51.5z M52.6,77.8l-0.4-1.7c0.9,0.1,1.8,0.1,2.6,0.1c0.6,0,1-0.4,1-1.2v-10h1.9v10.4
			c0,1.5-0.8,2.3-2.2,2.3H52.6z M59.7,55.3h-5.9v2.6h5.9V55.3z M59.7,62.1v-2.7h-5.9v2.7H59.7z M66.5,75.2l-1,1.5
			c-2.2-1.7-4.4-3-6.7-4l0.9-1.3C62.2,72.5,64.5,73.7,66.5,75.2z"/>
	</g>
</g>
</svg>
