<?xml version="1.0" encoding="utf-8"?>
<!-- Generator: Adobe Illustrator 22.0.1, SVG Export Plug-In . SVG Version: 6.00 Build 0)  -->
<svg version="1.1" id="图层_1" xmlns="http://www.w3.org/2000/svg" xmlns:xlink="http://www.w3.org/1999/xlink" x="0px" y="0px"
	 viewBox="0 0 100 100" style="enable-background:new 0 0 100 100;" xml:space="preserve">
<style type="text/css">
	.st0{fill:url(#SVGID_1_);}
	.st1{fill:url(#SVGID_2_);}
	.st2{fill:url(#SVGID_3_);}
	.st3{fill:url(#SVGID_4_);}
	.st4{fill:url(#SVGID_5_);}
	.st5{fill:url(#SVGID_6_);}
	.st6{fill:url(#SVGID_7_);}
	.st7{fill:url(#SVGID_8_);}
	.st8{fill:url(#SVGID_9_);}
	.st9{fill:url(#SVGID_10_);}
	.st10{fill:url(#SVGID_11_);}
	.st11{fill:url(#SVGID_12_);}
	.st12{fill:url(#SVGID_13_);}
	.st13{fill:url(#SVGID_14_);}
	.st14{fill:url(#SVGID_15_);}
	.st15{fill:url(#SVGID_16_);}
	.st16{fill:url(#SVGID_17_);}
	.st17{fill:url(#SVGID_18_);}
</style>
<g>
	
		<linearGradient id="SVGID_1_" gradientUnits="userSpaceOnUse" x1="76.8701" y1="49.145" x2="76.8701" y2="39.8893" gradientTransform="matrix(1 0 0 -1 0 100)">
		<stop  offset="0" style="stop-color:#FFE2BC"/>
		<stop  offset="1" style="stop-color:#AA6800"/>
	</linearGradient>
	<path class="st0" d="M58.7,54.7c1.5,0.3,2.9,0.6,4.3,0.8c4.7,0.7,9.1-0.2,13.4-2.3c2.3-1.1,4.7-2.1,7.3-2.3c3.6-0.3,6.6,1,9.4,3.1
		c0.6,0.5,1.3,1.1,1.9,1.6c-2.2-0.1-4.4-0.3-6.5-0.4c-2.8,0-5.4,0.8-7.9,2c-3.6,1.7-7.3,2.9-11.3,2.7C65,60,61.5,58.1,58.7,54.7z"/>
	
		<linearGradient id="SVGID_2_" gradientUnits="userSpaceOnUse" x1="23.0799" y1="59.231" x2="23.0799" y2="50.5494" gradientTransform="matrix(1 0 0 -1 0 100)">
		<stop  offset="0" style="stop-color:#FFE2BC"/>
		<stop  offset="1" style="stop-color:#AA6800"/>
	</linearGradient>
	<path class="st1" d="M5,44.1c2,0.2,3.9,0.6,5.8,0.7c3.6,0.3,6.9-0.9,10.3-2.3c3.8-1.6,7.8-2.3,12-1.3c3.3,0.8,5.9,2.6,8.1,5.5
		c-1.4-0.3-2.7-0.7-4-0.9c-4.7-0.9-9.2-0.3-13.5,1.6c-2.7,1.2-5.5,2.2-8.5,2.1C11,49.3,7.8,47.1,5,44.1z"/>
	
		<linearGradient id="SVGID_3_" gradientUnits="userSpaceOnUse" x1="26.626" y1="70.6848" x2="26.626" y2="57.5134" gradientTransform="matrix(1 0 0 -1 0 100)">
		<stop  offset="0" style="stop-color:#FFE2BC"/>
		<stop  offset="1" style="stop-color:#AA6800"/>
	</linearGradient>
	<path class="st2" d="M43.5,42.5c-1.6-0.8-3-1.5-4.4-2.1c-3.7-1.7-7.6-1.6-11.5-1.3c-5.4,0.4-10.4-0.4-14.5-4.5
		c-1.5-1.5-2.6-3.4-3.3-5.3c1.8,0.9,3.5,1.9,5.3,2.7c3.8,1.7,7.8,2,11.9,1.5c3.7-0.5,7.3-0.3,10.7,1.7C40.3,37,41.9,39.5,43.5,42.5z
		"/>
	
		<linearGradient id="SVGID_4_" gradientUnits="userSpaceOnUse" x1="73.0244" y1="74.0494" x2="73.0244" y2="51.6041" gradientTransform="matrix(1 0 0 -1 0 100)">
		<stop  offset="0" style="stop-color:#FFE2BC"/>
		<stop  offset="1" style="stop-color:#AA6800"/>
	</linearGradient>
	<path class="st3" d="M87.5,26.1c-0.5,0.3-1.1,0.6-1.6,1c-3.9,2.2-6.8,5.4-8.8,9.5c-2,4.3-4.6,7.9-8.8,10.2c-3,1.6-6.2,1.9-9.8,1.2
		c0.6-0.3,1-0.5,1.4-0.7c5.3-2.4,9.1-6.4,11.7-11.7c0.9-1.8,2-3.7,3.3-5.3c2.2-2.8,5.3-4.2,8.8-4.4c1.2-0.1,2.4,0,3.6,0
		C87.4,26,87.5,26.1,87.5,26.1z"/>
	
		<linearGradient id="SVGID_5_" gradientUnits="userSpaceOnUse" x1="76.2209" y1="61.8733" x2="76.2209" y2="46.6072" gradientTransform="matrix(1 0 0 -1 0 100)">
		<stop  offset="0" style="stop-color:#FFE2BC"/>
		<stop  offset="1" style="stop-color:#AA6800"/>
	</linearGradient>
	<path class="st4" d="M59,51.2c1.9-0.3,3.6-0.5,5.2-0.9c4.2-1,7.7-3.2,10.7-6.3c2.3-2.3,4.7-4.5,8-5.4c3.7-1,7.1-0.2,10.5,1.3
		c-2.1,0.6-4.1,1.1-6.1,1.7c-2.7,0.9-4.9,2.5-6.9,4.6c-2.7,2.7-5.7,5.1-9.3,6.3C66.9,54,62.9,53.6,59,51.2z"/>
	
		<linearGradient id="SVGID_6_" gradientUnits="userSpaceOnUse" x1="26.626" y1="47.7275" x2="26.626" y2="24.5322" gradientTransform="matrix(1 0 0 -1 0 100)">
		<stop  offset="0" style="stop-color:#FFE2BC"/>
		<stop  offset="1" style="stop-color:#AA6800"/>
	</linearGradient>
	<path class="st5" d="M40.9,52.5c-1.3,0.7-2.4,1.3-3.5,1.9c-4.2,2.5-7.1,6.2-9.1,10.8c-0.5,1.2-1.1,2.4-1.8,3.6
		c-2.5,4.3-6.2,6.5-11,6.7c-0.9,0-1.8,0-3.1,0c0.7-0.4,1.1-0.7,1.5-1c3.9-2.4,6.9-5.6,8.7-10c1.7-4,4-7.4,7.5-9.9
		C33.4,52.5,36.9,51.8,40.9,52.5z"/>
	
		<linearGradient id="SVGID_7_" gradientUnits="userSpaceOnUse" x1="23.1299" y1="52.7435" x2="23.1299" y2="37.1833" gradientTransform="matrix(1 0 0 -1 0 100)">
		<stop  offset="0" style="stop-color:#FFE2BC"/>
		<stop  offset="1" style="stop-color:#AA6800"/>
	</linearGradient>
	<path class="st6" d="M40.3,49.2c-2.2,0.5-4.5,0.9-6.6,1.6c-3.5,1.1-6.5,3.3-9.1,5.9c-2.2,2.3-4.5,4.4-7.5,5.4
		C13.4,63.3,9.8,62.6,6,61c0.9-0.2,1.5-0.4,2.2-0.5c4.3-0.9,8-2.8,11.1-6.2c2.5-2.6,5.3-4.9,8.7-6.2C32.3,46.6,36.4,47,40.3,49.2z"
		/>
	
		<linearGradient id="SVGID_8_" gradientUnits="userSpaceOnUse" x1="73.0744" y1="42.7286" x2="73.0744" y2="29.5585" gradientTransform="matrix(1 0 0 -1 0 100)">
		<stop  offset="0" style="stop-color:#FFE2BC"/>
		<stop  offset="1" style="stop-color:#AA6800"/>
	</linearGradient>
	<path class="st7" d="M89.9,70.4c-2.1-0.9-4.1-1.8-6.2-2.5c-2.6-0.9-5.3-1-8.1-0.7c-5.1,0.5-10,0.2-14.3-2.9c-2.4-1.7-4-4.1-5.1-7
		c0.4,0.2,0.7,0.4,0.9,0.5c4.2,2.9,8.8,4.4,13.9,4.3c1.9,0,3.9-0.3,5.8-0.4c5.6-0.2,9.6,2.5,12.4,7.4C89.4,69.5,89.6,70,89.9,70.4z"
		/>
	
		<linearGradient id="SVGID_9_" gradientUnits="userSpaceOnUse" x1="32.869" y1="83.7456" x2="32.869" y2="59.7345" gradientTransform="matrix(1 0 0 -1 0 100)">
		<stop  offset="0" style="stop-color:#FFE2BC"/>
		<stop  offset="1" style="stop-color:#AA6800"/>
	</linearGradient>
	<path class="st8" d="M46.3,40.2c-0.3-0.3-0.5-0.6-0.8-0.8c-3.2-3.8-7.1-6.4-11.9-7.5c-4-0.9-7.6-2.7-10.5-5.7
		c-2.6-2.7-3.8-6-3.8-10c2,2.7,4.2,5.1,6.8,6.9c2.4,1.5,4.9,2.6,7.6,3.2c2.7,0.6,5.3,1.5,7.6,3.2c3,2.3,4.3,5.7,5,9.3
		c0.1,0.4,0.1,0.8,0.2,1.2C46.4,40.1,46.4,40.2,46.3,40.2z"/>
	
		<linearGradient id="SVGID_10_" gradientUnits="userSpaceOnUse" x1="67.2808" y1="86.0211" x2="67.2808" y2="54.6784" gradientTransform="matrix(1 0 0 -1 0 100)">
		<stop  offset="0" style="stop-color:#FFE2BC"/>
		<stop  offset="1" style="stop-color:#AA6800"/>
	</linearGradient>
	<path class="st9" d="M76.5,14.1c-1,1.4-2,2.8-2.9,4.3c-1.9,3-2.4,6.5-2.7,10.1c-0.3,4.6-1.6,8.8-4.7,12.3c-2.1,2.4-4.9,3.9-8.2,4.5
		c1-1.2,1.9-2.2,2.8-3.4c2.8-3.7,4.3-7.8,4.7-12.5c0.2-2,0.4-4.1,0.9-6.1c1-4.1,3.7-6.8,7.4-8.4c0.9-0.4,1.7-0.7,2.6-1
		C76.5,14,76.5,14.1,76.5,14.1z"/>
	
		<linearGradient id="SVGID_11_" gradientUnits="userSpaceOnUse" x1="66.8313" y1="41.1641" x2="66.8313" y2="17.3984" gradientTransform="matrix(1 0 0 -1 0 100)">
		<stop  offset="0" style="stop-color:#FFE2BC"/>
		<stop  offset="1" style="stop-color:#AA6800"/>
	</linearGradient>
	<path class="st10" d="M53.4,58.8c1.1,1.3,1.9,2.4,2.8,3.5c3.4,3.8,7.7,5.9,12.6,7.1c3.2,0.7,6.1,2.1,8.3,4.7
		c2.1,2.4,2.9,5.4,3.1,8.5c-0.2-0.2-0.5-0.4-0.7-0.7c-3.2-3.8-7-6.2-11.8-7.3c-3.5-0.8-6.7-2.3-9.4-4.7c-2.9-2.5-4.5-5.8-4.9-9.8
		C53.4,59.9,53.4,59.4,53.4,58.8z"/>
	
		<linearGradient id="SVGID_12_" gradientUnits="userSpaceOnUse" x1="33.1188" y1="45.0234" x2="33.1188" y2="13.4375" gradientTransform="matrix(1 0 0 -1 0 100)">
		<stop  offset="0" style="stop-color:#FFE2BC"/>
		<stop  offset="1" style="stop-color:#AA6800"/>
	</linearGradient>
	<path class="st11" d="M42.3,55c-0.9,1.1-1.8,2-2.5,3c-3.2,4.2-4.6,8.9-4.8,14.1c-0.2,4.3-1.3,8.2-4.6,11.1c-1.8,1.6-4,2.5-6.4,3.4
		c0.9-1.2,1.7-2.3,2.4-3.6c2-3.1,3-6.5,3.2-10.3c0.3-4.8,1.3-9.3,4.4-13.1C36.1,57.1,38.9,55.7,42.3,55z"/>
	
		<linearGradient id="SVGID_13_" gradientUnits="userSpaceOnUse" x1="40.5552" y1="42.1797" x2="40.5552" y2="6.5312" gradientTransform="matrix(1 0 0 -1 0 100)">
		<stop  offset="0" style="stop-color:#FFE2BC"/>
		<stop  offset="1" style="stop-color:#AA6800"/>
	</linearGradient>
	<path class="st12" d="M44.3,57.8c-1.9,4.2-3,8.5-2.4,13.1c0.3,2.2,0.9,4.5,1.4,6.7c0.8,3.8,0.8,7.3-1.2,10.8
		c-1.2,2-2.8,3.6-4.7,5.1c0-0.4,0-0.6,0.1-0.8c1.9-5.1,1.8-10.2,0.3-15.4c-1.3-4.5-1.3-8.9,0.6-13.3C39.7,61.3,41.7,59.2,44.3,57.8z
		"/>
	
		<linearGradient id="SVGID_14_" gradientUnits="userSpaceOnUse" x1="58.651" y1="39.8438" x2="58.651" y2="8.2578" gradientTransform="matrix(1 0 0 -1 0 100)">
		<stop  offset="0" style="stop-color:#FFE2BC"/>
		<stop  offset="1" style="stop-color:#AA6800"/>
	</linearGradient>
	<path class="st13" d="M50.2,60.2c0.3,0.9,0.5,1.8,0.9,2.7c1.8,5,4.9,8.8,9.2,11.8c1.5,1,3,2.1,4.2,3.5c3.1,3.1,4.1,7.1,3.4,11.6
		c-0.1,0.6-0.2,1.2-0.3,1.8c0,0.1-0.1,0.2-0.2,0.2c-0.8-1.7-1.6-3.5-2.5-5.1c-1.4-2.5-3.4-4.6-5.8-6.2c-3.2-2.1-6.1-4.8-8.1-8.2
		C48.9,68.4,48.6,64.3,50.2,60.2z"/>
	
		<linearGradient id="SVGID_15_" gradientUnits="userSpaceOnUse" x1="41.2079" y1="91.3359" x2="41.2079" y2="59.3438" gradientTransform="matrix(1 0 0 -1 0 100)">
		<stop  offset="0" style="stop-color:#FFE2BC"/>
		<stop  offset="1" style="stop-color:#AA6800"/>
	</linearGradient>
	<path class="st14" d="M49.7,40.7c-0.5-1.3-0.8-2.6-1.3-3.8c-1.8-4.7-5-8.3-9.1-11.1c-2.4-1.6-4.5-3.5-6-6
		c-1.9-3.5-1.8-7.1-0.9-11.2c0.4,1,0.8,1.8,1.1,2.6c1.6,3.8,4,6.8,7.4,9c3.2,2.1,6.1,4.8,8,8.2C50.9,32.3,51.2,37,49.7,40.7z"/>
	
		<linearGradient id="SVGID_16_" gradientUnits="userSpaceOnUse" x1="49.7403" y1="40.7048" x2="49.7403" y2="4.3702" gradientTransform="matrix(1 0 0 -1 0 100)">
		<stop  offset="0" style="stop-color:#FFE2BC"/>
		<stop  offset="1" style="stop-color:#AA6800"/>
	</linearGradient>
	<path class="st15" d="M47.3,59.4c-0.3,3.7-0.1,7.1,1.1,10.6c0.9,2.7,2.3,5.2,4,7.4c1.6,2.1,2.8,4.6,3.2,7.2c0.5,3.1-0.2,6-1.6,8.7
		c-0.3,0.7-0.7,1.3-1.2,2.1c-0.1-1.4-0.2-2.6-0.3-3.9c-0.3-3.7-1.6-7-3.7-10c-2.2-3-4.1-6.3-4.7-10.1c-0.8-4.4,0.1-8.3,2.8-11.9
		c0.1-0.1,0.1-0.3,0.2-0.5C47.1,59.3,47.2,59.4,47.3,59.4z"/>
	
		<linearGradient id="SVGID_17_" gradientUnits="userSpaceOnUse" x1="50.4856" y1="95.3973" x2="50.4856" y2="59.2174" gradientTransform="matrix(1 0 0 -1 0 100)">
		<stop  offset="0" style="stop-color:#FFE2BC"/>
		<stop  offset="1" style="stop-color:#AA6800"/>
	</linearGradient>
	<path class="st16" d="M52.8,40.8c0.6-5.5-0.3-10.6-3.1-15.2c-1.2-1.9-2.5-3.8-3.6-5.8c-2.3-4.3-2.2-8.5,0-12.8
		c0.4-0.7,0.8-1.4,1.3-2.4c0.1,1.3,0.2,2.4,0.3,3.6c0.2,3.9,1.5,7.2,3.8,10.4c2.4,3.3,4.2,6.7,4.8,10.9c0.6,4.2-0.5,7.9-3.1,11.3
		C53,40.7,52.9,40.7,52.8,40.8z"/>
	
		<linearGradient id="SVGID_18_" gradientUnits="userSpaceOnUse" x1="59.5941" y1="93.3672" x2="59.5941" y2="57.5156" gradientTransform="matrix(1 0 0 -1 0 100)">
		<stop  offset="0" style="stop-color:#FFE2BC"/>
		<stop  offset="1" style="stop-color:#AA6800"/>
	</linearGradient>
	<path class="st17" d="M55.9,42.5c1.2-2.9,2-5.8,2.3-8.8c0.3-3.1-0.2-6.1-0.9-9.1c-0.5-1.8-0.8-3.8-1-5.7c-0.3-4,1.1-7.2,3.9-10
		c0.8-0.7,1.6-1.4,2.5-2.2c-0.5,2.1-1,4.1-1.4,6c-0.5,2.7-0.3,5.4,0.5,8c0.8,2.9,1.5,5.9,1.4,9c-0.1,5.2-2.1,9.4-6.4,12.4
		C56.5,42.2,56.2,42.4,55.9,42.5z"/>
</g>
</svg>
