<?xml version="1.0" encoding="utf-8"?>
<!-- Generator: Adobe Illustrator 22.0.1, SVG Export Plug-In . SVG Version: 6.00 Build 0)  -->
<svg version="1.1" id="图层_1" xmlns="http://www.w3.org/2000/svg" xmlns:xlink="http://www.w3.org/1999/xlink" x="0px" y="0px"
	 viewBox="0 0 110 90" style="enable-background:new 0 0 110 90;" xml:space="preserve">
<style type="text/css">
	.st0{opacity:0.35;}
	.st1{opacity:0.12;}
	.st2{fill:#B5985A;}
	.st3{fill:#AF2727;}
	.st4{fill-rule:evenodd;clip-rule:evenodd;fill:#AF2727;}
	.st5{fill:#B70000;}
</style>
<g class="st0">
	<g class="st1">
		<path class="st2" d="M60,47.6c0.9,0.2,1.7,0.4,2.5,0.5c2.7,0.4,5.2-0.1,7.6-1.3c1.3-0.7,2.7-1.2,4.2-1.3c2-0.2,3.8,0.5,5.4,1.8
			c0.4,0.3,0.7,0.6,1.1,0.9c-1.3-0.1-2.5-0.2-3.7-0.2c-1.6,0-3.1,0.4-4.5,1.1c-2,1-4.2,1.7-6.5,1.6C63.6,50.5,61.7,49.5,60,47.6z"/>
		<path class="st2" d="M29.2,41.6c1.1,0.1,2.2,0.3,3.3,0.4c2.1,0.2,4-0.5,5.9-1.3c2.2-0.9,4.5-1.3,6.9-0.8c1.9,0.4,3.4,1.5,4.7,3.1
			c-0.8-0.2-1.5-0.4-2.3-0.5c-2.7-0.5-5.3-0.2-7.8,0.9c-1.6,0.7-3.1,1.2-4.9,1.2C32.6,44.6,30.9,43.3,29.2,41.6z"/>
		<path class="st2" d="M51.3,40.7c-0.9-0.5-1.7-0.9-2.5-1.2c-2.1-1-4.3-0.9-6.6-0.8c-3.1,0.2-6-0.2-8.3-2.5c-0.9-0.8-1.5-1.9-1.9-3
			c1,0.5,2,1.1,3.1,1.6c2.2,1,4.5,1.2,6.8,0.9c2.1-0.3,4.2-0.2,6.1,1C49.4,37.6,50.4,39,51.3,40.7z"/>
		<path class="st2" d="M76.5,31.5c-0.3,0.2-0.6,0.4-0.9,0.5c-2.2,1.3-3.9,3-5,5.4c-1.1,2.4-2.7,4.4-5,5.7c-1.7,0.9-3.5,1.1-5.6,0.7
			c0.4-0.2,0.6-0.3,0.8-0.4c3.1-1.4,5.2-3.6,6.7-6.6c0.5-1,1.1-2.1,1.9-3c1.3-1.6,3-2.3,5.1-2.5C75.1,31.4,75.8,31.4,76.5,31.5
			C76.5,31.4,76.5,31.5,76.5,31.5z"/>
		<path class="st2" d="M60.2,45.6c1.1-0.2,2-0.3,3-0.5c2.4-0.6,4.4-1.8,6.1-3.5c1.3-1.3,2.7-2.5,4.6-3.1c2.1-0.6,4.1-0.1,6,0.8
			c-1.2,0.3-2.3,0.6-3.5,1c-1.5,0.5-2.8,1.4-3.9,2.6c-1.5,1.6-3.2,2.9-5.3,3.6C64.7,47.2,62.5,46.9,60.2,45.6z"/>
		<path class="st2" d="M49.8,46.4c-0.8,0.4-1.4,0.7-2,1.1c-2.4,1.5-4.1,3.5-5.2,6c-0.3,0.7-0.6,1.4-1,2c-1.4,2.4-3.5,3.6-6.3,3.8
			c-0.5,0-1,0-1.8,0c0.4-0.2,0.6-0.4,0.9-0.5c2.2-1.3,4-3.2,5-5.6c0.9-2.2,2.3-4.2,4.3-5.6C45.5,46.3,47.5,46,49.8,46.4z"/>
		<path class="st2" d="M49.4,44.5c-1.3,0.3-2.6,0.5-3.8,0.9c-2,0.6-3.7,1.8-5.2,3.3c-1.2,1.3-2.6,2.5-4.3,3.1
			c-2.1,0.7-4.2,0.3-6.3-0.6c0.5-0.1,0.9-0.2,1.2-0.3c2.5-0.5,4.6-1.6,6.3-3.5c1.4-1.5,3-2.7,5-3.5C44.8,43,47.2,43.2,49.4,44.5z"/>
		<path class="st2" d="M77.9,56.5c-1.2-0.5-2.3-1-3.5-1.5c-1.5-0.5-3.1-0.6-4.6-0.4c-2.9,0.3-5.7,0.1-8.2-1.6
			c-1.4-1-2.3-2.3-2.9-3.9c0.2,0.1,0.4,0.2,0.5,0.3c2.4,1.7,5,2.5,7.9,2.4c1.1,0,2.2-0.2,3.3-0.2c3.2-0.1,5.5,1.4,7.1,4.2
			C77.6,56,77.8,56.2,77.9,56.5z"/>
		<path class="st2" d="M52.9,39.4c-0.2-0.2-0.3-0.3-0.5-0.5c-1.8-2.1-4-3.6-6.8-4.2c-2.3-0.5-4.3-1.5-6-3.2
			c-1.5-1.5-2.2-3.4-2.2-5.6c1.2,1.6,2.4,2.9,3.9,3.9c1.3,0.9,2.8,1.5,4.4,1.8c1.6,0.4,3,0.9,4.3,1.9c1.7,1.3,2.5,3.2,2.8,5.3
			c0,0.2,0.1,0.4,0.1,0.7C53,39.4,52.9,39.4,52.9,39.4z"/>
		<path class="st2" d="M70.2,24.7c-0.6,0.8-1.1,1.6-1.7,2.4c-1.1,1.7-1.4,3.7-1.6,5.7c-0.2,2.6-0.9,5-2.7,6.9
			c-1.2,1.4-2.8,2.2-4.7,2.5c0.6-0.7,1.1-1.3,1.6-1.9c1.6-2.1,2.4-4.4,2.7-7c0.1-1.1,0.2-2.3,0.5-3.4c0.6-2.3,2.1-3.8,4.2-4.7
			c0.5-0.2,1-0.4,1.5-0.6C70.2,24.7,70.2,24.7,70.2,24.7z"/>
		<path class="st2" d="M57,49.9c0.6,0.7,1.1,1.4,1.6,1.9c2,2.1,4.4,3.4,7.2,4c1.8,0.4,3.5,1.2,4.8,2.6c1.2,1.4,1.7,3,1.8,4.8
			c-0.1-0.1-0.3-0.3-0.4-0.4c-1.8-2.1-4-3.5-6.8-4.1c-2-0.4-3.8-1.3-5.4-2.6c-1.7-1.4-2.6-3.3-2.8-5.5C57,50.5,57,50.3,57,49.9z"/>
		<path class="st2" d="M50.6,47.7c-0.5,0.6-1,1.2-1.4,1.7c-1.8,2.3-2.6,5-2.8,8c-0.1,2.4-0.7,4.6-2.7,6.3c-1,0.9-2.3,1.4-3.6,1.9
			c0.5-0.7,1-1.3,1.4-2c1.2-1.7,1.7-3.7,1.8-5.8c0.1-2.7,0.7-5.2,2.5-7.4C47.1,49,48.6,48.1,50.6,47.7z"/>
		<path class="st2" d="M51.8,49.3c-1.1,2.4-1.7,4.8-1.4,7.4c0.2,1.3,0.5,2.5,0.8,3.8c0.5,2.1,0.4,4.1-0.7,6.1
			c-0.7,1.1-1.6,2-2.7,2.9c0-0.2,0-0.3,0-0.4c1.1-2.9,1-5.7,0.2-8.7c-0.7-2.5-0.7-5,0.4-7.5C49.1,51.3,50.3,50.2,51.8,49.3z"/>
		<path class="st2" d="M55.1,50.7c0.2,0.5,0.3,1,0.5,1.5c1,2.8,2.8,5,5.3,6.7c0.9,0.6,1.7,1.2,2.4,2c1.8,1.8,2.3,4,2,6.5
			c-0.1,0.3-0.1,0.7-0.2,1c0,0.1-0.1,0.1-0.1,0.1c-0.5-1-0.9-1.9-1.4-2.9c-0.8-1.4-1.9-2.6-3.3-3.5c-1.9-1.2-3.5-2.7-4.6-4.6
			C54.4,55.3,54.2,53,55.1,50.7z"/>
		<path class="st2" d="M54.8,39.7c-0.3-0.8-0.5-1.5-0.7-2.1c-1.1-2.7-2.9-4.7-5.2-6.2c-1.4-0.9-2.6-1.9-3.4-3.4c-1.1-2-1-4-0.5-6.3
			c0.3,0.6,0.5,1,0.6,1.5c0.9,2.1,2.3,3.8,4.2,5.1c1.9,1.2,3.5,2.7,4.6,4.7C55.5,34.9,55.8,37.6,54.8,39.7z"/>
		<path class="st2" d="M53.4,50.3c-0.2,2-0.1,4,0.6,6c0.5,1.5,1.3,2.9,2.3,4.2c0.9,1.2,1.6,2.6,1.9,4.1c0.3,1.8-0.1,3.4-0.9,4.9
			c-0.2,0.4-0.4,0.7-0.7,1.2c-0.1-0.8-0.1-1.5-0.2-2.2c-0.2-2.1-0.9-3.9-2.1-5.6c-1.3-1.7-2.3-3.6-2.7-5.7c-0.5-2.5,0-4.7,1.6-6.7
			c0.1-0.1,0.1-0.2,0.1-0.3C53.3,50.2,53.4,50.2,53.4,50.3z"/>
		<path class="st2" d="M56.6,39.7c0.3-3.1-0.2-6-1.8-8.6c-0.7-1.1-1.5-2.1-2.1-3.3c-1.3-2.4-1.3-4.8,0-7.2c0.2-0.4,0.5-0.8,0.7-1.4
			c0.1,0.8,0.1,1.4,0.2,2c0.1,2.2,0.9,4.1,2.2,5.8c1.3,1.8,2.4,3.8,2.8,6.1c0.3,2.4-0.3,4.5-1.8,6.3C56.8,39.7,56.7,39.7,56.6,39.7z
			"/>
		<path class="st2" d="M58.4,40.7c0.7-1.6,1.2-3.3,1.3-5c0.2-1.8-0.1-3.5-0.5-5.2c-0.3-1-0.5-2.1-0.6-3.2c-0.2-2.2,0.6-4.1,2.2-5.6
			c0.4-0.4,0.9-0.8,1.4-1.3c-0.3,1.2-0.6,2.3-0.8,3.4c-0.3,1.5-0.2,3,0.3,4.5c0.5,1.7,0.9,3.3,0.8,5.1c-0.1,2.9-1.2,5.3-3.7,7
			C58.8,40.5,58.6,40.6,58.4,40.7z"/>
	</g>
	<g>
		<g>
			<path class="st3" d="M64.4,47.5c-0.1,0.1-0.2,0.1-0.3,0.2c-0.5,0,0.2-0.7,0.4-0.8c0.1-0.1,0.3-0.1,0.4,0c0.1,0.1,0.2,0.3,0.2,0.4
				c0,0.2-0.1,0.6,0,0.7c0.2-0.1,0.3-0.3,0.5-0.5c0.2-0.3,0.6-0.6,0.9-0.6c0.1,0,0.2,0,0.2,0.1c0,0,0,0.1,0,0.2c0,0.1-0.1,0.8,0,0.8
				c0.2,0.1,0.4-0.3,0.5-0.4c0.2-0.2,0.3-0.4,0.6-0.4c1-0.2,0.4,1.7,0.4,2.1c0,0.1,0,0.3,0,0.4c0.1,0.2,0.3,0.2,0.4,0.1
				c0,0.2,0,0.5-0.3,0.6c-0.1,0.1-0.3,0-0.4-0.1c-0.1-0.1-0.2-0.2-0.2-0.4c-0.2-0.5-0.1-1,0-1.5c0-0.2,0.1-1-0.3-0.5
				c-0.2,0.3-0.5,0.6-0.7,0.9c-0.2,0.4-0.3,0.9-0.6,1.2c0,0.1-0.1,0.1-0.2,0.1c-0.3,0.1-0.1-1-0.1-1.2c0-0.2,0.1-0.5,0.1-0.7
				c0-0.1,0-0.6,0-0.7c-0.6,0.4-0.9,1.1-1.2,1.7c-0.1,0.1-0.7,1.3-0.8,0.9c-0.1-0.3,0-0.7,0.1-1C64.3,48.7,64.4,48.1,64.4,47.5z"/>
			<path class="st3" d="M72.9,49.4C72.9,49.4,72.9,49.4,72.9,49.4c0,0.1,0,0.1,0,0.1c-0.1,0.2-0.2,0.4-0.4,0.5c0,0,0,0.1-0.1,0.1
				c0,0,0,0.1,0,0.1c0,0.1-0.1,0.1-0.2,0.1c-0.3,0.1-0.5,0-0.8-0.1c-0.2-0.1-0.3-0.3-0.4-0.5c0,0,0-0.1,0-0.1c0,0-0.1,0.1-0.1,0.1
				c0,0.1-0.1,0.1-0.1,0.2c-0.1,0.2-0.3,0.5-0.6,0.4c-0.1,0-0.2-0.1-0.3-0.2c0-0.1-0.1-0.2-0.2-0.2c-0.1,0.1-0.2,0.1-0.3,0.2
				c-0.1,0-0.2,0.1-0.3,0.1c-0.2,0-0.4-0.2-0.4-0.4c0-0.3,0.1-0.6,0.3-0.9c0.2-0.3,0.5-0.5,0.8-0.6c0.1-0.1,0.3-0.1,0.4-0.1
				c0.1,0,0.3,0.1,0.4,0.2c0,0,0.3-0.1,0.3-0.1c0.1,0.2-0.1,0.6-0.2,0.8c0,0.1-0.1,0.3-0.1,0.4c0,0.1-0.1,0.4-0.1,0.5
				c0,0.1,0.1,0.1,0.2,0c0.1-0.1,0.2-0.2,0.3-0.3c0-0.1,0.1-0.1,0.1-0.2c0-0.1,0-0.1,0-0.2c0.1-0.3,0.2-0.5,0.4-0.7
				c0.2-0.2,0.6-0.3,0.9-0.3c0.1,0,0.2,0.1,0.4,0.1c0.1,0,0.1,0.1,0.2,0.1c0,0,0,0.1,0,0.1c0,0.1,0,0.2,0,0.2c0,0.1,0,0.2,0,0.2
				c0,0-0.1,0-0.1,0c-0.1,0-0.1,0-0.2-0.1c0,0-0.1-0.1-0.1-0.1c-0.1-0.1-0.3,0-0.5,0c-0.2,0.1-0.4,0.3-0.4,0.6c0,0.1,0,0.2,0.1,0.2
				c0.1,0.1,0.2,0.1,0.3,0.1c0.2,0,0.3-0.1,0.4-0.2c0.1,0,0.1-0.1,0.2-0.1C72.7,49.5,72.9,49.4,72.9,49.4z M70.1,48.8
				C70.1,48.8,70.1,48.8,70.1,48.8c0-0.1-0.5,0.2-0.5,0.3c-0.2,0.2-0.3,0.4-0.3,0.6c0,0,0,0.1,0,0.1c0,0,0,0,0.1,0
				c0.2-0.1,0.4-0.3,0.6-0.5C70,49.2,70.1,49,70.1,48.8z"/>
			<path class="st3" d="M74.9,48.5c0,0,0.1-0.1,0.2,0c0,0.1,0,0.1,0,0.2c0,0.1-0.1,0.2-0.1,0.3c-0.1,0.2-0.1,0.3-0.2,0.5
				c0,0.1-0.1,0.2,0,0.3c0,0.1,0,0.1,0,0.2c0,0.1,0.1,0.1,0.2,0.1c0.1-0.1,0.2-0.2,0.3-0.3c0.1-0.1,0.1-0.2,0.2-0.3
				c0-0.1,0.1-0.2,0.1-0.3c0.1-0.2,0.3-0.4,0.5-0.6c0.1-0.1,0.3-0.2,0.5-0.2c0.2,0,0.4-0.1,0.6,0c0.1,0.1,0.1,0.3,0.1,0.4
				c0,0.1,0.1,0.3,0.1,0.4c0,0.3-0.1,0.5-0.3,0.8c-0.3,0.4-1.1,0.7-1.5,0.2c-0.1-0.1-0.1-0.2-0.1-0.3c0,0,0-0.1,0-0.1
				c0,0-0.1,0.1-0.1,0.1c-0.2,0.3-0.3,0.6-0.6,0.6c0,0-0.1,0-0.1,0c-0.1,0-0.2-0.1-0.2-0.2c0,0-0.2-0.3-0.2-0.3
				c-0.1,0-0.2,0.1-0.3,0.2c-0.2,0.1-0.4,0.2-0.6,0.1c-0.1,0-0.1-0.1-0.1-0.1c-0.2-0.3-0.1-0.6,0.1-0.9c0.1-0.2,0.2-0.3,0.3-0.4
				c0.1-0.1,0.3-0.3,0.4-0.3c0,0,0,0,0,0c0.1-0.1,0.2-0.1,0.3-0.1c0.1,0,0.2,0,0.4,0C74.8,48.4,74.9,48.4,74.9,48.5z M76.9,49.4
				c0-0.1-0.1-0.3-0.3-0.3c-0.1,0-0.2,0-0.3,0c-0.2,0.1-0.3,0.2-0.4,0.4c-0.1,0.2-0.1,0.4,0.1,0.5c0.1,0.1,0.4,0.1,0.5,0
				C76.7,49.9,76.9,49.6,76.9,49.4z M74.3,48.9c-0.1,0-0.1,0.1-0.1,0.1c-0.2,0.1-0.4,0.3-0.5,0.6c0,0.1-0.1,0.2,0,0.3c0,0,0,0,0,0
				c0.1,0,0.2,0,0.2-0.1c0.2-0.1,0.4-0.4,0.5-0.6c0-0.1,0.1-0.2,0.1-0.2C74.5,48.8,74.4,48.8,74.3,48.9z"/>
		</g>
		<g>
			<path class="st3" d="M32.8,50c0.1-0.1,0.2-0.2,0.3-0.3c0.2-0.1,0.3-0.3,0.5-0.4c0.4-0.3,0.7-0.5,1.1-0.8c0.4-0.2,0.7,0,1.1,0.2
				c0.4,0.2,0.8,0.4,1.3,0.5c0.9,0.3,1.8,0.4,2.7,0.3c0.3,0,0.6,0,0.8-0.2s0.4-0.4,0.3-0.7c-0.2-0.7-1.3-0.8-1.9-0.8
				c-0.5,0-1.1-0.1-1.6-0.2c-0.5-0.1-1-0.1-1.5-0.2c-0.8-0.1-2.3-0.5-1.6-1.7c0.2-0.3,0.4-0.4,0.7-0.6c0.8-0.5,1.8-0.7,2.8-0.8
				c0.9-0.1,1.8-0.1,2.7,0c0.7,0.1,2,0.2,2.3,0.9c0,0,0,0.1,0,0.1c-0.5,0.2-1,0.4-1.5,0.6c-0.2,0.1-0.4,0.1-0.6,0.1
				c0.2-0.1,0.3-0.2,0.2-0.4c-0.1-0.2-0.2-0.3-0.4-0.4c-0.3-0.2-0.6-0.3-1-0.4c-1-0.2-2.1-0.2-3.1,0.1c-0.2,0.1-0.5,0.1-0.6,0.3
				c-0.6,0.7,0.7,1.2,1.2,1.4c0.5,0.2,1.1,0.2,1.7,0.2c0.9,0,1.9-0.1,2.7,0.3c0.6,0.2,1.2,0.7,0.9,1.4c-0.1,0.3-0.3,0.5-0.6,0.7
				c-1.4,1.1-3.6,1.3-5.3,1c-0.8-0.1-1.5-0.3-2.2-0.5c-0.2,0-0.4-0.1-0.6,0C33.3,49.8,33.1,49.9,32.8,50z"/>
			<path class="st3" d="M50.8,44.6c-2.1-0.1-4.1,0.1-6.2,0.4c-0.1,0-0.2,0.1-0.3,0c-0.2-0.1,0.2-0.2,0.3-0.2c0.5-0.1,1-0.2,1.4-0.3
				c2.3-0.4,4.7-0.6,7.1-0.5c1.1,0,2.2,0.2,3.2,0.6c0.4,0.2,0.8,0.4,1,0.8c0.3,0.4,0.3,0.9,0.3,1.3c0,0.8-0.3,1.6-0.7,2.2
				c-0.3,0.4-0.6,0.7-1,1s-0.9,0.3-1.3,0.2c-0.7-0.2-1.2-0.9-1.2-1.7c0-0.2,0.1-0.4,0.1-0.7c0.2-0.5,0.7-0.8,1.2-1
				c0.3-0.1,0.6-0.1,0.9-0.2c0.3,0,0.7,0.1,0.7-0.2c0-0.4-0.4-0.9-0.8-1.1c-0.4-0.3-0.9-0.4-1.4-0.5C53,44.7,51.9,44.6,50.8,44.6z
				 M54.5,48.2c0,0.2,0,0.3,0.1,0.5c0,0.1,0,0.2,0.1,0.3c0.1,0.1,0.2,0.2,0.3,0.2c0.2,0.1,0.5,0.2,0.8,0.2c0.1,0,0.3,0,0.4-0.1
				c0.1-0.1,0.1-0.2,0.1-0.3c0-0.3,0-0.6,0-0.9c0-0.1,0-0.3-0.1-0.4c-0.1-0.1-0.2-0.2-0.3-0.2c-0.4-0.2-1.1-0.4-1.3,0.1
				C54.5,47.7,54.5,48,54.5,48.2z"/>
			<path class="st3" d="M47.9,47.4c-0.1-0.1,0-0.2,0.1-0.3c0.3-0.2,0.7-0.4,1-0.5c0.1,0,0.2,0,0.3,0.1c0.1,0,0.1,0.1,0.1,0.2
				c0.1,0.2,0.1,0.5,0.1,0.7c0,0.1-0.1,0.5,0,0.6c0.1,0,0.1,0,0.2-0.1c0.6-0.5,1.1-1,1.9-1.3c0.1,0,0.3-0.1,0.4-0.1
				c0.3,0.1,0.3,0.5,0.3,0.8c0,0.3,0,0.6,0,0.9c0,0.2-0.1,0.6,0.1,0.8c0.2,0.2,0.4-0.1,0.6-0.1c0,0.1,0,0.2-0.1,0.3
				c-0.2,0.2-0.5,0.5-0.7,0.6c-0.2,0.1-0.5,0.2-0.7,0.1c-0.2-0.1-0.2-0.4-0.2-0.7c0-0.4,0-0.9,0-1.3c0-0.2,0-0.4-0.2-0.5
				c-0.2-0.1-0.4,0-0.5,0.2c-0.6,0.5-1.1,1.1-1.5,1.8c-0.1,0.1-0.5,0.7-0.7,0.5c-0.1-0.1,0-0.6,0-0.7c0-0.3,0-0.7,0-1.1
				c0-0.3,0.1-0.9-0.3-0.8C48,47.4,47.9,47.4,47.9,47.4z"/>
			<path class="st3" d="M47.8,49C47.8,49,47.8,49,47.8,49c0,0.2-0.3,0.5-0.4,0.6c-0.2,0.2-0.5,0.4-0.8,0.4c-0.2,0.1-0.5,0.1-0.6-0.1
				c-0.1-0.1-0.1-0.2-0.1-0.3c0-0.2-0.1-0.5-0.1-0.7c0-0.2,0.1-0.8-0.3-0.4c-0.5,0.6-1,1.2-1.8,1.5c-0.2,0.1-0.4,0.2-0.6,0.1
				c-0.1-0.1-0.2-0.2-0.3-0.3c-0.2-0.3-0.1-0.7,0-1.1c0.3-1.1,1.4-2.2,2.6-2c0.3,0,0.6,0.1,0.9,0.1c0.2,0,0.4-0.1,0.6,0
				c0.1,0.1,0.1,0.4,0.1,0.5c0,0.5-0.1,1,0,1.4c0,0.2,0.1,0.4,0.2,0.4c0.1,0,0.2,0,0.3,0C47.6,49.1,47.7,49,47.8,49z M44.8,47.1
				c-0.2,0-0.4,0.1-0.5,0.1c-0.2,0.1-0.3,0.4-0.4,0.6c-0.1,0.3-0.1,0.7,0,1c0,0.1,0,0.1,0.1,0.2c0.1,0.1,0.3,0.1,0.4,0.1
				c0.3,0,0.6-0.3,0.8-0.5c0.2-0.2,0.4-0.4,0.6-0.7c0.1-0.1,0.1-0.2,0.1-0.3C45.8,47.2,45.3,47,44.8,47.1z"/>
			<path class="st3" d="M57.2,50.1c0.1-0.2,0.5-0.5,0.7-0.7c0.1-0.1,0.2-0.2,0.3-0.2c0.1,0,0.2,0,0.3,0c0.7,0.2,1.3,0.6,2,0.5
				c0.1,0,0.3-0.1,0.4-0.2c0.6-0.7-1.9-1.1-2.3-1.2c-0.2,0-0.4-0.1-0.5-0.3c-0.1-0.2,0-0.5,0.1-0.6c0.2-0.3,0.6-0.5,0.9-0.7
				c0.5-0.2,1-0.2,1.5-0.2c0.2,0,0.5,0.1,0.7,0.1c0.1,0,0.6,0.2,0.5,0.4c0,0,0,0.1-0.1,0.1c-0.1,0.1-0.3,0.2-0.5,0.2
				c-0.3,0.1-0.3-0.1-0.5-0.3c-0.2-0.2-0.4-0.2-0.7-0.3c-0.3,0-1.3,0.1-1,0.6c0.1,0.1,0.2,0.2,0.3,0.2c0.2,0.1,0.3,0.1,0.5,0.2
				c0.5,0.1,1,0.2,1.5,0.3c0.2,0.1,0.4,0.2,0.5,0.4c0.1,0.3-0.1,0.7-0.3,0.9c-0.8,0.7-1.9,0.8-2.9,0.6c-0.3,0-0.5-0.1-0.8-0.1
				C57.6,50,57.4,50.1,57.2,50.1z"/>
			<path class="st4" d="M62.2,50.1c0,0-0.1,0.1-0.1,0.1c0,0-0.1,0-0.1,0c-0.1,0-0.1,0-0.1,0c0,0-0.1-0.1-0.1-0.1c0,0,0-0.1,0-0.1
				c0-0.1,0-0.1,0-0.1c0,0,0.1-0.1,0.1-0.1c0,0,0.1,0,0.1,0c0,0,0.1,0,0.1,0c0,0,0.1,0.1,0.1,0.1c0,0,0,0.1,0,0.1
				C62.2,50,62.2,50.1,62.2,50.1z M62.1,49.9C62.1,49.8,62.1,49.8,62.1,49.9c-0.1-0.1-0.2-0.1-0.2-0.1c0,0-0.1,0-0.1,0
				c0,0-0.1,0.1-0.1,0.1c0,0,0,0.1,0,0.1c0,0,0,0.1,0,0.1c0,0,0.1,0.1,0.1,0.1c0,0,0.1,0,0.1,0c0,0,0.1,0,0.1,0c0,0,0.1-0.1,0.1-0.1
				c0,0,0-0.1,0-0.1C62.2,49.9,62.1,49.9,62.1,49.9z M62,50.1C62,50.1,62,50.1,62,50.1L62,50.1C62,50.1,62,50.1,62,50.1
				c0,0-0.1-0.1-0.1-0.1l0,0l0,0.1l0,0l0-0.3c0,0,0.1,0,0.1,0c0,0,0.1,0,0.1,0c0,0,0,0,0,0.1C62,50,62,50,62,50.1L62,50.1
				C62,50,62,50,62,50.1z M62,49.9C62,49.9,61.9,49.9,62,49.9c-0.1-0.1-0.1-0.1-0.1-0.1l0,0.1L62,49.9C61.9,50,62,49.9,62,49.9z"/>
		</g>
	</g>
	<g>
		<path class="st3" d="M40.2,54.1H40c0-0.1,0-0.2-0.1-0.3c0-0.1,0-0.3-0.1-0.4c0-0.1,0-0.3-0.1-0.4c0-0.1,0-0.2,0-0.3h3.1V53
			c-0.2,0.4-0.4,0.7-0.6,1c-0.2,0.3-0.3,0.6-0.4,1c-0.1,0.3-0.2,0.7-0.3,1c-0.1,0.4-0.1,0.7-0.2,1.2h-0.9c0.2-0.6,0.4-1.2,0.6-1.8
			c0.3-0.6,0.6-1.1,0.9-1.7l0.2-0.3l-0.3,0h-1.4L40.2,54.1z"/>
		<path class="st3" d="M43.9,54.1h-0.2c0-0.1,0-0.2-0.1-0.3c0-0.1,0-0.3-0.1-0.4c0-0.1,0-0.3-0.1-0.4c0-0.1,0-0.2,0-0.3h3.1V53
			c-0.2,0.4-0.4,0.7-0.6,1c-0.2,0.3-0.3,0.6-0.4,1c-0.1,0.3-0.2,0.7-0.3,1c-0.1,0.4-0.1,0.7-0.2,1.2h-0.9c0.2-0.6,0.4-1.2,0.6-1.8
			c0.3-0.6,0.6-1.1,0.9-1.7l0.2-0.3l-0.3,0h-1.4L43.9,54.1z"/>
		<path class="st3" d="M47.1,52.7h2v0.2C49.1,53,49,53,48.9,53c-0.1,0-0.2,0.1-0.3,0.1v3.3c0,0.3-0.1,0.6-0.2,0.9s-0.2,0.4-0.4,0.5
			c-0.1,0.1-0.3,0.2-0.5,0.3c-0.2,0.1-0.3,0.1-0.4,0.1L47.1,58c0.1-0.1,0.1-0.1,0.2-0.2c0.1-0.1,0.1-0.2,0.2-0.3
			c0-0.1,0.1-0.3,0.1-0.4c0-0.2,0-0.4,0-0.6v-3.3c-0.1,0-0.2,0-0.3-0.1c-0.1,0-0.2-0.1-0.3-0.1V52.7z"/>
		<path class="st3" d="M50.4,56.6c0,0,0.1,0.1,0.2,0.1c0.1,0,0.2,0.1,0.4,0.1c0.2,0,0.4-0.1,0.6-0.2c0.2-0.1,0.2-0.3,0.2-0.5
			c0-0.2-0.1-0.3-0.2-0.4c-0.1-0.1-0.2-0.2-0.4-0.3s-0.3-0.2-0.5-0.3c-0.2-0.1-0.4-0.2-0.5-0.3c-0.2-0.1-0.3-0.3-0.4-0.4
			c-0.1-0.2-0.2-0.4-0.2-0.6c0-0.2,0-0.4,0.1-0.5c0.1-0.2,0.2-0.3,0.3-0.4c0.1-0.1,0.3-0.2,0.5-0.2c0.2,0,0.4-0.1,0.6-0.1
			c0.3,0,0.5,0,0.8,0.1c0.2,0,0.4,0.1,0.6,0.2c0,0.1,0,0.2,0,0.3s0,0.2,0,0.3c0,0.1,0,0.2-0.1,0.3c0,0.1,0,0.2-0.1,0.2h-0.3
			l-0.3-0.9c-0.1,0-0.1,0-0.2-0.1c-0.1,0-0.2,0-0.3,0c-0.2,0-0.3,0-0.5,0.1c-0.1,0.1-0.2,0.2-0.2,0.4c0,0.2,0.1,0.3,0.2,0.4
			c0.1,0.1,0.2,0.2,0.4,0.3c0.2,0.1,0.3,0.2,0.5,0.3c0.2,0.1,0.4,0.2,0.5,0.3c0.2,0.1,0.3,0.3,0.4,0.4c0.1,0.2,0.2,0.4,0.2,0.6
			c0,0.4-0.1,0.8-0.4,1c-0.3,0.2-0.7,0.3-1.3,0.3c-0.1,0-0.3,0-0.4,0c-0.1,0-0.3,0-0.4-0.1s-0.2-0.1-0.3-0.1c-0.1,0-0.2-0.1-0.2-0.1
			c0-0.1,0-0.2,0-0.3c0-0.1,0-0.2,0.1-0.3c0-0.1,0-0.2,0.1-0.3c0-0.1,0-0.2,0.1-0.3h0.3L50.4,56.6z"/>
		<path class="st3" d="M53.5,56.7c0-0.2,0.1-0.3,0.2-0.4c0.1-0.1,0.2-0.1,0.4-0.1c0.2,0,0.3,0,0.4,0.1c0.1,0.1,0.2,0.2,0.2,0.4
			c0,0.2-0.1,0.3-0.2,0.4c-0.1,0.1-0.2,0.1-0.4,0.1c-0.2,0-0.3,0-0.4-0.1C53.5,57,53.5,56.8,53.5,56.7z"/>
		<path class="st3" d="M58.6,55.8h0.3c0,0.1,0,0.1,0.1,0.2s0,0.2,0,0.3c0,0.1,0,0.2,0,0.3c0,0.1,0,0.2,0,0.3
			c-0.2,0.1-0.4,0.2-0.6,0.2c-0.2,0-0.5,0.1-0.7,0.1c-0.4,0-0.7,0-1-0.1c-0.3-0.1-0.6-0.2-0.8-0.4c-0.2-0.2-0.4-0.4-0.5-0.7
			c-0.1-0.3-0.2-0.6-0.2-1c0-0.4,0.1-0.7,0.2-1c0.1-0.3,0.3-0.5,0.5-0.7c0.2-0.2,0.5-0.3,0.7-0.4c0.3-0.1,0.6-0.1,0.9-0.1
			c0.3,0,0.6,0,0.8,0.1c0.2,0,0.4,0.1,0.6,0.2c0,0.1,0,0.2,0,0.3c0,0.1,0,0.2,0,0.3c0,0.1,0,0.2-0.1,0.3c0,0.1,0,0.2-0.1,0.3h-0.3
			l-0.4-1c0,0-0.1,0-0.2-0.1c-0.1,0-0.2,0-0.3,0c-0.2,0-0.4,0-0.5,0.1s-0.3,0.2-0.4,0.3c-0.1,0.2-0.2,0.3-0.3,0.6
			c-0.1,0.2-0.1,0.5-0.1,0.9c0,0.6,0.1,1.1,0.4,1.4c0.3,0.3,0.6,0.5,1,0.5c0.1,0,0.2,0,0.3,0c0.1,0,0.1,0,0.2-0.1L58.6,55.8z"/>
		<path class="st3" d="M59.6,54.9c0-0.3,0-0.6,0.1-0.9c0.1-0.3,0.2-0.5,0.4-0.7c0.2-0.2,0.4-0.4,0.7-0.5c0.3-0.1,0.6-0.2,1-0.2
			c0.4,0,0.7,0.1,1,0.2c0.3,0.1,0.5,0.3,0.7,0.5c0.2,0.2,0.3,0.4,0.4,0.7c0.1,0.3,0.1,0.6,0.1,0.9s0,0.6-0.1,0.9
			c-0.1,0.3-0.2,0.5-0.4,0.7c-0.2,0.2-0.4,0.4-0.7,0.5c-0.3,0.1-0.6,0.2-1,0.2c-0.4,0-0.7-0.1-1-0.2c-0.3-0.1-0.5-0.3-0.7-0.5
			c-0.2-0.2-0.3-0.4-0.4-0.7C59.7,55.6,59.6,55.2,59.6,54.9z M60.7,54.9c0,0.3,0,0.5,0.1,0.8c0,0.2,0.1,0.4,0.2,0.6
			c0.1,0.2,0.2,0.3,0.4,0.4s0.3,0.1,0.5,0.1c0.2,0,0.4,0,0.5-0.1c0.1-0.1,0.2-0.2,0.3-0.4c0.1-0.2,0.1-0.4,0.2-0.6
			c0-0.2,0.1-0.5,0.1-0.8c0-0.3,0-0.5-0.1-0.8c0-0.2-0.1-0.4-0.2-0.6s-0.2-0.3-0.4-0.4S62,53,61.8,53c-0.2,0-0.4,0-0.5,0.1
			c-0.1,0.1-0.2,0.2-0.3,0.4c-0.1,0.2-0.1,0.4-0.2,0.6C60.8,54.4,60.7,54.6,60.7,54.9z"/>
		<path class="st3" d="M70.4,57.1h-2v-0.2c0.1,0,0.2-0.1,0.3-0.1c0.1,0,0.2-0.1,0.3-0.1v-2.7l0-0.7h-0.1L68.7,54l-1.3,3.1h-0.3
			L65.8,54l-0.2-0.7h-0.1l0,0.8v2.6c0.1,0,0.2,0,0.3,0.1c0.1,0,0.2,0.1,0.3,0.1v0.2h-1.6v-0.2c0.1,0,0.2-0.1,0.3-0.1
			c0.1,0,0.2-0.1,0.3-0.1v-3.6c-0.1,0-0.2,0-0.3-0.1c-0.1,0-0.2-0.1-0.3-0.1v-0.2h1.8l1,2.6l0.2,0.6h0l0.2-0.6l1-2.6h1.6v0.2
			c-0.1,0-0.2,0.1-0.2,0.1c-0.1,0-0.2,0.1-0.3,0.1v3.6c0.1,0,0.2,0,0.3,0.1c0.1,0,0.2,0.1,0.2,0.1V57.1z"/>
	</g>
	<path class="st3" d="M53.4,42.9c-0.2,0-0.3-0.2-0.3-0.4c-0.1-0.5-0.1-0.6-0.2-0.7l-0.2-0.3h0c0.1,0,0.2,0,0.3,0
		c0.1,0,0.2-0.1,0.2-0.1c0.1-0.1,0.1-0.4,0.2-1l-0.1-2.7c0-0.6,0-1.1-0.1-1.5c-0.1,0-0.2,0-0.3,0c-0.1,0-0.3,0-0.4,0.1
		c-0.2,0.1-0.4,0.1-0.7,0.2l-0.3,0.1c-0.1,0-0.1,0-0.2,0c-0.2,0-0.2-0.1-0.4-0.4c-0.2-0.3-0.1-0.4-0.1-0.4c0,0,0.2-0.6,0.2-0.6
		l0-1.5L51,34c-0.3,0.4-0.5,0.8-0.7,1.1c-0.2,0.3-0.5,0.8-0.9,1.4c0,0-0.1,0.2-0.3,0.4c-0.2,0.2-0.3,0.3-0.4,0.4c0,0,0,0-0.1,0
		c-0.2,0-0.3-0.1-0.4-0.3l-0.3-0.1l-0.2,3.7c0,0.2-0.1,0.5-0.2,0.8c-0.1,0.3-0.3,0.5-0.4,0.5c-0.1,0-0.3-0.1-0.4-0.4
		c-0.2-0.3-0.3-0.5-0.3-0.6l0.2-0.4c0.1-1,0.2-2.2,0.3-3.6c0.1-1.4,0.1-2.6,0-3.6v-0.7c0.1,0.1,0.2,0.2,0.5,0.2
		c0.2,0.1,0.3,0.1,0.4,0.2C48,33,48,33.1,48,33.3c0,0,0,0.1-0.1,0.5l0,0.4c0.2,0.1,0.3,0.1,0.4,0.2c0.1,0,0.2,0,0.3,0.1l0.2-0.3
		l0-0.2c-0.2-0.1-0.2-0.2-0.3-0.2c-0.1,0-0.2-0.1-0.2-0.2l-0.2-0.5C48,32.4,48,32.3,48,32.3l0,0l0,0c0.1,0,0.3,0.1,0.5,0.1h0.4
		c0.1,0,0.2,0,0.2,0c0.2,0,0.3,0,0.5,0.1c0.3,0.1,0.5,0.2,0.6,0.4c0,0.1,0,0.1-0.1,0.3l-0.2,0.3c-0.1,0.1-0.1,0.4-0.2,0.7
		c0,0.2-0.1,0.7-0.1,0.7s0.6-0.7,0.9-0.9l0.8-0.9l0-0.8l0.6,0.3l0.2-0.1L52,32.3c0,0,0.1,0,0.1,0c0.1,0,0.3-0.1,0.6-0.2
		c0.5-0.2,0.6-0.3,0.6-0.3c0,0,0,0,0,0c0.2,0,0.4,0.1,0.7,0.2c0.3,0.1,0.5,0.3,0.5,0.4c0,0.1,0.1,0.2,0.1,0.4
		c-0.2,1.1-0.2,2.5-0.1,4l0.3,4.1c0,0.3-0.1,0.6-0.2,0.9c-0.1,0.3-0.3,0.6-0.5,0.7c-0.1,0.1-0.2,0.1-0.4,0.2
		C53.6,42.8,53.5,42.9,53.4,42.9L53.4,42.9z M47.9,35l-0.1,1.4l0.5-0.3c0.2-0.2,0.4-0.3,0.4-0.3c0-0.1,0-0.2,0-0.3l0-0.1l-0.1-0.2
		c0,0-0.1,0-0.1,0c-0.2,0-0.3,0-0.3-0.1c0,0,0,0-0.1-0.2L47.9,35z M53,34.4c-0.1,0-0.2,0.1-0.3,0.1l-0.6,0.4l0,0.2l0.1,0.3l0.9-0.3
		l0.1-0.4l0-0.1L53,34.4z M52.3,32.9L52.3,32.9c0.1,0.2,0.1,0.3,0.1,0.4c0,0.1,0,0.1,0,0.2l0,0.2c0,0,0.4-0.1,0.5-0.1
		c0.1,0,0.1,0,0.2,0c0.1,0,0.1,0,0.2,0l0.1-0.4c0-0.2,0-0.3,0-0.3c-0.2-0.1-0.3-0.1-0.4-0.1c-0.2,0-0.3,0-0.3,0L52.3,32.9z"/>
	<path class="st3" d="M60.4,42.4c-0.2,0-0.4-0.1-0.6-0.3c-0.1-0.2-0.2-0.5-0.3-0.8l0.9,0c0.7-0.1,0.9-0.2,0.9-0.3l0.1,0l0.1-0.1
		c0-0.2-0.1-0.5-0.1-0.8v-0.3l-0.1,0c0,0,0,0,0,0l0-0.5c-0.4-0.2-0.7-0.3-0.8-0.4c-0.1-0.1-0.2-0.2-0.4-0.6c0,0,0,0,0,0
		c0.1,0,0.2-0.1,0.5-0.2c0.6-0.2,0.6-0.3,0.6-0.3c0.1-0.1,0.1-0.2,0.1-0.3l0-0.3c-0.2-0.1-0.4-0.2-0.5-0.3c-0.1-0.1-0.2-0.2-0.4-0.4
		c-0.5,0.3-0.9,0.5-1.3,0.8c-0.5,0.4-0.9,0.6-1.2,0.7c-0.1,0-0.3,0.1-0.4,0.1c0,0-0.1,0-0.1,0c0.5-0.5,1-1.1,1.3-1.6
		c0.4-0.5,0.8-1.2,1.3-2l0.7-1.2c0.4-0.6,0.6-0.8,0.8-0.8c0,0,0.1,0,0.1,0c0.1,0,0.2,0,0.4,0c0.3,0.1,0.4,0.1,0.4,0.1
		c0.1,0.1,0.2,0.2,0.2,0.2l0.4,0.1c0.1,0.1,0.6,0.6,1.7,1.6c0.8,0.8,1.4,1.3,1.7,1.6l1.2,0.7c0.8,0.5,0.8,0.7,0.8,0.7
		c0,0-0.1,0.2-1.1,0.4c-0.5,0.1-0.9,0.2-1.1,0.2c-0.2,0-0.4-0.2-1.2-1c-0.7-0.8-1.1-1.2-1.1-1.2l-0.1-0.3c0,0-0.2,0.3-0.3,0.5
		c-0.1,0.1-0.1,0.2-0.2,0.2c0,0,0,0.1-0.2,0.2l-0.2,0.2C63,36.8,63,36.8,63,37c0.2,0.1,0.3,0.1,0.3,0.1c0,0,0,0,0,0
		c0.1,0,0.3,0,0.3,0.1c0.1,0.1,0.2,0.2,0.1,0.5c0,0.1-0.1,0.2-0.2,0.3c-0.1,0.1-0.2,0.2-0.2,0.3c-0.1,0-0.2,0.1-0.3,0.2
		C63,38.5,63,38.6,63,38.8c0,0.2,0,0.3-0.1,0.4l-0.1,0.3l0.2-0.2c0.1-0.1,0.3-0.2,0.4-0.4c0.1-0.1,0.2-0.2,0.4-0.4l0.4,0.1
		c0.3,0.1,0.3,0.2,0.3,0.2c0,0,0,0.1-0.5,0.5c-0.3,0.2-0.6,0.4-0.9,0.6c-0.1,0-0.2,0.1-0.3,0.2c-0.1,0.1-0.1,0.2-0.1,0.4l0,0.3
		c1,0.1,1.6,0.2,1.8,0.2c0.9,0.2,0.9,0.5,0.9,0.6c0,0.2-0.1,0.3-0.2,0.4c-0.1,0.1-0.3,0.2-0.4,0.2c-0.9-0.1-1.4-0.1-1.6-0.1
		c-0.2,0-0.5,0-0.7,0c-0.3,0-0.6,0-0.9,0C61.6,42.3,60.5,42.4,60.4,42.4z M61.5,34.5l-0.8,1.1l0.3-0.1c0.3-0.1,0.5-0.1,0.8-0.2
		c0.2-0.1,0.4-0.2,0.7-0.4c0.1,0,0.1,0,0.3,0.1l0.8,0.3l-0.7-1c-0.2-0.2-0.6-0.8-0.6-0.8S61.8,34.1,61.5,34.5z M60.5,40.6
		c-0.2-0.1-0.4-0.3-0.5-0.6c-0.1-0.2-0.1-0.5-0.1-0.8c0,0.1,0.1,0.1,0.3,0.2c0.1,0,0.2,0.1,0.4,0.2c0.1,0,0.2,0.1,0.3,0.1
		c0.1,0,0.1,0,0.2,0c-0.1,0.3-0.2,0.5-0.2,0.6C60.7,40.6,60.6,40.6,60.5,40.6z"/>
	<path class="st5" d="M70.4,36.1c0.2,0,0.5,0,0.7,0c0.3,0,0.6,0.1,0.7,0.1c0.2,0.1,0.2,0.3,0.2,0.5c0,0.2-0.1,0.4-0.3,0.6
		c-0.1,0.1-0.2,0.2-0.2,0.4c-0.1-0.1-0.3-0.2-0.5-0.4c-0.1-0.2-0.2-0.4-0.3-0.5c0,0-0.1-0.1-0.1-0.4C70.4,36.2,70.4,36.1,70.4,36.1z
		 M72.2,37.8c0,0.1,0,0.4,0,0.9c0,0.5,0,0.8,0,0.9l-0.2,0.8c-0.1,0.4-0.2,0.6-0.3,0.7c-0.2,0-0.3,0-0.4,0c0,0-0.2-0.2-0.4-0.4
		c-0.2-0.3-0.4-0.5-0.4-0.5c0.1-0.1,0.3-0.4,0.7-0.9c0.4-0.5,0.6-0.8,0.7-0.9c0-0.1,0.1-0.2,0.2-0.3C72.1,38,72.2,37.9,72.2,37.8z
		 M71.7,33.1c0.2,0,0.5,0.1,0.7,0.3c0.3,0.2,0.4,0.4,0.3,0.6c0,0.1-0.1,0.1-0.1,0.2c-0.1,0.1-0.1,0.2-0.2,0.2
		c-0.2,0.1-0.5,0-0.9-0.2c-0.3-0.1-0.6-0.3-0.8-0.4c0,0,0.2-0.2,0.5-0.4C71.4,33.2,71.6,33.1,71.7,33.1z M75.3,31.8
		c0.5,0.1,0.8,0.2,1,0.3c0.4,0.1,0.7,0.3,0.8,0.5c0.1,0.1,0.1,0.3,0.1,0.6c0,0.3,0,0.5,0,0.6c0,0.1-0.1,0.4-0.1,1
		c-0.1,0.6-0.1,0.9-0.1,1c0,0.2,0,0.5,0,1c0,0.4,0,0.7,0,1l0.3-0.7c0.1-0.3,0.2-0.5,0.3-0.7c0,0,0-0.1,0.1-0.3
		c0.1-0.1,0.1-0.2,0.1-0.2c0.3,0.1,0.5,0.3,0.6,0.5c0.1,0.2,0.1,0.5,0,0.8c0,0.2-0.1,0.4-0.3,0.8c-0.1,0.3-0.3,0.5-0.4,0.7
		c-0.1,0.1-0.3,0.4-0.6,0.8c-0.2,0.2-0.4,0.4-0.6,0.7c-0.2,0.3-0.5,0.6-0.9,0.9c-0.4,0.4-0.7,0.6-1,0.8c-0.2,0.1-0.5,0.3-1,0.5
		c-0.5,0.2-0.8,0.4-1,0.5c0-0.1,0.2-0.2,0.4-0.5c0.2-0.2,0.4-0.4,0.5-0.4c0.1-0.1,0.3-0.3,0.7-0.8c0.4-0.5,0.7-0.8,0.7-0.8
		c0,0,0.2-0.3,0.6-0.7c0.3-0.4,0.5-0.7,0.5-0.7c0-0.1,0.1-0.2,0.2-0.3l-0.3,0.1c-0.1,0-0.2,0-0.2,0c-0.1,0-0.2-0.3-0.4-0.6
		c-0.2-0.4-0.3-0.6-0.4-0.7c0.1,0,0.3-0.1,0.4-0.2c0-0.1,0.1-0.3,0.1-0.9c0-0.3,0-0.6,0-0.9l0-0.1c0,0-0.1,0.1-0.2,0.2
		c-0.1,0.1-0.1,0.2-0.2,0.3c-0.2,0.3-0.3,0.5-0.4,0.6c-0.2,0.2-0.4,0.4-0.6,0.4c-0.2,0-0.4-0.1-0.5-0.3c-0.1-0.2-0.1-0.4-0.1-0.6
		c0-0.1,0.1-0.3,0.1-0.4c0-0.2,0.1-0.3,0.1-0.4c0.1,0,0.2,0.1,0.3,0.1c0.1,0.1,0.3,0.2,0.4,0.2c0.1,0,0.2,0,0.4-0.1
		c0.1,0,0.3-0.1,0.5-0.2l0.1-0.1c0-0.1,0-0.4,0-0.8c0-0.5,0-0.8,0-0.8l-0.1-0.6c-0.1-0.3-0.1-0.5-0.1-0.6c0,0,0-0.1,0.1-0.2
		C75.2,32,75.3,31.9,75.3,31.8z M77.9,34c0,0,0.2,0,0.5,0.1s0.5,0.1,0.5,0.1c0.1,0,0.2,0,0.4,0c0.2,0,0.4,0.1,0.4,0.1
		c0.2,0.1,0.3,0.2,0.2,0.4c0,0.2-0.1,0.3-0.3,0.4c-0.1,0-0.4,0.1-0.9,0.2c-0.5,0.1-0.8,0.2-0.9,0.3c0.1-0.1,0.1-0.3,0.1-0.4
		c0-0.1,0-0.3,0-0.4c-0.1-0.1-0.1-0.2-0.1-0.4v-0.2V34z"/>
	<path class="st3" d="M73.1,42.6c0.2-0.2,0.4-0.4,0.4-0.4c0.1-0.1,0.3-0.3,0.7-0.8c0.6-0.6,0.7-0.8,0.7-0.8l0.5-0.7l0.5-0.7l0.3-0.6
		l-0.6,0.2c-0.2,0-0.2-0.1-0.5-0.6c-0.2-0.3-0.2-0.5-0.3-0.5c0.1,0,0.2-0.1,0.3-0.2c0.1-0.1,0.1-0.2,0.1-1c0-0.3,0-0.6,0-0.9
		l-0.2-0.2c0,0-0.1,0.1-0.2,0.2C75.1,35.9,75,36,75,36c-0.2,0.3-0.3,0.5-0.4,0.6c-0.2,0.2-0.4,0.3-0.5,0.3c0,0,0,0,0,0
		c-0.2,0-0.3-0.1-0.4-0.3c-0.1-0.2-0.1-0.4-0.1-0.6c0-0.1,0.1-0.3,0.1-0.4c0-0.2,0.1-0.3,0.1-0.4l0.2,0.2l0.4,0.2c0,0,0.1,0,0.1,0
		c0.2,0,0.3,0,0.4-0.1c0.1,0,0.3-0.1,0.5-0.2l0,0l0.1-0.1c0-0.1,0-0.4,0-0.8c0-0.5,0-0.8-0.1-0.9l-0.1-0.6c-0.1-0.3-0.1-0.5-0.1-0.6
		l0.1-0.2c0.5,0.1,0.8,0.1,0.9,0.2c0.4,0.1,0.7,0.3,0.8,0.4c0,0.1,0.1,0.2,0.1,0.6c0,0.3,0,0.5,0,0.6c0,0.1-0.1,0.4-0.1,1
		c-0.1,0.6-0.1,0.9-0.1,1c0,0.2,0,0.5-0.1,1c0,0.4,0,0.7,0,1l0.2,0l0.3-0.7c0.1-0.3,0.4-0.9,0.4-0.9c0.1-0.2,0.1-0.3,0.1-0.3
		c0.2,0.2,0.3,0.4,0.4,0.6c0.1,0.2,0.1,0.4,0,0.7c0,0.1-0.1,0.4-0.3,0.7c-0.1,0.3-0.3,0.5-0.4,0.7c-0.1,0.1-0.3,0.4-0.5,0.7
		c-0.2,0.2-0.4,0.4-0.6,0.7c-0.2,0.3-0.5,0.6-0.9,0.9c-0.4,0.4-0.7,0.6-1,0.8c-0.2,0.1-0.5,0.3-1,0.5c-0.2,0.1-0.4,0.2-0.5,0.3
		C73.1,42.7,73.1,42.6,73.1,42.6z M71.2,41c0,0-0.1-0.1-0.3-0.4c-0.3-0.4-0.4-0.5-0.4-0.5c0,0,0,0,0,0c0.1,0,0.3-0.3,0.7-0.7
		c0.6-0.7,0.7-0.8,0.7-0.9c0,0,0.1-0.1,0.2-0.3c0,0,0,0,0,0c0,0.1,0,0.3,0,0.5c0,0.5,0,0.8,0,0.8l-0.2,0.8c-0.2,0.5-0.3,0.6-0.3,0.6
		C71.5,41,71.3,41,71.2,41z M71.4,37.7c-0.1-0.1-0.2-0.2-0.4-0.4c-0.1-0.2-0.2-0.3-0.3-0.5l-0.1-0.4c-0.1-0.3-0.1-0.3-0.1-0.3
		c0.1,0.1,0.4,0.1,0.6,0.1c0.4,0,0.6,0.1,0.6,0.1c0,0,0.2,0.1,0.1,0.4c0,0.2-0.1,0.4-0.2,0.6C71.5,37.5,71.4,37.6,71.4,37.7z
		 M78.1,35.3c0-0.2,0-0.3,0-0.4C78,34.7,78,34.6,78,34.5l0-0.4c0,0,0.2,0.1,0.4,0.1c0.4,0.1,0.5,0.1,0.5,0.1c0.1,0,0.2,0,0.4,0
		c0.3,0,0.4,0.1,0.4,0.1c0.1,0.1,0.2,0.2,0.2,0.3c0,0.2-0.1,0.2-0.2,0.3l0,0c0,0-0.3,0.1-0.9,0.2c-0.3,0.1-0.5,0.1-0.6,0.2
		C78.1,35.4,78.1,35.4,78.1,35.3z M72.3,34.4c-0.2,0-0.4-0.1-0.7-0.2c-0.3-0.1-0.5-0.2-0.7-0.4c0.1,0,0.2-0.1,0.4-0.3
		c0.4-0.3,0.5-0.3,0.5-0.3c0,0,0,0,0,0c0.2,0,0.4,0.1,0.6,0.3c0.2,0.2,0.3,0.3,0.3,0.5c0,0,0,0.1-0.1,0.2c-0.1,0.1-0.1,0.1-0.1,0.2
		L72.3,34.4z"/>
	<g>
		<path class="st3" d="M34.7,41.8c-0.1,0.5-0.2,0.8-0.4,0.8c-0.2,0-0.5-0.3-0.9-1c-0.3-0.5-0.4-0.8-0.4-1c0-0.2,0.2-0.3,0.5-0.3
			c0.1,0,0.2-0.1,0.4-0.3c0.1-0.2,0.3-0.3,0.4-0.6c0.2-0.3,0.4-0.6,0.5-0.8c0.1-0.2,0.3-0.4,0.4-0.6c0.2-0.4,0.3-0.6,0.5-0.8
			C35.9,37,36,37,36,37c0,0,0.1,0.1,0,0.4c0,0.2-0.1,0.5-0.3,0.9c-0.1,0.3-0.2,0.7-0.4,1c-0.1,0.3-0.2,0.7-0.3,1
			c-0.1,0.3-0.2,0.6-0.2,0.8C34.8,41.4,34.7,41.6,34.7,41.8z"/>
		<path class="st3" d="M34.2,37.2c-0.2-0.1-0.3-0.3-0.4-0.4c-0.1-0.1-0.2-0.3-0.3-0.5c-0.2-0.2-0.2-0.4-0.2-0.5
			c0-0.1,0.2-0.1,0.5-0.1c0.5,0.1,0.8,0.2,1,0.3c0.2,0.2,0.3,0.4,0.3,0.6c0,0.3-0.1,0.6-0.3,0.7C34.7,37.5,34.5,37.4,34.2,37.2z"/>
		<path class="st3" d="M35.4,34.7c-0.2-0.1-0.3-0.3-0.5-0.4c-0.1-0.2-0.3-0.4-0.5-0.6c-0.1-0.1-0.2-0.2-0.2-0.3c0-0.1,0-0.1,0-0.2
			c0,0,0.1-0.1,0.2-0.1c0.1,0,0.3,0,0.4,0c0.5,0,0.8,0.1,0.9,0.3c0.2,0.1,0.3,0.4,0.3,0.7c0,0.2,0,0.3-0.1,0.4
			c0,0.1-0.1,0.2-0.2,0.2c-0.1,0-0.2,0.1-0.3,0.1C35.6,34.9,35.5,34.8,35.4,34.7z"/>
		<path class="st3" d="M38.5,36.4c-0.1-0.1-0.1-0.1-0.2-0.2c-0.1-0.1-0.1-0.1-0.2-0.2C38,35.9,38,35.8,38,35.7c0,0,0.2-0.1,0.4,0
			c0.2,0,0.4,0.1,0.4,0.1c0.1,0.1,0.1,0.2,0.1,0.3c0,0.2,0,0.3-0.1,0.4C38.7,36.6,38.6,36.5,38.5,36.4z"/>
		<path class="st3" d="M44.2,42.3c-0.5-0.1-2.3-1.1-3.1-1.6c-0.6-0.4-0.8-0.5-1.1-0.8c0.8-0.1,1.4-0.1,1.9-0.1c0.5,0,0.9,0,1.1,0
			c0.3,0,0.6,0.1,0.8,0.1c0.2,0,0.3,0,0.4-0.1c0.1-0.1,0.1-0.1,0-0.3c-0.1-0.1-0.2-0.2-0.3-0.4c-0.1-0.1-0.2-0.1-0.3-0.2
			c-0.1,0-0.2-0.1-0.3-0.1c-0.1,0-0.2,0-0.4,0c-0.1,0-0.3,0-0.6,0.1c-0.5,0.1-0.9,0.2-1.3,0.2c-0.4,0.1-0.8,0.1-1.2,0.1
			c0.1-0.2,0.2-0.3,0.2-0.4c0-0.1-0.1-0.2-0.4-0.3c0,0,0.1-0.1,0.1-0.1c0,0,0.1-0.1,0.1-0.2c0-0.1,0-0.2,0-0.3c0-0.1,0-0.2,0-0.4
			c0-0.1,0-0.2,0-0.3c0-0.1,0-0.2,0-0.4c0.1,0,0.3,0,0.4-0.1c0.1,0,0.3,0,0.5-0.1c0.2,0,0.3-0.1,0.4-0.1c0.1,0,0.1-0.1,0.1-0.1
			c0,0,0-0.1-0.1-0.1c-0.1,0-0.1-0.1-0.3-0.1c-0.1,0-0.1,0-0.3,0c-0.1,0-0.3,0-0.4,0.1c0,0-0.1,0-0.2,0c-0.1,0-0.1,0-0.2,0
			c0-0.2,0-0.3,0-0.4c0-0.1,0-0.2,0.1-0.2c0.1-0.1,0.1-0.2,0.1-0.3c0-0.1-0.1-0.1-0.3-0.2c0,0,0.1,0,0.2-0.1c0.1,0,0.1,0,0.2-0.1
			c0.1,0,0.2-0.1,0.3-0.1c0.1,0,0.1,0,0.2-0.1c0.1,0,0.2-0.1,0.2-0.1c0-0.1-0.1-0.2-0.3-0.3c-0.1-0.1-0.2-0.1-0.2-0.2
			c0.2,0,0.3,0,0.4,0c0.1,0,0.2,0,0.3,0c0.1,0,0.2,0,0.3,0.1c0,0,0.1,0.1,0.1,0.3c0,0.2,0,0.4,0,0.6c0,0.2,0,0.4,0,0.6
			c0,0.2,0,0.4,0,0.7s0,0.5-0.1,0.9c0,0.1,0,0.2,0,0.3c0,0.1,0,0.1-0.1,0.1c0,0-0.1,0-0.2,0c-0.1,0-0.2,0-0.3,0c-0.2,0-0.4,0-0.4,0
			c0,0.1,0,0.2,0.2,0.3c0.2,0.1,0.3,0.2,0.4,0.3c0.1,0.1,0.2,0.2,0.3,0.3c0.1,0.1,0.2,0.2,0.3,0.2c0.1,0,0.3-0.1,0.4-0.3
			c0.1-0.1,0.2-0.2,0.2-0.3c0.1-0.1,0.1-0.2,0.1-0.3c0-0.1,0.1-0.3,0.1-0.4c0-0.2,0-0.4,0-0.7c0-0.7,0-1.2,0.1-1.6
			c0-0.4,0.1-0.6,0.2-0.7c0.1-0.1,0.1-0.2,0.2-0.3c0-0.1,0-0.2,0-0.2c0-0.1-0.1-0.2-0.2-0.3c-0.1-0.1-0.3-0.2-0.5-0.4
			c-0.1-0.1-0.2-0.1-0.3-0.2c-0.1,0-0.2-0.1-0.2-0.1c-0.1,0-0.2,0-0.2,0c-0.1,0-0.2,0.1-0.3,0.1c-0.1,0-0.2,0.1-0.3,0.1
			c-0.1,0-0.2,0.1-0.4,0.1c-0.2,0-0.4,0.1-0.6,0.1c-0.2,0-0.5,0.1-0.9,0.1c0.1-0.1,0.3-0.3,0.4-0.4c0.1-0.1,0.2-0.2,0.3-0.2
			c0.1-0.1,0.1-0.1,0.2-0.2c0.1,0,0.1-0.1,0.2-0.1c0.2-0.1,0.3-0.3,0.3-0.4c0-0.2-0.3-0.3-0.8-0.5C39,32,38.7,32,38.6,32
			c-0.1,0.1-0.1,0.3,0,0.6c0,0.1,0,0.2-0.1,0.4c-0.1,0.2-0.2,0.6-0.5,1c-0.1,0-0.2,0-0.3,0c-0.1,0-0.2,0-0.3,0
			c-0.3-0.1-0.5-0.1-0.7-0.1c-0.2,0-0.3,0-0.4,0c-0.1,0-0.1,0.1-0.1,0.2c0,0.1,0.1,0.2,0.2,0.4c0,0,0,0.1,0.1,0.2
			c0,0.1,0.1,0.3,0.1,0.4c0,0.4,0,0.7,0,1c0,0.3,0,0.5,0,0.7c0,0.2,0,0.4-0.1,0.5c0,0.1-0.1,0.3-0.1,0.4c0,0.1-0.1,0.2-0.1,0.3
			c0,0.1,0,0.2,0.1,0.4c0.2,0.3,0.3,0.5,0.5,0.5c0.2,0,0.3-0.1,0.4-0.4c0.1-0.1,0.1-0.3,0.1-0.4c0-0.2,0-0.3,0-0.6
			c0-0.2,0-0.4,0-0.7c0-0.3,0-0.5,0-0.8c0-0.3,0-0.5,0-0.8c0-0.3,0-0.5,0-0.7c0.5-0.1,1-0.1,1.4-0.2c0.4,0,0.7-0.1,1-0.1
			c0,0,0,0,0,0c0,0,0,0,0,0c0,0-0.1,0.1-0.2,0.1c-0.1,0.1-0.2,0.1-0.4,0.2c-0.1,0.1-0.3,0.1-0.5,0.2c-0.2,0.1-0.4,0.1-0.5,0.2
			c-0.2,0.1-0.3,0.1-0.3,0.2c0,0.1,0.1,0.1,0.4,0.1c0.1,0,0.1,0,0.2,0c0.1,0,0.2,0,0.2,0c0,0,0,0.1,0.1,0.1c0,0,0,0.1,0,0.2
			c0,0.1,0,0.2,0,0.3c0,0.1,0,0.3,0,0.5c-0.1,0-0.3,0.1-0.5,0.1c-0.2,0-0.3,0-0.4,0c-0.5,0-0.5,0.2,0,0.4c0.1,0,0.1,0,0.2,0
			c0.1,0,0.2,0,0.4,0c-0.2,0.2-0.3,0.4-0.4,0.5c-0.1,0.1-0.3,0.2-0.4,0.3c-0.3,0.2-0.4,0.3-0.4,0.4c0,0.1,0.2,0,0.6-0.1
			c0.1,0,0.3-0.1,0.4-0.2c0.1-0.1,0.2-0.2,0.3-0.2c0,0.2-0.1,0.4,0,0.5c0,0.1,0,0.2,0.1,0.3c-0.3-0.1-0.5-0.1-0.6,0
			c-0.1,0.1,0,0.3,0.1,0.6c0,0.1,0,0.2,0,0.4c-0.6,0.1-1.2,0.1-1.6,0.2c-0.4,0-0.7,0.1-0.9,0c-0.4,0-0.6,0-0.6,0.1
			c0,0.1,0.1,0.2,0.4,0.4c0.1,0.1,0.2,0.1,0.3,0.2c0.1,0,0.2,0.1,0.2,0.1c0.1,0,0.2,0,0.3,0c0.1,0,0.2,0,0.3-0.1
			c0.2,0,0.3-0.1,0.5-0.1c0.2,0,0.4-0.1,0.7-0.1c-0.2,0.5-0.5,1-1,1.3c-0.4,0.3-0.9,0.6-1.5,0.9c-0.5,0.2-0.7,0.4-0.7,0.4
			c0,0.1,0.3,0.1,0.9,0c0.5-0.1,0.9-0.2,1.3-0.3c0.4-0.1,0.7-0.3,1-0.5c0.3-0.2,0.5-0.5,0.7-0.8c0.1-0.1,0.2-0.3,0.2-0.4
			c0.4,0.4,2.1,2.3,2.8,2.3c0.3,0,1.4-0.1,2.1-0.2C44.3,42.5,44.3,42.3,44.2,42.3z"/>
		<path class="st3" d="M40.6,37.7c-0.2-0.1-0.4-0.3-0.6-0.5c-0.1-0.1-0.2-0.2-0.1-0.2c0,0,0.1,0,0.3-0.1c0.3,0,0.5,0,0.7,0.1
			c0.1,0.1,0.2,0.2,0.2,0.3c0,0.2,0,0.3-0.1,0.4C40.8,37.7,40.7,37.7,40.6,37.7z"/>
		<path class="st3" d="M40.9,35.8c-0.1,0-0.2,0.1-0.3,0.1c-0.1,0-0.2,0.1-0.4,0.2c-0.2,0.1-0.3,0.1-0.3,0.1c0-0.1,0-0.2,0.2-0.3
			c0.1-0.1,0.2-0.2,0.2-0.3c0-0.1,0.1-0.1,0.1-0.2c0-0.1,0-0.2,0.1-0.3c0.1,0,0.2,0,0.4,0.1c0.2,0.1,0.4,0.3,0.4,0.3
			C41.2,35.6,41.1,35.7,40.9,35.8z"/>
	</g>
</g>
</svg>
