<?xml version="1.0" encoding="utf-8"?>
<!-- Generator: Adobe Illustrator 22.0.1, SVG Export Plug-In . SVG Version: 6.00 Build 0)  -->
<svg version="1.1" id="图层_1" xmlns="http://www.w3.org/2000/svg" xmlns:xlink="http://www.w3.org/1999/xlink" x="0px" y="0px"
	 viewBox="0 0 200 70" style="enable-background:new 0 0 200 70;" xml:space="preserve">
<style type="text/css">
	.st0{fill:#A62825;}
	.st1{fill-rule:evenodd;clip-rule:evenodd;fill:#A62825;}
	.st2{opacity:0.3;}
	.st3{fill:#E8CBA0;}
	.st4{fill:#B70000;}
	.st5{opacity:0.3;fill:#E8CBA0;}
</style>
<g>
	<g>
		<path class="st0" d="M133.8,45.1c0.2-0.2,0.3-0.4,0.5-0.5c0.3-0.2,0.5-0.5,0.8-0.7c0.6-0.4,1.2-0.9,1.8-1.2c0.7-0.4,1.1,0,1.8,0.3
			c0.7,0.3,1.4,0.6,2.1,0.8c1.4,0.4,2.9,0.6,4.4,0.5c0.5,0,0.9-0.1,1.3-0.3c0.4-0.2,0.7-0.7,0.6-1.1c-0.3-1.2-2.2-1.2-3.1-1.4
			c-0.9,0-1.8-0.2-2.6-0.4c-0.8-0.1-1.7-0.2-2.5-0.4c-1.3-0.2-3.8-0.8-2.5-2.7c0.3-0.4,0.7-0.7,1.1-1c1.4-0.8,3-1.2,4.5-1.4
			c1.4-0.2,2.9-0.2,4.4-0.1c1.1,0.1,3.2,0.3,3.7,1.5c0,0.1,0,0.1-0.1,0.1c-0.8,0.4-1.6,0.7-2.5,1c-0.3,0.1-0.7,0.2-1,0.1
			c0.3-0.2,0.5-0.3,0.4-0.7c-0.1-0.2-0.4-0.5-0.6-0.6c-0.5-0.3-1-0.5-1.6-0.6c-1.7-0.3-3.4-0.3-5,0.2c-0.4,0.1-0.8,0.2-1,0.5
			c-1,1.1,1.1,1.9,1.9,2.2c0.8,0.3,1.8,0.2,2.7,0.3c1.5,0,3-0.1,4.4,0.4c1,0.4,1.9,1.2,1.5,2.3c-0.2,0.5-0.5,0.9-0.9,1.2
			c-2.3,1.8-5.9,2-8.6,1.6c-1.2-0.2-2.4-0.5-3.6-0.7c-0.3-0.1-0.6-0.1-0.9,0C134.6,44.7,134.2,45,133.8,45.1z"/>
		<path class="st0" d="M162.8,36.4c-3.3-0.1-6.7,0.1-10,0.7c-0.1,0-0.4,0.1-0.5,0c-0.2-0.2,0.4-0.3,0.5-0.3c0.8-0.2,1.6-0.3,2.3-0.4
			c3.8-0.7,7.6-1,11.4-0.8c1.8,0.1,3.6,0.3,5.2,1c0.7,0.3,1.3,0.7,1.7,1.3c0.4,0.6,0.5,1.4,0.5,2.1c0,1.3-0.4,2.5-1.2,3.6
			c-0.4,0.6-0.9,1.2-1.6,1.5s-1.4,0.5-2.2,0.3c-1.1-0.3-1.9-1.5-1.9-2.7c0-0.4,0.1-0.7,0.2-1c0.3-0.8,1.1-1.3,1.9-1.5
			c0.5-0.2,1-0.2,1.4-0.3c0.4,0,1.2,0.2,1.1-0.4c0-0.7-0.7-1.4-1.3-1.7c-0.7-0.4-1.5-0.6-2.3-0.8C166.5,36.6,164.7,36.4,162.8,36.4z
			 M168.9,42.1c0,0.3,0.1,0.6,0.1,0.8c0,0.1,0.1,0.3,0.2,0.4c0.1,0.2,0.3,0.3,0.5,0.4c0.4,0.2,0.8,0.3,1.3,0.4c0.2,0,0.5,0,0.7-0.1
			c0.1-0.1,0.2-0.4,0.2-0.6c0-0.5,0-0.9,0-1.4c0-0.2,0-0.4-0.2-0.6c-0.1-0.2-0.3-0.3-0.5-0.4c-0.6-0.3-1.7-0.6-2.1,0.1
			C169,41.4,168.9,41.8,168.9,42.1z"/>
		<path class="st0" d="M158.2,40.9c-0.1-0.1,0-0.3,0.2-0.4c0.5-0.3,1.1-0.7,1.7-0.8c0.2,0,0.3,0,0.4,0.1c0.1,0.1,0.1,0.2,0.2,0.3
			c0.1,0.4,0.2,0.7,0.2,1.1c0,0.2-0.1,0.8,0.1,0.9c0.1,0.1,0.2,0,0.3-0.1c1-0.8,1.8-1.6,3.1-2.1c0.2-0.1,0.4-0.1,0.6-0.1
			c0.5,0.1,0.5,0.9,0.5,1.3c0,0.5,0,1,0,1.4c0,0.3-0.1,1,0.1,1.2c0.2,0.3,0.6-0.1,0.9-0.2c0.1,0.2-0.1,0.3-0.2,0.5
			c-0.4,0.4-0.7,0.8-1.2,1c-0.3,0.2-0.8,0.3-1.1,0.1c-0.3-0.2-0.4-0.7-0.4-1c0-0.7,0-1.4,0-2.2c0-0.3,0-0.6-0.3-0.7
			c-0.3-0.1-0.6,0.1-0.8,0.3c-0.9,0.9-1.7,1.8-2.4,2.9c-0.1,0.2-0.8,1.2-1.1,0.7c-0.1-0.2,0-1,0-1.2c0-0.6,0-1.2,0-1.7
			c0-0.4,0.1-1.4-0.5-1.3C158.3,40.9,158.2,40.9,158.2,40.9z"/>
		<path class="st0" d="M158.1,43.5C158.1,43.5,158.1,43.5,158.1,43.5c0,0.3-0.4,0.8-0.7,1c-0.4,0.3-0.8,0.6-1.3,0.7
			c-0.3,0.1-0.8,0.1-1-0.2c-0.1-0.1-0.2-0.3-0.2-0.5c-0.1-0.4-0.1-0.7-0.1-1.1c0-0.3,0.2-1.3-0.4-0.7c-0.9,0.9-1.7,1.9-2.9,2.4
			c-0.3,0.1-0.7,0.2-1,0.1c-0.2-0.1-0.3-0.3-0.4-0.5c-0.3-0.5-0.2-1.2-0.1-1.7c0.5-1.8,2.2-3.5,4.2-3.3c0.5,0.1,0.9,0.2,1.4,0.1
			c0.2,0,0.7-0.1,0.9,0c0.2,0.2,0.1,0.6,0.1,0.9c0,0.8-0.1,1.5,0,2.3c0,0.3,0.1,0.6,0.4,0.7c0.1,0,0.3,0,0.4,0
			C157.7,43.6,157.9,43.4,158.1,43.5z M153.3,40.3c-0.4,0-0.7,0.1-0.9,0.2c-0.3,0.2-0.6,0.6-0.7,1c-0.2,0.5-0.2,1.1,0,1.6
			c0,0.1,0.1,0.2,0.1,0.3c0.1,0.2,0.4,0.2,0.7,0.2c0.5-0.1,0.9-0.4,1.3-0.8c0.3-0.3,0.7-0.7,0.9-1.1c0.1-0.2,0.2-0.3,0.2-0.5
			C154.9,40.6,154,40.3,153.3,40.3z"/>
		<path class="st0" d="M173.2,45.2c0.1-0.4,0.8-0.8,1.1-1c0.1-0.1,0.3-0.2,0.5-0.3c0.2,0,0.4,0,0.5,0.1c1.1,0.4,2.1,1,3.2,0.8
			c0.2,0,0.4-0.1,0.6-0.3c1-1.1-3.1-1.8-3.7-1.9c-0.3-0.1-0.6-0.2-0.8-0.4c-0.2-0.3-0.1-0.7,0.2-1c0.4-0.5,0.9-0.9,1.5-1.1
			c0.8-0.3,1.6-0.4,2.4-0.4c0.4,0,0.8,0.1,1.2,0.2c0.2,0,1,0.2,0.9,0.6c0,0-0.1,0.1-0.1,0.1c-0.2,0.2-0.5,0.2-0.7,0.3
			c-0.5,0.2-0.5-0.1-0.9-0.4c-0.3-0.3-0.7-0.4-1.1-0.4c-0.4,0-2.1,0.1-1.7,0.9c0.1,0.2,0.3,0.3,0.5,0.4c0.3,0.1,0.6,0.2,0.8,0.3
			c0.8,0.2,1.6,0.3,2.3,0.6c0.3,0.1,0.7,0.3,0.8,0.7c0.2,0.5-0.1,1.1-0.6,1.5c-1.3,1.1-3.1,1.3-4.7,0.9c-0.4-0.1-0.8-0.2-1.3-0.2
			C173.8,45.1,173.5,45.3,173.2,45.2z"/>
		<path class="st1" d="M181.3,45.3c0,0.1-0.1,0.1-0.2,0.2c-0.1,0-0.2,0.1-0.2,0.1s-0.2,0-0.2-0.1c-0.1,0-0.1-0.1-0.2-0.2
			c0-0.1-0.1-0.2-0.1-0.2c0-0.1,0-0.2,0.1-0.2c0-0.1,0.1-0.1,0.2-0.2c0.1,0,0.2-0.1,0.2-0.1c0.1,0,0.2,0,0.2,0.1
			c0.1,0,0.1,0.1,0.2,0.2c0,0.1,0.1,0.2,0.1,0.2C181.3,45.1,181.3,45.2,181.3,45.3z M181.2,44.8c0-0.1-0.1-0.1-0.1-0.1
			c-0.1,0-0.1-0.1-0.2-0.1c-0.1,0-0.1,0-0.2,0c-0.1,0-0.1,0.1-0.1,0.1c0,0.1-0.1,0.1-0.1,0.2c0,0.1,0,0.1,0.1,0.2
			c0,0.1,0.1,0.1,0.1,0.1c0.1,0,0.1,0.1,0.2,0.1c0.1,0,0.1,0,0.2-0.1c0.1,0,0.1-0.1,0.1-0.1s0.1-0.1,0.1-0.2
			C181.3,45,181.2,44.9,181.2,44.8z M181,45.2c0,0.1,0,0.1,0,0.1l-0.1,0C181,45.3,181,45.2,181,45.2c-0.1-0.1-0.1-0.1-0.2-0.1
			l-0.1,0l0,0.2l-0.1,0l0-0.5c0,0,0.1,0,0.1,0c0.1,0,0.1,0,0.2,0c0,0,0,0.1,0,0.1c0,0.1,0,0.1-0.1,0.1l0,0
			C181,45.1,181,45.1,181,45.2z M181,44.9c0-0.1,0-0.1-0.1-0.1c0,0-0.1,0-0.1,0l0,0.2l0.1,0C180.9,45,181,45,181,44.9z"/>
	</g>
	<g class="st2">
		<path class="st3" d="M57.8,38.3c1.1,0.2,2.2,0.5,3.2,0.6c3.5,0.5,6.8-0.1,9.9-1.7c1.7-0.8,3.5-1.5,5.4-1.7
			c2.6-0.2,4.9,0.7,6.9,2.3c0.5,0.4,0.9,0.8,1.4,1.2c-1.6-0.1-3.2-0.3-4.8-0.3c-2.1,0-4,0.6-5.8,1.5c-2.6,1.3-5.4,2.1-8.4,2
			C62.5,42.1,59.9,40.8,57.8,38.3z"/>
		<path class="st3" d="M18,30.7c1.5,0.2,2.9,0.4,4.3,0.5c2.7,0.2,5.1-0.7,7.6-1.7c2.8-1.1,5.8-1.7,8.9-1c2.5,0.6,4.4,1.9,6,4
			c-1.1-0.3-2-0.5-2.9-0.7c-3.5-0.7-6.8-0.2-10,1.2c-2,0.9-4,1.6-6.3,1.5C22.4,34.4,20.1,32.8,18,30.7z"/>
		<path class="st3" d="M46.5,29.5c-1.2-0.6-2.2-1.1-3.2-1.6c-2.7-1.2-5.6-1.2-8.5-1c-4,0.3-7.7-0.3-10.8-3.2
			c-1.1-1.1-1.9-2.4-2.4-3.8c1.3,0.7,2.6,1.4,3.9,2c2.8,1.2,5.8,1.5,8.8,1.1c2.8-0.3,5.4-0.2,7.9,1.3C44.1,25.5,45.4,27.3,46.5,29.5
			z"/>
		<path class="st3" d="M79.2,17.6c-0.4,0.2-0.8,0.5-1.2,0.7c-2.9,1.6-5.1,3.9-6.5,6.9C70,28.3,68,31,64.9,32.6
			c-2.2,1.2-4.6,1.4-7.2,0.9c0.5-0.2,0.7-0.4,1-0.5c4-1.8,6.8-4.6,8.7-8.5c0.7-1.3,1.5-2.7,2.4-3.8c1.7-2,3.9-3,6.5-3.2
			c0.9-0.1,1.8,0,2.7,0C79.1,17.5,79.1,17.6,79.2,17.6z"/>
		<path class="st3" d="M58,35.8c1.4-0.2,2.6-0.4,3.9-0.7c3.1-0.7,5.7-2.3,7.9-4.6c1.7-1.7,3.5-3.3,5.9-3.9c2.7-0.8,5.2-0.1,7.7,1
			c-1.5,0.4-3,0.8-4.5,1.3c-2,0.7-3.6,1.8-5.1,3.3c-2,2-4.2,3.7-6.9,4.6C63.9,37.8,61,37.5,58,35.8z"/>
		<path class="st3" d="M44.6,36.7c-1,0.5-1.8,0.9-2.6,1.4c-3.1,1.9-5.3,4.5-6.7,7.8c-0.4,0.9-0.8,1.8-1.3,2.6
			c-1.8,3.1-4.6,4.7-8.2,4.9c-0.7,0-1.3,0-2.3,0c0.5-0.3,0.8-0.5,1.1-0.7c2.9-1.7,5.1-4.1,6.5-7.2c1.2-2.8,2.9-5.4,5.6-7.1
			C39,36.7,41.6,36.3,44.6,36.7z"/>
		<path class="st3" d="M44.1,34.4c-1.7,0.4-3.3,0.7-4.9,1.2c-2.6,0.8-4.8,2.3-6.7,4.3c-1.6,1.7-3.3,3.2-5.6,3.9
			c-2.8,0.9-5.4,0.4-8.2-0.8c0.7-0.2,1.1-0.3,1.6-0.4c3.2-0.6,6-2.1,8.2-4.5c1.8-1.9,3.9-3.5,6.5-4.5C38.2,32.5,41.2,32.7,44.1,34.4
			z"/>
		<path class="st3" d="M80.9,49.7c-1.6-0.6-3-1.3-4.6-1.9c-1.9-0.7-3.9-0.7-6-0.5c-3.7,0.4-7.4,0.1-10.6-2.1c-1.8-1.2-3-2.9-3.8-5.1
			c0.3,0.2,0.5,0.3,0.7,0.4c3.1,2.1,6.5,3.2,10.3,3.1c1.4,0,2.9-0.2,4.3-0.3c4.2-0.1,7.1,1.8,9.2,5.4C80.6,49.1,80.7,49.4,80.9,49.7
			z"/>
		<path class="st3" d="M48.6,27.9c-0.2-0.2-0.4-0.4-0.6-0.6c-2.3-2.8-5.2-4.6-8.8-5.4c-2.9-0.7-5.6-2-7.7-4.2
			c-1.9-2-2.8-4.3-2.8-7.2c1.5,2,3.1,3.7,5.1,5c1.7,1.1,3.6,1.9,5.6,2.3c2,0.5,3.9,1.1,5.6,2.4c2.2,1.7,3.2,4.1,3.7,6.8
			c0,0.3,0.1,0.6,0.1,0.9C48.7,27.8,48.6,27.8,48.6,27.9z"/>
		<path class="st3" d="M71,8.9c-0.7,1-1.5,2.1-2.1,3.1c-1.4,2.2-1.8,4.7-2,7.3c-0.3,3.3-1.2,6.4-3.5,8.9c-1.6,1.8-3.6,2.8-6,3.2
			c0.7-0.9,1.4-1.6,2.1-2.4c2.1-2.7,3.2-5.7,3.4-9.1c0.1-1.5,0.3-3,0.7-4.4c0.8-2.9,2.7-4.9,5.5-6.1C69.7,9.3,70.3,9,71,8.8
			C71,8.8,71,8.9,71,8.9z"/>
		<path class="st3" d="M53.9,41.3c0.8,0.9,1.4,1.7,2.1,2.5c2.5,2.7,5.7,4.3,9.4,5.1c2.4,0.5,4.5,1.5,6.2,3.4
			c1.5,1.8,2.2,3.9,2.3,6.2c-0.2-0.2-0.4-0.3-0.5-0.5c-2.3-2.7-5.2-4.5-8.7-5.3c-2.6-0.6-5-1.7-7-3.4c-2.2-1.9-3.3-4.2-3.6-7
			C53.9,42.1,53.9,41.8,53.9,41.3z"/>
		<path class="st3" d="M45.6,38.5c-0.7,0.8-1.3,1.5-1.9,2.2c-2.4,3-3.4,6.4-3.6,10.2c-0.1,3.1-1,5.9-3.4,8.1
			c-1.3,1.2-2.9,1.9-4.7,2.4c0.6-0.9,1.2-1.7,1.8-2.5c1.5-2.2,2.2-4.7,2.3-7.4c0.2-3.5,1-6.7,3.3-9.5C41.1,40.1,43.1,39,45.6,38.5z"
			/>
		<path class="st3" d="M47.1,40.6c-1.4,3-2.2,6.2-1.8,9.5c0.2,1.6,0.7,3.3,1,4.9c0.6,2.7,0.6,5.3-0.9,7.8c-0.9,1.5-2.1,2.6-3.5,3.7
			c0-0.3,0-0.4,0.1-0.6c1.4-3.7,1.3-7.4,0.2-11.2c-0.9-3.2-1-6.5,0.5-9.6C43.7,43.1,45.2,41.6,47.1,40.6z"/>
		<path class="st3" d="M51.5,42.3c0.2,0.7,0.4,1.3,0.6,2c1.3,3.6,3.6,6.4,6.8,8.6c1.1,0.8,2.2,1.6,3.1,2.5c2.3,2.3,3,5.2,2.5,8.4
			c-0.1,0.4-0.1,0.9-0.2,1.3c0,0.1-0.1,0.1-0.1,0.2c-0.6-1.2-1.2-2.5-1.9-3.7c-1-1.8-2.5-3.3-4.3-4.5c-2.4-1.6-4.5-3.4-6-6
			C50.5,48.2,50.3,45.3,51.5,42.3z"/>
		<path class="st3" d="M51.1,28.2c-0.3-1-0.6-1.9-1-2.8c-1.4-3.4-3.7-6-6.8-8C41.6,16.2,40,14.9,39,13c-1.4-2.5-1.3-5.2-0.7-8.1
			c0.3,0.7,0.6,1.3,0.8,1.9c1.2,2.7,3,4.9,5.4,6.6c2.4,1.6,4.5,3.5,5.9,6C52,22.1,52.3,25.5,51.1,28.2z"/>
		<path class="st3" d="M49.3,41.8c-0.2,2.6-0.1,5.2,0.8,7.7c0.7,2,1.7,3.7,3,5.4c1.2,1.6,2.1,3.3,2.4,5.2c0.4,2.3-0.2,4.3-1.2,6.3
			c-0.3,0.5-0.5,0.9-0.9,1.6c-0.1-1.1-0.1-1.9-0.2-2.8c-0.2-2.7-1.1-5.1-2.7-7.2c-1.6-2.2-3-4.6-3.5-7.3c-0.6-3.2,0.1-6.1,2.1-8.6
			c0.1-0.1,0.1-0.2,0.1-0.4C49.2,41.7,49.2,41.7,49.3,41.8z"/>
		<path class="st3" d="M53.4,28.2c0.4-4-0.2-7.7-2.3-11c-0.9-1.4-1.9-2.7-2.7-4.2c-1.7-3.1-1.6-6.2,0-9.2c0.3-0.5,0.6-1.1,1-1.8
			c0.1,1,0.2,1.8,0.2,2.6c0.2,2.8,1.1,5.3,2.8,7.5c1.7,2.4,3.1,4.9,3.6,7.9c0.4,3-0.4,5.7-2.3,8.1C53.6,28.1,53.5,28.2,53.4,28.2z"
			/>
		<path class="st3" d="M55.8,29.5c0.9-2.1,1.5-4.2,1.7-6.4c0.2-2.3-0.2-4.4-0.7-6.6c-0.3-1.3-0.6-2.7-0.7-4.1
			c-0.2-2.9,0.8-5.3,2.9-7.2c0.6-0.5,1.2-1.1,1.8-1.6c-0.4,1.5-0.7,2.9-1,4.3c-0.4,2-0.2,3.9,0.4,5.8c0.6,2.1,1.1,4.3,1,6.5
			c-0.1,3.7-1.5,6.8-4.7,9C56.2,29.2,56,29.4,55.8,29.5z"/>
	</g>
	<path class="st4" d="M149.8,42.5"/>
	<path class="st5" d="M88,43.9h-0.6c-0.1-0.4-0.1-0.9-0.2-1.4c-0.1-0.5-0.1-1-0.2-1.5c0-0.5-0.1-1-0.1-1.4c0-0.5,0-0.9,0-1.2H97v0.9
		c-0.8,1.8-1.5,3.5-2,5c-0.5,1.5-1,3.1-1.4,4.7c-0.4,1.6-0.7,3.2-1,5c-0.3,1.7-0.6,3.7-0.8,5.9h-2.4c0.6-3,1.3-6,2.2-8.9
		c0.9-2.9,1.9-5.9,3.1-8.9l0.7-1.5l-1.3,0.2H89L88,43.9z"/>
	<path class="st5" d="M101,43.9h-0.6c-0.1-0.4-0.1-0.9-0.2-1.4c-0.1-0.5-0.1-1-0.2-1.5c0-0.5-0.1-1-0.1-1.4c0-0.5,0-0.9,0-1.2H110
		v0.9c-0.8,1.8-1.5,3.5-2,5c-0.5,1.5-1,3.1-1.4,4.7c-0.4,1.6-0.7,3.2-1,5c-0.3,1.7-0.6,3.7-0.8,5.9h-2.4c0.6-3,1.3-6,2.2-8.9
		c0.9-2.9,1.9-5.9,3.1-8.9l0.7-1.5l-1.3,0.2H102L101,43.9z"/>
	<path class="st5" d="M125,57.8c0.2,0.2,0.4,0.5,0.8,0.6c0.3,0.2,0.8,0.3,1.4,0.3c0.5,0,1-0.1,1.5-0.3c0.5-0.2,0.9-0.4,1.2-0.8
		c0.3-0.3,0.6-0.7,0.8-1.2c0.2-0.5,0.3-1,0.3-1.6c0-0.8-0.2-1.5-0.6-2.1c-0.4-0.6-0.9-1-1.5-1.5c-0.6-0.4-1.2-0.8-1.9-1.3
		c-0.7-0.4-1.3-0.9-1.9-1.5c-0.6-0.6-1.1-1.2-1.5-2c-0.4-0.8-0.6-1.8-0.6-3c0-0.9,0.1-1.6,0.4-2.3c0.2-0.7,0.6-1.3,1-1.7
		c0.4-0.5,1-0.8,1.6-1.1c0.6-0.3,1.3-0.4,2.1-0.4c1,0,1.9,0.1,2.7,0.3c0.8,0.2,1.5,0.4,1.9,0.7c0,0.3,0,0.8-0.1,1.2
		c0,0.5-0.1,0.9-0.1,1.4c-0.1,0.5-0.1,1-0.2,1.4c-0.1,0.5-0.1,0.9-0.2,1.2h-0.6l-1-4.2c-0.3-0.2-0.7-0.3-1.1-0.4
		c-0.5-0.1-0.9-0.1-1.4-0.1c-0.8,0-1.5,0.3-2,0.9c-0.5,0.6-0.8,1.4-0.8,2.4c0,0.8,0.2,1.5,0.6,2.1c0.4,0.6,0.9,1.1,1.5,1.5
		c0.6,0.4,1.3,0.9,2,1.3c0.7,0.4,1.3,0.9,2,1.5c0.6,0.6,1.1,1.2,1.5,2c0.4,0.8,0.6,1.7,0.6,2.8c0,0.9-0.1,1.8-0.4,2.5
		c-0.3,0.8-0.7,1.4-1.2,1.9c-0.5,0.5-1.1,0.9-1.9,1.2c-0.7,0.3-1.6,0.4-2.5,0.4c-1,0-1.9-0.2-2.8-0.5c-0.8-0.3-1.4-0.6-1.7-1
		c0-0.3,0-0.8,0.1-1.3c0-0.5,0.1-1,0.1-1.5c0.1-0.5,0.1-1,0.2-1.5c0.1-0.5,0.1-0.9,0.2-1.3h0.6L125,57.8z"/>
	<path class="st5" d="M135.5,57.8c0-0.3,0.1-0.5,0.3-0.7c0.2-0.2,0.4-0.3,0.7-0.3c0.3,0,0.6,0.1,0.8,0.3c0.2,0.2,0.3,0.4,0.3,0.7
		c0,0.3-0.1,0.5-0.3,0.7c-0.2,0.2-0.4,0.3-0.8,0.3c-0.3,0-0.6-0.1-0.7-0.3C135.6,58.4,135.5,58.1,135.5,57.8z"/>
	<path class="st5" d="M147.1,55.9h0.4c0.1,0.3,0.1,0.6,0.1,1.1c0,0.4,0.1,0.8,0,1.3c-0.2,0.1-0.3,0.2-0.5,0.3
		c-0.2,0.1-0.4,0.1-0.7,0.2c-0.2,0.1-0.5,0.1-0.7,0.1c-0.2,0-0.5,0-0.7,0c-0.9,0-1.6-0.1-2.3-0.3c-0.7-0.2-1.2-0.5-1.7-1
		c-0.5-0.4-0.8-1-1.1-1.7c-0.2-0.7-0.4-1.5-0.4-2.5c0-1,0.1-1.8,0.4-2.5c0.3-0.7,0.6-1.3,1.1-1.7c0.5-0.4,1-0.8,1.6-1
		c0.6-0.2,1.3-0.3,2-0.3c0.7,0,1.2,0,1.7,0.1c0.5,0.1,0.9,0.2,1.2,0.4c0,0.2,0,0.4,0,0.6c0,0.2,0,0.4,0,0.7c0,0.2,0,0.5-0.1,0.7
		c0,0.2-0.1,0.4-0.1,0.6h-0.4l-0.8-2.2c-0.1-0.1-0.3-0.1-0.6-0.1c-0.3,0-0.5,0-0.8,0c-0.5,0-1,0.1-1.4,0.3s-0.8,0.5-1.2,0.9
		c-0.3,0.4-0.6,0.9-0.8,1.5c-0.2,0.6-0.3,1.3-0.3,2.1c0,0.7,0.1,1.4,0.3,1.9c0.2,0.6,0.4,1.1,0.8,1.5c0.3,0.4,0.8,0.7,1.3,0.9
		c0.5,0.2,1.1,0.3,1.7,0.3c0.3,0,0.6,0,0.8-0.1c0.2,0,0.4-0.1,0.4-0.2L147.1,55.9z"/>
	<path class="st5" d="M149.3,53.4c0-0.8,0.1-1.5,0.3-2.2c0.2-0.7,0.5-1.3,0.9-1.7c0.4-0.5,0.9-0.9,1.5-1.1s1.3-0.4,2-0.4
		c0.8,0,1.4,0.1,2,0.4c0.6,0.3,1.1,0.7,1.5,1.1c0.4,0.5,0.7,1.1,0.9,1.7c0.2,0.7,0.3,1.4,0.3,2.2c0,0.8-0.1,1.5-0.3,2.2
		c-0.2,0.7-0.5,1.3-0.9,1.7c-0.4,0.5-0.9,0.9-1.5,1.1c-0.6,0.3-1.3,0.4-2,0.4c-0.8,0-1.4-0.1-2-0.4s-1.1-0.7-1.5-1.1
		c-0.4-0.5-0.7-1.1-0.9-1.7C149.5,54.9,149.3,54.2,149.3,53.4z M151,53.4c0,0.6,0.1,1.3,0.2,1.8s0.3,1.1,0.6,1.5
		c0.3,0.4,0.6,0.8,1,1c0.4,0.2,0.9,0.4,1.5,0.4c0.5,0,1-0.1,1.4-0.4c0.4-0.2,0.7-0.6,1-1c0.2-0.4,0.4-0.9,0.6-1.5
		c0.1-0.6,0.2-1.2,0.2-1.8c0-0.6-0.1-1.3-0.2-1.8c-0.1-0.6-0.3-1.1-0.6-1.5c-0.3-0.4-0.6-0.8-1-1c-0.4-0.2-0.9-0.4-1.5-0.4
		c-0.6,0-1,0.1-1.4,0.4c-0.4,0.3-0.7,0.6-1,1c-0.2,0.4-0.4,0.9-0.5,1.5C151,52.1,151,52.7,151,53.4z"/>
	<path class="st5" d="M172.6,58.7h-3.8v-0.4c0.2-0.1,0.4-0.1,0.6-0.2c0.2-0.1,0.4-0.1,0.6-0.2v-6.8l0.1-1.8H170l-0.5,1.6l-3.1,7.8
		H166l-3-7.8l-0.5-1.8h-0.1l0,1.9v6.8c0.2,0,0.4,0.1,0.6,0.1c0.2,0.1,0.4,0.1,0.6,0.2v0.4h-3.2v-0.4c0.2-0.1,0.4-0.2,0.6-0.2
		c0.2-0.1,0.4-0.1,0.6-0.2v-9c-0.2,0-0.4-0.1-0.6-0.2c-0.2-0.1-0.4-0.1-0.6-0.2v-0.4h3.1L166,55l0.5,1.6h0l0.5-1.6l2.7-6.9h2.7v0.4
		c-0.2,0.1-0.4,0.2-0.6,0.2c-0.2,0.1-0.4,0.1-0.6,0.2v9c0.2,0,0.4,0.1,0.6,0.1c0.2,0.1,0.4,0.1,0.5,0.2V58.7z"/>
	<path class="st0" d="M127.5,29.6c-0.4-0.1-0.6-0.3-0.7-0.9c-0.2-1-0.3-1.2-0.4-1.4l-0.5-0.5h0c0.3,0,0.5,0,0.6-0.1
		c0.2,0,0.4-0.1,0.5-0.3c0.2-0.2,0.3-0.9,0.3-2l-0.1-5.6c0-1.2-0.1-2.3-0.1-3.1c-0.2-0.1-0.4-0.1-0.6-0.1c-0.3,0-0.5,0.1-0.8,0.1
		c-0.4,0.1-0.9,0.3-1.4,0.5l-0.6,0.3c-0.1,0.1-0.3,0.1-0.4,0.1c-0.3-0.1-0.5-0.2-0.8-0.8c-0.4-0.7-0.3-0.8-0.3-0.9
		c0-0.1,0.5-1.2,0.5-1.2l0.1-3.1l-0.4,0.5c-0.6,0.8-1.1,1.6-1.5,2.2c-0.5,0.7-1.1,1.7-1.8,3c-0.1,0.1-0.2,0.3-0.7,0.8
		c-0.4,0.4-0.7,0.7-0.8,0.7c0,0-0.1,0-0.1,0c-0.5,0-0.7-0.3-0.8-0.5l-0.6-0.2l-0.3,7.5c0,0.5-0.1,1-0.3,1.6c-0.3,0.7-0.6,1-0.9,1
		c-0.2,0-0.5-0.3-0.9-0.9c-0.3-0.6-0.5-1-0.5-1.2l0.4-0.7c0.3-2.1,0.5-4.6,0.6-7.4c0.1-2.8,0.1-5.3,0.1-7.4V8.6
		c0.1,0.2,0.5,0.3,1,0.5c0.4,0.1,0.7,0.2,0.9,0.3c0.3,0.1,0.4,0.4,0.4,0.6c0,0.1,0,0.3-0.1,1l0,0.7c0.4,0.2,0.6,0.3,0.9,0.3
		c0.3,0,0.5,0.1,0.7,0.1l0.3-0.7l0-0.5c-0.3-0.3-0.5-0.3-0.6-0.4c-0.2-0.1-0.4-0.2-0.5-0.3l-0.4-1.1c-0.3-0.9-0.4-1.1-0.4-1.1l0,0
		l0,0c0.3,0.1,0.6,0.1,1,0.1h0.8c0.2,0,0.3,0,0.5,0c0.3,0,0.7,0,1.1,0.1c0.7,0.1,1.1,0.4,1.1,0.7c0,0.1,0,0.3-0.2,0.7l-0.5,0.7
		c-0.1,0.3-0.2,0.8-0.3,1.4c-0.1,0.3-0.2,1.5-0.2,1.5s1.3-1.3,1.8-1.9l1.7-1.9l0.1-1.6l1.2,0.7l0.5-0.3L124.7,8
		c0.1,0,0.2,0.1,0.3,0.1c0.3,0,0.7-0.2,1.3-0.4c1.1-0.5,1.2-0.5,1.3-0.5c0,0,0,0,0,0c0.4,0,0.8,0.1,1.4,0.4c0.6,0.3,1,0.6,1.1,0.8
		c0.1,0.2,0.1,0.4,0.2,0.7c-0.3,2.3-0.4,5.1-0.2,8.2l0.6,8.3c0,0.6-0.1,1.2-0.3,1.7c-0.2,0.6-0.6,1.2-1,1.5
		c-0.1,0.1-0.4,0.3-0.9,0.5C127.9,29.6,127.7,29.6,127.5,29.6L127.5,29.6z M116.2,13.6l-0.1,2.9l1.1-0.6c0.5-0.3,0.8-0.6,0.9-0.7
		c0.1-0.2,0.1-0.4,0-0.6l0-0.2l-0.3-0.3c-0.1,0-0.2,0-0.2,0c-0.4,0-0.6,0-0.7-0.1c0,0-0.1-0.1-0.2-0.4L116.2,13.6z M126.8,12.4
		c-0.2,0.1-0.4,0.2-0.6,0.3l-1.1,0.7l0,0.3l0.2,0.6l1.8-0.7l0.1-0.7l0-0.3L126.8,12.4z M125.2,9.2l0.1,0.1c0.1,0.2,0.1,0.4,0,0.8
		c0,0.1,0,0.3-0.1,0.4l-0.1,0.3c0,0,0.9-0.1,1-0.1c0.2,0,0.3,0,0.4,0c0.2,0,0.3,0,0.4,0l0.3-0.8c0-0.3,0-0.5,0-0.7
		C126.8,9,126.6,9,126.5,9c-0.5,0-0.6,0-0.7,0L125.2,9.2z"/>
	<path class="st0" d="M141.9,28.6c-0.5,0-0.9-0.2-1.2-0.7c-0.3-0.4-0.5-0.9-0.7-1.6l1.8,0c1.4-0.2,1.8-0.4,1.9-0.5l0.1-0.1l0.2-0.3
		c-0.1-0.5-0.1-1.1-0.1-1.7V23l-0.2,0c0,0,0.1,0,0.1-0.1l0.1-1c-0.9-0.3-1.3-0.6-1.6-0.8c-0.1-0.1-0.4-0.4-0.7-1.2c0,0,0,0,0,0
		c0.1,0,0.4-0.1,1-0.4c1.2-0.5,1.3-0.5,1.3-0.6c0.2-0.2,0.2-0.5,0.1-0.7l-0.1-0.6c-0.5-0.3-0.8-0.4-1.1-0.6
		c-0.2-0.2-0.5-0.4-0.8-0.7c-1,0.5-1.8,1.1-2.6,1.7c-1.1,0.8-1.9,1.2-2.4,1.4c-0.2,0.1-0.5,0.2-0.9,0.3c0,0-0.1,0-0.2,0.1
		c1.1-1.1,2-2.2,2.7-3.2c0.7-1,1.6-2.4,2.6-4.2l1.3-2.5c0.7-1.2,1.3-1.5,1.6-1.6c0.1,0,0.2,0,0.3,0c0.3,0,0.5,0,0.7,0.1
		c0.6,0.1,0.8,0.2,0.8,0.3c0.1,0.2,0.3,0.3,0.5,0.5l0.8,0.3c0.2,0.1,1.3,1.2,3.5,3.3c1.7,1.6,2.9,2.7,3.5,3.2l2.5,1.5
		c1.7,1,1.7,1.4,1.7,1.4c0,0-0.3,0.3-2.2,0.8c-1.1,0.3-1.9,0.4-2.3,0.4c-0.4-0.1-0.8-0.3-2.5-2.1c-1.5-1.6-2.2-2.4-2.2-2.4l-0.1-0.6
		c0,0-0.4,0.7-0.6,0.9c-0.1,0.2-0.3,0.4-0.3,0.5c0,0-0.1,0.1-0.4,0.4l-0.4,0.3c-0.1,0.3-0.1,0.5-0.1,0.7c0.4,0.1,0.5,0.1,0.7,0.1
		c0,0,0.1,0,0.1,0c0.3,0,0.5,0.1,0.7,0.2c0.2,0.1,0.4,0.4,0.1,1c-0.1,0.2-0.2,0.5-0.3,0.7c-0.1,0.2-0.3,0.4-0.5,0.6
		c-0.2,0.1-0.5,0.2-0.6,0.3c-0.1,0.3-0.2,0.6-0.2,0.9c-0.1,0.4-0.1,0.6-0.1,0.8l-0.1,0.6l0.5-0.3c0.3-0.2,0.6-0.5,0.9-0.8
		c0.2-0.2,0.4-0.4,0.8-0.8L150,21c0.6,0.2,0.6,0.3,0.6,0.4c0,0,0.1,0.3-1,1.1c-0.6,0.4-1.1,0.8-1.8,1.2c-0.2,0.1-0.4,0.2-0.6,0.4
		c-0.1,0.3-0.1,0.5-0.1,0.8l0.1,0.5c2.1,0.3,3.2,0.4,3.6,0.5c1.8,0.4,1.8,1.1,1.8,1.3c0,0.4-0.1,0.6-0.4,0.9
		c-0.3,0.3-0.5,0.4-0.9,0.4c-1.8-0.1-3-0.2-3.4-0.2c-0.5,0-1,0-1.5,0c-0.7,0-1.3,0-1.9,0.1C144.5,28.4,142.1,28.6,141.9,28.6z
		 M144.3,12.6l-1.5,2.3l0.5-0.1c0.6-0.1,1.1-0.3,1.6-0.5c0.4-0.2,0.9-0.4,1.5-0.7c0.1,0,0.3,0,0.6,0.1l1.5,0.7l-1.5-2.1
		c-0.3-0.4-1.3-1.6-1.3-1.6S144.9,11.8,144.3,12.6z M142.2,25.1c-0.5-0.1-0.8-0.5-1-1.2c-0.1-0.5-0.2-1-0.2-1.5
		c0.1,0.1,0.3,0.2,0.5,0.3c0.2,0.1,0.5,0.2,0.8,0.4c0.2,0.1,0.5,0.2,0.7,0.2c0.2,0,0.3,0,0.4-0.1c-0.3,0.7-0.4,1.1-0.5,1.2
		C142.6,24.9,142.3,25.1,142.2,25.1z"/>
	<path class="st0" d="M162.4,15.7c0.5,0,1,0,1.4,0c0.7,0,1.1,0.1,1.4,0.2c0.3,0.2,0.5,0.5,0.4,1.1c-0.1,0.4-0.2,0.9-0.5,1.3
		c-0.2,0.2-0.3,0.5-0.5,0.8c-0.3-0.1-0.6-0.4-1-0.9c-0.3-0.4-0.5-0.7-0.6-1.1c0,0-0.1-0.3-0.3-0.8C162.5,16,162.4,15.8,162.4,15.7z
		 M166.2,19.3c0,0.2,0,0.8-0.1,1.8c0,1.1-0.1,1.7-0.1,1.7l-0.4,1.6c-0.2,0.8-0.5,1.3-0.7,1.4c-0.3,0-0.6,0.1-0.9,0.1
		c-0.1,0-0.4-0.3-0.8-0.8c-0.5-0.6-0.8-1-0.8-1c0.2-0.1,0.6-0.7,1.5-1.7c0.9-1,1.3-1.6,1.4-1.8c0.1-0.1,0.2-0.3,0.4-0.6
		C166,19.6,166.2,19.4,166.2,19.3z M165.1,9.7c0.5,0,1,0.1,1.5,0.6c0.6,0.4,0.8,0.9,0.7,1.2c0,0.1-0.1,0.3-0.3,0.5
		c-0.1,0.2-0.3,0.3-0.4,0.4c-0.3,0.1-0.9,0-1.9-0.3c-0.7-0.3-1.3-0.6-1.7-0.9c0.1-0.1,0.4-0.3,0.9-0.8C164.7,9.9,165,9.7,165.1,9.7z
		 M172.6,7c1.1,0.3,1.7,0.5,2,0.6c0.9,0.3,1.4,0.6,1.7,1c0.2,0.2,0.3,0.6,0.3,1.3c0.1,0.6,0.1,1,0,1.3c0,0.2-0.1,0.9-0.3,2.1
		c-0.2,1.2-0.3,1.9-0.3,2.1c0,0.4-0.1,1.1-0.1,2c0,0.8,0,1.4,0,2l0.6-1.5c0.2-0.6,0.4-1.1,0.6-1.4c0-0.1,0.1-0.3,0.2-0.5
		c0.1-0.2,0.2-0.4,0.2-0.5c0.7,0.3,1.1,0.7,1.3,1.1c0.2,0.4,0.2,0.9,0.1,1.7c0,0.3-0.2,0.8-0.6,1.6c-0.3,0.6-0.5,1.1-0.8,1.5
		c-0.2,0.3-0.5,0.8-1.2,1.5c-0.4,0.4-0.8,0.9-1.2,1.4c-0.5,0.6-1.1,1.3-1.8,1.9c-0.8,0.7-1.5,1.3-2.1,1.7c-0.4,0.2-1,0.6-2,1.1
		c-1,0.5-1.7,0.8-2,0.9c0.1-0.1,0.4-0.5,0.9-1c0.5-0.5,0.8-0.8,0.9-0.9c0.2-0.1,0.6-0.7,1.5-1.6c0.9-1,1.4-1.5,1.4-1.7
		c0.1-0.1,0.4-0.5,1.2-1.4c0.7-0.9,1.1-1.3,1.1-1.4c0.1-0.2,0.2-0.4,0.3-0.6l-0.6,0.2c-0.2,0.1-0.4,0.1-0.5,0
		c-0.1-0.1-0.4-0.5-0.8-1.3c-0.4-0.8-0.7-1.3-0.8-1.4c0.3-0.1,0.6-0.2,0.8-0.4c0.1-0.1,0.2-0.7,0.2-1.8c0-0.6,0-1.2,0-1.9l0.1-0.2
		c-0.1,0.1-0.2,0.2-0.4,0.5c-0.2,0.3-0.3,0.4-0.3,0.6c-0.4,0.6-0.7,1-0.9,1.2c-0.4,0.5-0.8,0.7-1.2,0.8c-0.5,0-0.8-0.2-1.1-0.6
		c-0.2-0.4-0.3-0.9-0.2-1.3c0.1-0.3,0.1-0.6,0.2-0.9c0.1-0.4,0.2-0.6,0.3-0.9c0.2,0.1,0.5,0.1,0.7,0.2c0.3,0.2,0.5,0.3,0.8,0.5
		c0.2,0,0.5,0,0.9-0.2c0.3-0.1,0.6-0.2,0.9-0.5l0.2-0.1c0-0.3,0-0.8-0.1-1.7c0-1-0.1-1.5-0.1-1.7l-0.2-1.2c-0.1-0.6-0.2-1-0.2-1.2
		c0-0.1,0-0.2,0.1-0.4C172.4,7.4,172.5,7.2,172.6,7z M177.8,11.5c0.1,0,0.4,0.1,1,0.2c0.6,0.1,0.9,0.2,1,0.2c0.1,0,0.4,0,0.8,0.1
		c0.5,0.1,0.7,0.1,0.8,0.1c0.4,0.2,0.5,0.5,0.5,0.8c0,0.4-0.2,0.7-0.6,0.8c-0.2,0-0.8,0.2-1.8,0.5c-1.1,0.3-1.7,0.5-1.8,0.6
		c0.1-0.3,0.2-0.5,0.3-0.8c0.1-0.3,0.1-0.6,0-0.8c-0.1-0.2-0.2-0.5-0.3-0.7V12V11.5z"/>
	<path class="st0" d="M168.2,29c0.5-0.5,0.8-0.8,0.9-0.9c0.2-0.2,0.7-0.7,1.5-1.6c1.2-1.3,1.4-1.6,1.5-1.7l1.1-1.4l1.1-1.4l0.7-1.2
		l-1.2,0.5c-0.3,0-0.5-0.2-1.1-1.2c-0.3-0.6-0.5-0.9-0.6-1.1c0.2-0.1,0.4-0.2,0.6-0.3c0.1-0.1,0.3-0.4,0.3-2c0-0.6,0-1.2,0-1.9
		l-0.3-0.4c-0.1,0.1-0.2,0.2-0.4,0.5c-0.2,0.3-0.3,0.5-0.4,0.6c-0.4,0.6-0.7,0.9-0.9,1.1c-0.4,0.4-0.8,0.7-1.1,0.7c0,0,0,0,0,0
		c-0.4,0-0.6-0.2-0.8-0.5c-0.2-0.4-0.3-0.8-0.2-1.2c0.1-0.3,0.1-0.6,0.2-0.9c0.1-0.3,0.2-0.6,0.2-0.9l0.4,0.3l0.7,0.4
		c0.1,0,0.2,0,0.3,0c0.3,0,0.6-0.1,0.8-0.2c0.3-0.1,0.6-0.3,1-0.5l0.1-0.1l0.2-0.2c0-0.3,0-0.8-0.1-1.7c0-1-0.1-1.6-0.1-1.7
		l-0.2-1.2c-0.1-0.6-0.2-1-0.2-1.2l0.2-0.5c1,0.1,1.6,0.3,1.9,0.4c0.8,0.3,1.3,0.6,1.5,0.9c0.1,0.1,0.2,0.4,0.3,1.2c0,0.5,0,1,0,1.3
		c0,0.2-0.1,0.9-0.3,2.1c-0.2,1.2-0.3,1.9-0.3,2.1c0,0.4-0.1,1.1-0.1,2c0,0.8,0,1.5,0,2l0.4,0.1l0.6-1.5c0.2-0.6,0.7-1.9,0.7-1.9
		c0.2-0.4,0.2-0.5,0.3-0.6c0.3,0.4,0.7,0.7,0.9,1.1c0.1,0.3,0.2,0.9,0.1,1.5c0,0.3-0.2,0.8-0.5,1.5c-0.3,0.6-0.5,1.1-0.8,1.4
		c-0.1,0.3-0.5,0.8-1.1,1.5c-0.4,0.4-0.8,0.9-1.2,1.4c-0.5,0.6-1.1,1.2-1.8,1.9c-0.8,0.7-1.5,1.3-2.1,1.7c-0.4,0.2-1,0.6-2,1.1
		c-0.4,0.2-0.8,0.4-1.1,0.5C168,29.2,168.1,29.1,168.2,29z M164.2,25.8c-0.1-0.1-0.3-0.2-0.7-0.8c-0.6-0.8-0.8-0.9-0.8-1
		c0,0,0,0,0.1,0c0.2,0,0.7-0.6,1.4-1.5c1.2-1.4,1.4-1.7,1.4-1.9c0-0.1,0.2-0.3,0.4-0.6c0,0,0,0,0,0c0,0.3,0,0.7,0,1.1
		c0,1-0.1,1.6-0.1,1.7l-0.4,1.6c-0.3,1.1-0.5,1.2-0.5,1.2C164.7,25.8,164.4,25.8,164.2,25.8z M164.5,19c-0.2-0.1-0.5-0.4-0.7-0.7
		c-0.2-0.3-0.4-0.7-0.6-1.1l-0.3-0.7c-0.2-0.5-0.2-0.7-0.2-0.7c0.3,0.2,0.7,0.3,1.2,0.3c0.8,0.1,1.1,0.1,1.3,0.2
		c0.1,0,0.4,0.2,0.3,0.8c-0.1,0.4-0.2,0.8-0.5,1.2C164.8,18.5,164.6,18.8,164.5,19z M178.3,14.2c0.1-0.4,0.1-0.6,0-0.9
		c-0.1-0.3-0.2-0.5-0.3-0.7l0-0.8c0.1,0.1,0.4,0.2,0.7,0.3c0.8,0.2,1,0.2,1.1,0.2c0.1,0,0.4,0,0.8,0.1c0.6,0.1,0.7,0.1,0.7,0.1
		c0.3,0.1,0.4,0.3,0.4,0.6c0,0.3-0.2,0.5-0.5,0.6l0,0c-0.1,0-0.7,0.2-1.8,0.5c-0.6,0.2-1,0.3-1.3,0.4
		C178.3,14.4,178.3,14.3,178.3,14.2z M166.3,12.3c-0.3,0-0.8-0.1-1.5-0.4c-0.6-0.2-1.1-0.5-1.5-0.7c0.1-0.1,0.4-0.2,0.8-0.5
		c0.8-0.6,0.9-0.6,1-0.6c0,0,0,0,0,0c0.5,0,0.9,0.2,1.3,0.5c0.5,0.4,0.7,0.7,0.6,1c0,0.1,0,0.2-0.2,0.4c-0.2,0.2-0.3,0.3-0.3,0.3
		L166.3,12.3z"/>
	<g>
		<path class="st0" d="M89.1,27.4C89,28.5,88.7,29,88.3,29c-0.4,0-1-0.7-1.8-2c-0.6-1-0.9-1.6-0.8-2c0.1-0.4,0.5-0.6,1.1-0.7
			c0.2,0,0.5-0.2,0.8-0.5c0.3-0.3,0.6-0.7,0.9-1.1c0.4-0.6,0.7-1.1,1-1.6c0.3-0.5,0.5-0.9,0.8-1.3c0.4-0.7,0.7-1.3,1-1.6
			c0.3-0.3,0.4-0.5,0.6-0.4s0.1,0.3,0,0.8c-0.1,0.5-0.3,1.1-0.6,1.9c-0.3,0.7-0.5,1.4-0.7,2.1c-0.2,0.7-0.5,1.4-0.7,2
			c-0.2,0.6-0.4,1.2-0.5,1.7C89.2,26.7,89.1,27.1,89.1,27.4z"/>
		<path class="st0" d="M88.1,18c-0.3-0.3-0.6-0.6-0.8-0.9c-0.2-0.3-0.4-0.7-0.7-1.1c-0.3-0.5-0.5-0.8-0.4-1c0.1-0.2,0.4-0.2,1-0.1
			c1,0.1,1.7,0.4,2.1,0.7c0.4,0.3,0.6,0.8,0.6,1.3c0,0.7-0.2,1.2-0.6,1.4C89.1,18.6,88.6,18.5,88.1,18z"/>
		<path class="st0" d="M90.5,13c-0.3-0.3-0.7-0.6-0.9-0.9s-0.6-0.8-0.9-1.3c-0.2-0.3-0.3-0.5-0.4-0.6c-0.1-0.2-0.1-0.3,0-0.3
			c0.1-0.1,0.2-0.1,0.4-0.1c0.2,0,0.5,0,0.9,0.1c1,0.1,1.6,0.3,2,0.6c0.3,0.3,0.5,0.8,0.5,1.4c0,0.3,0,0.6-0.1,0.8
			c-0.1,0.2-0.2,0.4-0.4,0.5c-0.2,0.1-0.3,0.1-0.5,0.1C90.9,13.2,90.7,13.1,90.5,13z"/>
		<path class="st0" d="M96.8,16.4c-0.2-0.1-0.3-0.3-0.4-0.4c-0.1-0.1-0.2-0.3-0.4-0.4c-0.2-0.3-0.3-0.5-0.2-0.6
			c0.1-0.1,0.4-0.1,0.7-0.1c0.4,0,0.7,0.1,0.9,0.3c0.2,0.1,0.3,0.4,0.3,0.7c0,0.3-0.1,0.6-0.3,0.7C97.4,16.7,97.1,16.7,96.8,16.4z"
			/>
		<path class="st0" d="M108.6,28.4c-1.1-0.1-4.8-2.2-6.4-3.3c-1.3-0.8-1.6-1.1-2.4-1.6c1.6-0.1,2.9-0.2,3.8-0.2c1.1,0,1.9,0,2.4,0.1
			c0.7,0.1,1.2,0.1,1.6,0.1c0.4,0,0.6-0.1,0.7-0.2c0.1-0.1,0.1-0.3,0-0.5s-0.3-0.5-0.7-0.8c-0.2-0.2-0.4-0.3-0.6-0.4
			c-0.2-0.1-0.4-0.2-0.6-0.2c-0.2,0-0.5,0-0.8,0c-0.3,0-0.7,0.1-1.1,0.2c-1,0.2-1.9,0.3-2.7,0.4c-0.8,0.1-1.6,0.2-2.4,0.3
			c0.3-0.4,0.4-0.6,0.4-0.8c0-0.2-0.3-0.3-0.7-0.5c0.1-0.1,0.2-0.1,0.2-0.2c0.1-0.1,0.1-0.2,0.2-0.4c0-0.2,0.1-0.4,0.1-0.6
			c0-0.2,0-0.5,0-0.8c0-0.2,0-0.4,0-0.6c0-0.2,0-0.5,0-0.8c0.3,0,0.5-0.1,0.8-0.1c0.3,0,0.6-0.1,1-0.2c0.4-0.1,0.7-0.1,0.8-0.2
			c0.2-0.1,0.3-0.2,0.3-0.3c0-0.1,0-0.2-0.2-0.3c-0.1-0.1-0.3-0.2-0.5-0.3c-0.1-0.1-0.3-0.1-0.6-0.1c-0.3,0-0.6,0.1-0.9,0.1
			c-0.1,0-0.2,0.1-0.3,0.1c-0.1,0-0.2,0-0.4,0.1c0-0.4,0-0.6,0.1-0.8c0-0.2,0.1-0.3,0.2-0.5c0.2-0.3,0.3-0.5,0.2-0.6
			c0-0.1-0.3-0.3-0.7-0.4c0.1,0,0.2-0.1,0.3-0.1c0.1,0,0.2-0.1,0.4-0.1c0.3-0.1,0.5-0.1,0.6-0.2c0.1,0,0.3-0.1,0.5-0.1
			c0.3-0.1,0.4-0.1,0.4-0.3c0-0.1-0.2-0.3-0.6-0.6c-0.2-0.1-0.4-0.2-0.5-0.3c0.3,0,0.6-0.1,0.9-0.1c0.2,0,0.4,0,0.6-0.1
			c0.3,0,0.5,0,0.6,0.1c0.1,0.1,0.2,0.3,0.2,0.5c0,0.4,0,0.8,0.1,1.2c0,0.4,0,0.8,0,1.2c0,0.4,0,0.9-0.1,1.4s-0.1,1.1-0.1,1.7
			c0,0.2,0,0.4-0.1,0.6c0,0.1-0.1,0.2-0.2,0.3c-0.1,0.1-0.2,0.1-0.3,0.1c-0.1,0-0.3,0-0.6-0.1c-0.5-0.1-0.8-0.1-0.9,0.1
			s0,0.4,0.4,0.6c0.4,0.2,0.6,0.4,0.9,0.6c0.2,0.2,0.4,0.4,0.6,0.6c0.2,0.3,0.4,0.4,0.7,0.4c0.3,0,0.6-0.2,0.9-0.5
			c0.2-0.2,0.3-0.4,0.4-0.6c0.1-0.2,0.2-0.4,0.3-0.6c0.1-0.2,0.1-0.5,0.1-0.9c0-0.3,0-0.8,0.1-1.4c0-1.4,0.1-2.5,0.2-3.2
			c0.1-0.8,0.2-1.3,0.3-1.5c0.2-0.2,0.3-0.4,0.4-0.6c0.1-0.2,0.1-0.3,0-0.5c-0.1-0.2-0.2-0.3-0.5-0.5c-0.2-0.2-0.6-0.4-1.1-0.7
			c-0.3-0.2-0.5-0.3-0.6-0.3c-0.2-0.1-0.3-0.1-0.5-0.1s-0.3,0-0.5,0.1c-0.2,0.1-0.4,0.2-0.6,0.3c-0.2,0.1-0.3,0.2-0.5,0.2
			c-0.2,0.1-0.5,0.1-0.8,0.2c-0.3,0.1-0.7,0.2-1.2,0.2c-0.5,0.1-1.1,0.2-1.8,0.3c0.3-0.3,0.6-0.5,0.8-0.7c0.2-0.2,0.4-0.4,0.6-0.5
			c0.2-0.1,0.3-0.2,0.4-0.3c0.1-0.1,0.2-0.1,0.4-0.2c0.5-0.3,0.7-0.6,0.6-0.9c-0.1-0.3-0.6-0.7-1.6-1.1c-0.8-0.3-1.4-0.4-1.6-0.3
			c-0.2,0.1-0.2,0.6,0,1.3c0.1,0.2,0,0.5-0.1,0.9c-0.1,0.4-0.5,1.1-1.1,2.1c-0.2,0-0.4,0.1-0.5,0.1c-0.2,0-0.3,0-0.5,0.1
			c-0.6-0.2-1.1-0.3-1.5-0.3c-0.4-0.1-0.6,0-0.7,0c-0.1,0.1-0.2,0.2-0.1,0.4c0.1,0.2,0.2,0.5,0.4,0.8c0,0.1,0.1,0.3,0.2,0.5
			c0.1,0.3,0.1,0.5,0.1,0.8c0,0.8,0,1.5,0,2.1c0,0.6,0,1.1,0,1.5c0,0.4-0.1,0.8-0.1,1c-0.1,0.3-0.1,0.6-0.2,0.8
			c-0.1,0.2-0.1,0.4-0.1,0.6c0,0.2,0.1,0.4,0.2,0.8c0.3,0.6,0.7,1,1,1c0.3,0.1,0.7-0.2,0.9-0.8c0.1-0.3,0.2-0.6,0.2-0.9
			c0-0.3,0-0.7,0-1.2c0-0.4,0-0.9,0-1.4c0-0.6,0-1.1,0-1.7c0-0.6,0-1.1,0-1.6c0-0.5,0-1,0-1.4c1.1-0.2,2-0.3,2.8-0.4
			c0.8-0.1,1.4-0.2,2-0.2c0,0,0,0,0,0.1c0,0,0,0,0,0.1c-0.1,0.1-0.2,0.2-0.4,0.3c-0.2,0.1-0.4,0.2-0.7,0.4c-0.3,0.1-0.6,0.3-1,0.4
			c-0.4,0.1-0.7,0.3-1.1,0.4c-0.5,0.2-0.7,0.3-0.7,0.4c0,0.1,0.3,0.2,0.9,0.1c0.1,0,0.3,0,0.5,0c0.2,0,0.3,0,0.5,0
			c0.1,0.1,0.1,0.2,0.1,0.3c0,0.1,0.1,0.2,0.1,0.4c0,0.2,0.1,0.4,0.1,0.6c0,0.2,0,0.6,0.1,0.9c-0.3,0.1-0.6,0.1-1,0.2
			c-0.3,0-0.6,0.1-0.8,0.1c-1.1,0.1-1.1,0.3-0.1,0.7c0.1,0.1,0.3,0.1,0.5,0.1c0.2,0,0.5,0,0.9,0c-0.4,0.4-0.7,0.8-0.9,1
			c-0.3,0.2-0.5,0.5-0.8,0.7c-0.5,0.4-0.8,0.7-0.7,0.8c0.1,0.1,0.5,0.1,1.2-0.2c0.3-0.1,0.6-0.2,0.8-0.4c0.2-0.2,0.5-0.3,0.7-0.5
			C98,19.5,98,19.8,98,20c0,0.2,0.1,0.4,0.2,0.6c-0.7-0.2-1.1-0.2-1.3,0c-0.2,0.2-0.1,0.6,0.2,1.1c0.1,0.1,0.1,0.4,0,0.7
			c-1.3,0.2-2.4,0.3-3.2,0.4c-0.8,0.1-1.4,0.1-1.8,0.1c-0.8-0.1-1.2,0-1.2,0.2c-0.1,0.2,0.2,0.4,0.7,0.8c0.2,0.2,0.4,0.3,0.6,0.4
			c0.2,0.1,0.3,0.1,0.5,0.2c0.2,0,0.3,0,0.5,0c0.2,0,0.4-0.1,0.7-0.2c0.3-0.1,0.7-0.2,1.1-0.3c0.4-0.1,0.9-0.2,1.5-0.3
			c-0.4,1.1-1.1,2-2,2.7c-0.9,0.7-1.9,1.3-3.1,1.9c-1,0.5-1.4,0.8-1.3,0.9c0.1,0.1,0.7,0.1,1.8-0.1c1-0.2,1.9-0.4,2.6-0.7
			c0.8-0.3,1.4-0.7,2-1.1c0.6-0.4,1-1,1.4-1.6c0.2-0.3,0.3-0.6,0.5-0.9c0.8,0.9,4.3,4.6,5.7,4.6c0.7,0,2.9-0.2,4.2-0.4
			C108.8,28.9,108.9,28.5,108.6,28.4z"/>
		<path class="st0" d="M101.3,19c-0.4-0.3-0.9-0.6-1.3-0.9c-0.2-0.2-0.3-0.3-0.3-0.4c0-0.1,0.2-0.1,0.6-0.1c0.6,0,1.1,0,1.3,0.2
			c0.2,0.1,0.4,0.3,0.4,0.6c0.1,0.4,0,0.6-0.2,0.7C101.7,19.1,101.5,19.1,101.3,19z"/>
		<path class="st0" d="M101.9,15.2c-0.2,0.1-0.4,0.1-0.6,0.2c-0.2,0.1-0.5,0.2-0.8,0.4c-0.4,0.2-0.6,0.3-0.7,0.1
			c-0.1-0.1,0-0.3,0.3-0.7c0.2-0.2,0.4-0.4,0.5-0.6c0.1-0.2,0.1-0.3,0.1-0.4c0-0.3,0-0.5,0.2-0.5c0.1-0.1,0.4,0,0.8,0.2
			c0.5,0.3,0.8,0.5,0.8,0.7C102.5,14.8,102.3,15,101.9,15.2z"/>
	</g>
	<path class="st5" d="M121,38.4h-7.4l0,2.1h2.8l0,14l0,0c0,0,0,0.1,0,0.2c0,0.2,0,0.5-0.1,0.9c-0.1,0.6-0.3,1.2-0.7,1.6
		c-0.2,0.2-0.5,0.4-0.8,0.6c-0.3,0.2-0.8,0.3-1.4,0.3c0,0,0,0,0,0c-0.8,0-1.4-0.2-1.8-0.5c-0.3-0.2-0.5-0.5-0.7-0.8
		c-0.3-0.4-0.4-0.9-0.5-1.4c-0.1-0.4-0.1-0.8-0.1-0.9c0,0,0,0,0,0c0,0,0,0,0,0v0l0-2.4l-1.9,0l0,2.4c0,0,0,0.1,0,0.1
		c0,0.4,0,1.7,0.7,3.1c0.3,0.7,0.8,1.3,1.6,1.8c0.7,0.5,1.7,0.8,2.8,0.8h0c0,0,0,0,0,0c0,0,0,0,0,0c1,0,1.9-0.3,2.6-0.7
		c0.5-0.3,0.9-0.8,1.3-1.2c0.5-0.7,0.7-1.4,0.9-2.1c0.1-0.6,0.2-1.2,0.2-1.5c0-0.1,0-0.3,0-0.3l0-13.9h2.7V38.4z"/>
</g>
</svg>
