<?xml version="1.0" encoding="utf-8"?>
<!-- Generator: Adobe Illustrator 22.0.1, SVG Export Plug-In . SVG Version: 6.00 Build 0)  -->
<svg version="1.1" id="图层_1" xmlns="http://www.w3.org/2000/svg" xmlns:xlink="http://www.w3.org/1999/xlink" x="0px" y="0px"
	 viewBox="0 0 100 100" style="enable-background:new 0 0 100 100;" xml:space="preserve">
<style type="text/css">
	.st0{opacity:0.12;}
	.st1{fill:#B5985A;}
	.st2{fill:#AF2727;}
	.st3{fill-rule:evenodd;clip-rule:evenodd;fill:#AF2727;}
	.st4{fill:#B70000;}
</style>
<g>
	<g class="st0">
		<path class="st1" d="M58.4,54.3c1.5,0.3,2.8,0.6,4.1,0.8c4.5,0.6,8.7-0.2,12.8-2.2c2.2-1.1,4.5-2,7-2.2c3.4-0.3,6.3,0.9,8.9,3
			c0.6,0.5,1.2,1,1.8,1.5c-2.1-0.1-4.2-0.3-6.2-0.4c-2.7,0-5.1,0.7-7.5,1.9c-3.4,1.6-6.9,2.8-10.8,2.6
			C64.4,59.3,61.1,57.5,58.4,54.3z"/>
		<path class="st1" d="M7,44.4c1.9,0.2,3.7,0.5,5.5,0.7c3.5,0.3,6.6-0.9,9.8-2.2c3.7-1.5,7.5-2.2,11.4-1.3c3.2,0.7,5.7,2.5,7.8,5.2
			c-1.4-0.3-2.6-0.7-3.8-0.9c-4.5-0.9-8.8-0.3-12.9,1.5c-2.6,1.1-5.2,2.1-8.1,2C12.7,49.3,9.7,47.1,7,44.4z"/>
		<path class="st1" d="M43.8,42.8c-1.6-0.8-2.9-1.4-4.2-2c-3.5-1.6-7.2-1.6-11-1.3c-5.1,0.4-10-0.4-13.9-4.2c-1.5-1.4-2.5-3.1-3.2-5
			c1.7,0.9,3.4,1.9,5.1,2.6c3.6,1.6,7.5,1.9,11.4,1.4c3.6-0.5,7-0.3,10.2,1.7C40.7,37.6,42.3,40,43.8,42.8z"/>
		<path class="st1" d="M85.9,27.4c-0.5,0.3-1,0.6-1.5,0.9c-3.7,2.1-6.5,5.1-8.4,9c-1.9,4-4.4,7.5-8.4,9.6c-2.9,1.5-5.9,1.8-9.3,1.2
			c0.6-0.3,1-0.5,1.3-0.6c5.1-2.3,8.7-6.1,11.2-11.1c0.9-1.8,1.9-3.5,3.1-5c2.1-2.7,5.1-3.9,8.4-4.1c1.2-0.1,2.3,0,3.5,0
			C85.9,27.2,85.9,27.3,85.9,27.4z"/>
		<path class="st1" d="M58.7,51c1.8-0.3,3.4-0.5,5-0.9c4-1,7.4-3,10.2-5.9c2.2-2.2,4.5-4.2,7.6-5.1c3.5-1,6.8-0.2,10,1.3
			c-2,0.6-3.9,1-5.8,1.7c-2.6,0.9-4.7,2.4-6.6,4.3c-2.6,2.6-5.4,4.8-8.9,6C66.2,53.7,62.4,53.3,58.7,51z"/>
		<path class="st1" d="M41.3,52.3C40.1,53,39,53.5,38,54.1c-4,2.4-6.8,5.9-8.7,10.1c-0.5,1.2-1.1,2.3-1.7,3.4
			c-2.4,4-5.9,6.1-10.5,6.3c-0.9,0-1.7,0-2.9,0c0.6-0.4,1.1-0.7,1.5-0.9c3.8-2.3,6.6-5.3,8.3-9.4c1.6-3.7,3.8-7,7.2-9.3
			C34.2,52.3,37.5,51.7,41.3,52.3z"/>
		<path class="st1" d="M40.7,49.2c-2.1,0.5-4.3,0.9-6.3,1.5c-3.4,1.1-6.3,3-8.7,5.6c-2.1,2.2-4.3,4.2-7.2,5.1
			c-3.6,1.2-7,0.5-10.6-1.1c0.9-0.2,1.5-0.3,2.1-0.5c4.1-0.8,7.7-2.7,10.6-5.8c2.4-2.5,5.1-4.6,8.3-5.8C33.1,46.7,37,47,40.7,49.2z"
			/>
		<path class="st1" d="M88.2,69.2c-2-0.8-3.9-1.7-5.9-2.4c-2.5-0.9-5.1-0.9-7.7-0.7c-4.8,0.5-9.5,0.2-13.7-2.7
			c-2.3-1.6-3.8-3.8-4.9-6.6c0.4,0.2,0.6,0.3,0.8,0.5c4,2.8,8.4,4.1,13.3,4.1c1.9,0,3.7-0.3,5.6-0.4c5.4-0.1,9.2,2.4,11.8,7
			C87.8,68.3,88,68.8,88.2,69.2z"/>
		<path class="st1" d="M46.5,40.7c-0.3-0.3-0.5-0.5-0.8-0.8c-3-3.6-6.7-6-11.4-7.1c-3.8-0.9-7.2-2.6-10-5.4
			c-2.4-2.5-3.6-5.6-3.7-9.4c1.9,2.6,4,4.8,6.5,6.5c2.2,1.5,4.7,2.5,7.3,3.1c2.6,0.6,5.1,1.5,7.2,3.1c2.9,2.2,4.1,5.3,4.7,8.8
			c0.1,0.4,0.1,0.7,0.2,1.1C46.6,40.6,46.5,40.7,46.5,40.7z"/>
		<path class="st1" d="M75.4,16c-0.9,1.4-1.9,2.7-2.8,4.1c-1.8,2.9-2.3,6.2-2.6,9.5c-0.3,4.3-1.5,8.3-4.5,11.6
			c-2.1,2.3-4.7,3.6-7.8,4.2c1-1.1,1.9-2.1,2.7-3.2c2.7-3.5,4.1-7.4,4.4-11.8c0.2-1.9,0.4-3.9,0.9-5.7c1-3.8,3.5-6.4,7.1-8
			c0.8-0.4,1.7-0.7,2.5-1C75.4,15.9,75.4,16,75.4,16z"/>
		<path class="st1" d="M53.4,58.2c1,1.2,1.8,2.3,2.7,3.2c3.3,3.6,7.4,5.6,12.1,6.7c3.1,0.7,5.9,2,8,4.4c2,2.3,2.8,5,2.9,8.1
			c-0.2-0.2-0.5-0.4-0.7-0.7c-3-3.5-6.7-5.8-11.3-6.9c-3.3-0.8-6.4-2.2-9-4.4c-2.8-2.4-4.3-5.5-4.7-9.2
			C53.3,59.2,53.4,58.9,53.4,58.2z"/>
		<path class="st1" d="M42.7,54.6c-0.9,1-1.7,1.9-2.4,2.9c-3,3.9-4.4,8.4-4.6,13.3c-0.2,4-1.2,7.7-4.4,10.5
			c-1.7,1.5-3.8,2.4-6.1,3.2c0.8-1.2,1.6-2.2,2.3-3.3c1.9-2.9,2.8-6.2,3-9.7c0.2-4.5,1.2-8.8,4.2-12.3
			C36.8,56.6,39.4,55.2,42.7,54.6z"/>
		<path class="st1" d="M44.6,57.3c-1.8,4-2.8,8-2.3,12.4c0.3,2.1,0.9,4.2,1.3,6.3c0.8,3.5,0.7,6.9-1.1,10.2
			c-1.1,1.9-2.7,3.4-4.5,4.8c0-0.4,0-0.6,0.1-0.7c1.8-4.8,1.7-9.6,0.3-14.5c-1.2-4.2-1.2-8.4,0.6-12.5
			C40.2,60.6,42.1,58.7,44.6,57.3z"/>
		<path class="st1" d="M50.2,59.5c0.3,0.9,0.5,1.7,0.8,2.6c1.7,4.7,4.7,8.3,8.8,11.2c1.4,1,2.8,2.1,4.1,3.3c3,3,3.9,6.7,3.3,10.9
			c-0.1,0.6-0.2,1.1-0.3,1.7c0,0.1-0.1,0.2-0.1,0.2c-0.8-1.6-1.5-3.3-2.4-4.8c-1.4-2.4-3.2-4.3-5.5-5.9c-3.1-2.1-5.9-4.5-7.7-7.8
			C49,67.2,48.7,63.4,50.2,59.5z"/>
		<path class="st1" d="M49.7,41.1c-0.4-1.3-0.8-2.5-1.2-3.6c-1.8-4.4-4.8-7.9-8.7-10.5c-2.3-1.5-4.3-3.3-5.7-5.7
			c-1.9-3.3-1.7-6.7-0.9-10.5c0.4,1,0.8,1.7,1.1,2.5c1.5,3.5,3.8,6.4,7,8.5c3.1,2.1,5.8,4.5,7.7,7.8C50.9,33.2,51.3,37.6,49.7,41.1z
			"/>
		<path class="st1" d="M47.4,58.9c-0.3,3.4-0.1,6.8,1,10c0.9,2.6,2.2,4.9,3.8,7c1.5,2,2.7,4.3,3.1,6.8c0.5,2.9-0.2,5.6-1.6,8.2
			c-0.3,0.6-0.7,1.2-1.2,2.1c-0.1-1.4-0.2-2.5-0.3-3.7c-0.3-3.5-1.5-6.6-3.5-9.4c-2.1-2.9-3.9-6-4.5-9.5c-0.8-4.1,0.1-7.9,2.7-11.2
			c0.1-0.1,0.1-0.3,0.2-0.5C47.2,58.7,47.3,58.8,47.4,58.9z"/>
		<path class="st1" d="M52.7,41.2c0.6-5.2-0.3-10-3-14.4c-1.1-1.8-2.4-3.6-3.5-5.5c-2.2-4-2.1-8,0-12.1C46.6,8.6,47,7.9,47.5,7
			c0.1,1.3,0.2,2.3,0.3,3.4c0.2,3.6,1.5,6.9,3.6,9.8c2.3,3.1,4.1,6.4,4.6,10.2c0.6,4-0.5,7.5-2.9,10.6C53,41.1,52.9,41.1,52.7,41.2z
			"/>
		<path class="st1" d="M55.8,42.8c1.1-2.7,1.9-5.5,2.2-8.4c0.3-3-0.2-5.8-0.9-8.6c-0.4-1.7-0.8-3.5-0.9-5.3
			c-0.3-3.7,1.1-6.8,3.7-9.4c0.7-0.7,1.5-1.4,2.3-2.1c-0.5,2-1,3.8-1.3,5.6c-0.5,2.6-0.3,5.1,0.5,7.6c0.8,2.8,1.4,5.6,1.3,8.5
			c-0.1,4.9-2,8.9-6.1,11.7C56.3,42.5,56,42.6,55.8,42.8z"/>
	</g>
	<g>
		<g>
			<path class="st2" d="M65.7,54.3c-0.1,0.1-0.3,0.2-0.4,0.3c-0.8,0.1,0.4-1.3,0.6-1.4c0.2-0.1,0.4-0.2,0.6,0
				c0.2,0.1,0.3,0.5,0.3,0.7c0,0.4-0.2,1,0,1.3c0.4-0.1,0.6-0.6,0.8-0.9c0.3-0.4,1-1,1.5-0.9c0.1,0,0.3,0.1,0.4,0.2
				c0,0.1,0,0.2,0,0.3c0,0.2-0.1,1.3,0,1.4c0.3,0.1,0.7-0.6,0.8-0.7c0.3-0.3,0.6-0.6,0.9-0.7c1.7-0.4,0.7,2.8,0.6,3.6
				c0,0.2-0.1,0.5,0,0.7c0.1,0.3,0.5,0.3,0.6,0.1c0.1,0.4-0.1,0.9-0.4,1c-0.2,0.1-0.5,0-0.7-0.1c-0.2-0.2-0.3-0.4-0.4-0.6
				c-0.3-0.8-0.1-1.7,0-2.5c0-0.4,0.2-1.7-0.4-0.9c-0.4,0.5-0.8,1-1.1,1.5c-0.3,0.7-0.5,1.5-0.9,2.1c-0.1,0.1-0.2,0.2-0.3,0.2
				c-0.6,0.1-0.2-1.7-0.2-2c0.1-0.4,0.2-0.8,0.2-1.2c0-0.1,0-1.1,0.1-1.1c-0.9,0.7-1.5,1.8-1.9,2.9c-0.1,0.2-1.2,2.1-1.4,1.5
				c-0.2-0.5-0.1-1.2,0.1-1.8C65.5,56.1,65.6,55.2,65.7,54.3z"/>
			<path class="st2" d="M79.8,57.3c0,0,0,0.1,0,0.1c0,0-0.1,0-0.1,0.1c-0.1,0.4-0.4,0.6-0.7,0.9c0,0-0.1,0.1-0.1,0.1
				c0,0,0,0.1-0.1,0.1c-0.1,0.1-0.2,0.2-0.3,0.2c-0.4,0.1-0.9,0-1.3-0.1c-0.4-0.1-0.5-0.5-0.6-0.8c0-0.1,0-0.1-0.1-0.1
				c0,0-0.1,0.1-0.1,0.2c-0.1,0.1-0.1,0.2-0.2,0.3c-0.2,0.4-0.5,0.9-1,0.7c-0.2-0.1-0.3-0.2-0.5-0.4c-0.1-0.1-0.1-0.4-0.3-0.3
				c-0.2,0.1-0.3,0.2-0.5,0.3c-0.2,0.1-0.4,0.1-0.6,0.1c-0.4,0-0.7-0.3-0.7-0.7c-0.1-0.5,0.2-1.1,0.6-1.5c0.4-0.4,0.8-0.8,1.3-1.1
				c0.2-0.1,0.5-0.2,0.7-0.2c0.2,0,0.4,0.1,0.6,0.3c0.1,0.1,0.5-0.2,0.5-0.1c0.2,0.3-0.2,1-0.3,1.3C76,57.1,76,57.3,76,57.5
				c0,0.1-0.2,0.6-0.1,0.8c0,0.2,0.2,0.2,0.3,0.1c0.2-0.2,0.4-0.4,0.5-0.6c0.1-0.1,0.1-0.1,0.2-0.3c0-0.1,0-0.2,0.1-0.3
				c0.1-0.5,0.4-0.9,0.7-1.3c0.4-0.4,1-0.6,1.5-0.5c0.2,0,0.4,0.1,0.6,0.1c0.1,0,0.2,0.1,0.3,0.2c0,0.1,0,0.1,0,0.2
				c0,0.1,0,0.3,0.1,0.4c0,0.1,0.1,0.3,0,0.4c0,0-0.1,0-0.2,0c-0.1,0-0.2,0-0.3-0.1c0,0-0.1-0.1-0.1-0.1c-0.2-0.1-0.6,0-0.8,0.1
				c-0.4,0.2-0.7,0.5-0.7,1c0,0.1,0,0.3,0.1,0.4c0.1,0.1,0.3,0.1,0.5,0.1c0.3,0,0.5-0.2,0.7-0.3c0.1-0.1,0.2-0.2,0.3-0.2
				C79.5,57.6,79.8,57.4,79.8,57.3z M75.1,56.4C75.1,56.4,75.1,56.4,75.1,56.4c0-0.1-0.8,0.4-0.9,0.5c-0.3,0.3-0.4,0.6-0.6,1
				c0,0.1,0,0.1,0,0.2c0,0,0.1,0,0.1,0c0.4-0.1,0.7-0.4,1-0.8C75,57.1,75.2,56.7,75.1,56.4z"/>
			<path class="st2" d="M83.3,55.9c0.1,0.1,0.2-0.1,0.3,0c0,0.1,0,0.2,0,0.3c0,0.2-0.1,0.4-0.2,0.6c-0.1,0.3-0.2,0.6-0.3,0.9
				c0,0.1-0.1,0.3-0.1,0.4c0,0.1,0,0.2,0.1,0.3c0,0.2,0.2,0.2,0.3,0.1c0.2-0.2,0.3-0.3,0.5-0.5c0.1-0.2,0.2-0.3,0.3-0.5
				c0-0.2,0.1-0.3,0.2-0.5c0.2-0.4,0.5-0.7,0.8-0.9c0.2-0.2,0.5-0.3,0.8-0.4c0.3-0.1,0.7-0.2,0.9,0c0.1,0.1,0.2,0.5,0.2,0.6
				c0.1,0.2,0.1,0.5,0.1,0.7c0,0.5-0.1,0.9-0.4,1.3c-0.5,0.7-1.8,1.1-2.4,0.3c-0.1-0.1-0.2-0.3-0.2-0.5c0,0,0-0.2,0-0.2
				c0,0-0.2,0.2-0.2,0.2c-0.3,0.4-0.5,0.9-1,1c-0.1,0-0.1,0-0.2,0c-0.1,0-0.3-0.2-0.3-0.3c0,0-0.3-0.5-0.3-0.5
				c-0.2,0.1-0.3,0.2-0.5,0.3c-0.3,0.1-0.7,0.3-1,0.2c-0.1-0.1-0.2-0.1-0.2-0.2c-0.4-0.5-0.1-1.1,0.1-1.5c0.1-0.3,0.3-0.5,0.6-0.7
				c0.2-0.2,0.5-0.4,0.7-0.6c0,0,0,0,0.1,0c0.2-0.1,0.4-0.2,0.6-0.2c0.2,0,0.4,0,0.6,0C83,55.7,83.1,55.8,83.3,55.9z M86.5,57.3
				c0-0.2-0.1-0.4-0.5-0.5c-0.2,0-0.3,0-0.5,0c-0.3,0.1-0.5,0.4-0.6,0.7c-0.1,0.3-0.1,0.7,0.1,0.9c0.2,0.2,0.6,0.1,0.8,0
				C86.2,58.2,86.5,57.7,86.5,57.3z M82.1,56.5c-0.1,0-0.2,0.1-0.2,0.1c-0.4,0.2-0.7,0.5-0.9,0.9c-0.1,0.1-0.2,0.4,0,0.5
				c0,0,0,0,0.1,0c0.1,0,0.3-0.1,0.4-0.1c0.4-0.2,0.6-0.7,0.9-1.1c0.1-0.1,0.2-0.3,0.2-0.4C82.5,56.3,82.3,56.4,82.1,56.5z"/>
		</g>
		<g>
			<path class="st2" d="M12.9,58.4c0.2-0.2,0.3-0.4,0.5-0.5c0.3-0.2,0.6-0.5,0.8-0.7c0.6-0.5,1.2-0.9,1.9-1.3c0.7-0.4,1.2,0,1.8,0.4
				c0.7,0.4,1.4,0.7,2.2,0.9c1.5,0.5,3,0.6,4.5,0.6c0.5,0,1-0.1,1.3-0.3c0.4-0.2,0.7-0.7,0.6-1.2c-0.3-1.2-2.2-1.3-3.2-1.4
				c-0.9,0-1.8-0.3-2.7-0.4c-0.9-0.1-1.7-0.2-2.6-0.4c-1.3-0.3-3.9-0.9-2.6-2.8c0.3-0.4,0.7-0.7,1.2-1c1.4-0.8,3.1-1.2,4.7-1.4
				c1.5-0.2,3-0.3,4.5-0.1c1.1,0.1,3.3,0.4,3.8,1.6c0,0.1,0,0.1-0.1,0.1c-0.8,0.4-1.7,0.7-2.5,1c-0.3,0.1-0.7,0.2-1,0.1
				c0.3-0.2,0.5-0.3,0.4-0.7c-0.1-0.3-0.4-0.5-0.6-0.6c-0.5-0.3-1.1-0.5-1.6-0.6c-1.7-0.3-3.5-0.3-5.2,0.2c-0.4,0.1-0.8,0.2-1.1,0.6
				c-1,1.2,1.1,2,2,2.3c0.9,0.3,1.9,0.3,2.8,0.3c1.5,0,3.1-0.1,4.6,0.4c1,0.4,2,1.2,1.6,2.4c-0.2,0.5-0.6,0.9-1,1.2
				c-2.3,1.9-6,2.1-8.9,1.7c-1.3-0.2-2.5-0.6-3.7-0.8c-0.3-0.1-0.6-0.1-1,0C13.8,58,13.4,58.3,12.9,58.4z"/>
			<path class="st2" d="M42.9,49.3c-3.4-0.1-6.9,0.2-10.3,0.7c-0.1,0-0.4,0.1-0.5,0c-0.3-0.2,0.4-0.3,0.5-0.3
				c0.8-0.2,1.6-0.3,2.4-0.5c3.9-0.7,7.8-1,11.8-0.8c1.8,0.1,3.7,0.3,5.4,1c0.7,0.3,1.3,0.7,1.7,1.3c0.4,0.6,0.5,1.5,0.5,2.2
				c0,1.3-0.5,2.6-1.2,3.7c-0.4,0.6-1,1.2-1.6,1.6s-1.5,0.5-2.2,0.3c-1.2-0.3-2-1.5-2-2.8c0-0.4,0.1-0.7,0.2-1.1
				c0.4-0.8,1.1-1.3,1.9-1.6c0.5-0.2,1-0.2,1.5-0.3c0.4,0,1.2,0.2,1.2-0.4c0-0.7-0.7-1.5-1.3-1.8c-0.7-0.4-1.5-0.6-2.4-0.8
				C46.7,49.6,44.8,49.4,42.9,49.3z M49.2,55.3c0,0.3,0.1,0.6,0.1,0.8c0,0.2,0.1,0.3,0.2,0.4c0.1,0.2,0.3,0.3,0.5,0.4
				c0.4,0.2,0.9,0.3,1.3,0.4c0.2,0,0.5,0,0.7-0.1c0.2-0.1,0.2-0.4,0.2-0.6c0-0.5,0-1,0-1.4c0-0.2,0-0.4-0.2-0.6
				c-0.1-0.2-0.3-0.3-0.5-0.4c-0.6-0.3-1.8-0.7-2.2,0.1C49.2,54.6,49.2,55,49.2,55.3z"/>
			<path class="st2" d="M38.1,54c-0.1-0.1,0-0.3,0.2-0.4c0.5-0.3,1.1-0.7,1.7-0.9c0.2,0,0.3,0,0.5,0.1c0.1,0.1,0.1,0.2,0.2,0.3
				c0.1,0.4,0.2,0.8,0.2,1.1c0,0.2-0.1,0.8,0.1,1c0.1,0.1,0.2,0,0.3-0.1c1-0.8,1.9-1.7,3.2-2.2c0.2-0.1,0.4-0.1,0.7-0.1
				c0.5,0.1,0.5,0.9,0.5,1.3c0,0.5,0,1,0,1.5c0,0.3-0.1,1,0.1,1.3c0.3,0.3,0.7-0.1,0.9-0.2c0.1,0.2-0.1,0.4-0.2,0.5
				c-0.4,0.4-0.8,0.8-1.2,1.1c-0.3,0.2-0.8,0.4-1.1,0.1c-0.3-0.2-0.4-0.7-0.4-1.1c0-0.8,0-1.5,0-2.3c0-0.3,0-0.6-0.3-0.8
				c-0.3-0.1-0.6,0.1-0.8,0.3c-1,0.9-1.8,1.9-2.5,3c-0.1,0.2-0.8,1.2-1.2,0.8c-0.1-0.2,0-1,0-1.3c0-0.6,0-1.2,0-1.8
				c0-0.4,0.2-1.4-0.5-1.4C38.3,54.1,38.2,54.1,38.1,54z"/>
			<path class="st2" d="M38,56.7C38,56.7,38,56.7,38,56.7c0,0.3-0.4,0.8-0.7,1.1c-0.4,0.4-0.8,0.6-1.3,0.7c-0.4,0.1-0.8,0.1-1-0.2
				c-0.1-0.1-0.2-0.4-0.2-0.5c-0.1-0.4-0.1-0.8-0.1-1.2c0-0.3,0.2-1.4-0.4-0.7c-0.9,1-1.7,1.9-3,2.5c-0.3,0.1-0.7,0.3-1.1,0.1
				c-0.2-0.1-0.3-0.3-0.4-0.5c-0.3-0.5-0.2-1.2-0.1-1.8c0.5-1.9,2.3-3.7,4.4-3.4c0.5,0.1,1,0.2,1.4,0.1c0.3,0,0.7-0.1,0.9,0
				c0.2,0.2,0.1,0.6,0.1,0.9c0,0.8-0.1,1.6,0,2.4c0,0.3,0.1,0.6,0.4,0.7c0.1,0,0.3,0,0.4,0C37.6,56.9,37.8,56.7,38,56.7z M33,53.4
				c-0.4,0-0.7,0.1-0.9,0.2c-0.4,0.2-0.6,0.6-0.7,1.1c-0.2,0.5-0.2,1.1,0,1.7c0,0.1,0.1,0.2,0.1,0.3c0.2,0.2,0.4,0.2,0.7,0.2
				c0.5-0.1,0.9-0.4,1.3-0.8c0.4-0.4,0.7-0.8,1-1.2c0.1-0.2,0.2-0.3,0.2-0.5C34.7,53.7,33.8,53.4,33,53.4z"/>
			<path class="st2" d="M53.7,58.5c0.1-0.4,0.8-0.8,1.1-1.1c0.1-0.1,0.3-0.3,0.5-0.3c0.2,0,0.4,0,0.6,0.1c1.1,0.4,2.2,1,3.3,0.8
				c0.2,0,0.4-0.1,0.6-0.3c1-1.1-3.2-1.8-3.8-2c-0.3-0.1-0.7-0.2-0.8-0.5c-0.2-0.3-0.1-0.8,0.2-1.1c0.4-0.5,0.9-0.9,1.5-1.1
				c0.8-0.3,1.6-0.4,2.5-0.4c0.4,0,0.8,0.1,1.2,0.2c0.2,0.1,1,0.3,0.9,0.6c0,0-0.1,0.1-0.1,0.1c-0.2,0.2-0.5,0.3-0.8,0.4
				c-0.5,0.2-0.5-0.1-0.9-0.4c-0.3-0.3-0.7-0.4-1.2-0.4c-0.4,0-2.2,0.1-1.7,0.9c0.1,0.2,0.3,0.3,0.5,0.4c0.3,0.1,0.6,0.2,0.9,0.3
				c0.8,0.2,1.6,0.3,2.4,0.6c0.4,0.1,0.7,0.4,0.9,0.7c0.2,0.5-0.1,1.1-0.6,1.5c-1.3,1.2-3.2,1.3-4.9,1c-0.4-0.1-0.9-0.2-1.3-0.2
				C54.3,58.4,54,58.6,53.7,58.5z"/>
			<path class="st3" d="M61.9,58.6c0,0.1-0.1,0.1-0.2,0.2c-0.1,0-0.2,0.1-0.2,0.1c-0.1,0-0.2,0-0.2-0.1c-0.1,0-0.1-0.1-0.2-0.2
				c0-0.1-0.1-0.2-0.1-0.2c0-0.1,0-0.2,0.1-0.2c0-0.1,0.1-0.1,0.2-0.2c0.1,0,0.2-0.1,0.2-0.1c0.1,0,0.2,0,0.2,0.1
				c0.1,0,0.1,0.1,0.2,0.2c0,0.1,0.1,0.2,0.1,0.2C62,58.4,62,58.5,61.9,58.6z M61.9,58.1c0-0.1-0.1-0.1-0.2-0.2
				c-0.1,0-0.1-0.1-0.2-0.1c-0.1,0-0.1,0-0.2,0.1c-0.1,0-0.1,0.1-0.2,0.1c0,0.1-0.1,0.1-0.1,0.2c0,0.1,0,0.1,0.1,0.2
				c0,0.1,0.1,0.1,0.1,0.2c0.1,0,0.1,0.1,0.2,0.1c0.1,0,0.1,0,0.2-0.1c0.1,0,0.1-0.1,0.2-0.1c0-0.1,0.1-0.1,0.1-0.2
				C61.9,58.3,61.9,58.2,61.9,58.1z M61.7,58.5c0,0.1,0,0.1,0,0.2l-0.1,0C61.6,58.6,61.6,58.6,61.7,58.5c-0.1-0.1-0.1-0.1-0.2-0.1
				l-0.1,0l0,0.2l-0.1,0l0-0.5c0,0,0.1,0,0.1,0c0.1,0,0.1,0,0.2,0c0,0,0,0.1,0,0.1c0,0.1,0,0.1-0.1,0.1l0,0
				C61.6,58.4,61.7,58.4,61.7,58.5z M61.6,58.2c0-0.1-0.1-0.1-0.1-0.1c0,0-0.1,0-0.1,0l0,0.2l0.1,0C61.6,58.3,61.6,58.3,61.6,58.2z"
				/>
		</g>
	</g>
	<path class="st2" d="M47.3,46.5c-0.3,0-0.5-0.3-0.5-0.7c-0.1-0.8-0.2-1-0.3-1.1L46,44.2h0c0.2,0,0.4,0,0.5,0c0.2,0,0.3-0.1,0.4-0.2
		c0.2-0.2,0.2-0.7,0.3-1.7l-0.1-4.5c0-1-0.1-1.9-0.1-2.5c-0.2,0-0.3-0.1-0.5-0.1c-0.2,0-0.4,0.1-0.6,0.1c-0.4,0.1-0.7,0.2-1.1,0.4
		l-0.5,0.2c-0.1,0-0.2,0.1-0.3,0.1c-0.3-0.1-0.4-0.2-0.7-0.7c-0.3-0.6-0.2-0.7-0.2-0.7c0-0.1,0.4-0.9,0.4-0.9l0.1-2.5l-0.3,0.4
		c-0.5,0.7-0.9,1.3-1.2,1.8c-0.4,0.6-0.9,1.4-1.5,2.4c0,0.1-0.2,0.3-0.6,0.7c-0.3,0.4-0.6,0.6-0.7,0.6c0,0-0.1,0-0.1,0
		c-0.4,0-0.6-0.2-0.7-0.4L38,36.5l-0.3,6.1c0,0.4-0.1,0.8-0.3,1.3c-0.2,0.5-0.5,0.8-0.7,0.8c-0.2,0-0.4-0.2-0.7-0.7
		c-0.3-0.5-0.4-0.8-0.4-1l0.3-0.6c0.2-1.7,0.4-3.7,0.5-6c0.1-2.3,0.1-4.4,0.1-6.1v-1.1c0.1,0.2,0.4,0.3,0.8,0.4
		c0.3,0.1,0.6,0.2,0.7,0.3c0.2,0.1,0.3,0.3,0.3,0.5c0,0.1,0,0.2-0.1,0.8l0,0.6c0.3,0.2,0.5,0.2,0.7,0.3c0.2,0,0.4,0.1,0.6,0.1
		l0.3-0.6l0-0.4c-0.3-0.2-0.4-0.3-0.5-0.3c-0.2-0.1-0.3-0.2-0.4-0.3l-0.3-0.9c-0.2-0.7-0.3-0.9-0.3-0.9l0,0l0,0
		c0.2,0.1,0.5,0.1,0.8,0.1h0.7c0.1,0,0.3,0,0.4,0c0.3,0,0.6,0,0.9,0.1c0.6,0.1,0.9,0.3,0.9,0.6c0,0.1,0,0.2-0.2,0.5l-0.4,0.5
		c-0.1,0.2-0.2,0.6-0.3,1.2C41.1,32,41,33,41,33s1-1.1,1.4-1.5l1.4-1.5l0-1.3l1,0.6l0.4-0.2L45,28.7c0.1,0,0.1,0.1,0.2,0.1
		c0.2,0,0.6-0.1,1-0.3c0.9-0.4,1-0.4,1.1-0.4c0,0,0,0,0,0c0.3,0,0.6,0.1,1.1,0.3c0.5,0.3,0.8,0.5,0.9,0.6c0.1,0.2,0.1,0.4,0.2,0.6
		c-0.3,1.9-0.3,4.2-0.2,6.8l0.5,6.8c0,0.5-0.1,1-0.3,1.4c-0.2,0.5-0.5,1-0.8,1.2c-0.1,0.1-0.3,0.2-0.7,0.4
		C47.6,46.4,47.4,46.5,47.3,46.5L47.3,46.5z M38.1,33.3l-0.1,2.4l0.9-0.5c0.4-0.3,0.7-0.5,0.7-0.6c0.1-0.2,0.1-0.3,0-0.5l0-0.2
		l-0.2-0.3c-0.1,0-0.1,0-0.2,0c-0.3,0-0.5,0-0.5-0.1c0,0-0.1-0.1-0.2-0.3L38.1,33.3z M46.7,32.3c-0.2,0.1-0.3,0.1-0.5,0.2l-0.9,0.6
		l0,0.3l0.1,0.5l1.4-0.6l0.1-0.6l0-0.2L46.7,32.3z M45.4,29.7l0.1,0.1c0.1,0.1,0.1,0.3,0,0.6c0,0.1,0,0.2-0.1,0.3L45.4,31
		c0,0,0.7-0.1,0.8-0.1c0.1,0,0.2,0,0.3,0c0.1,0,0.2,0,0.3,0l0.2-0.6c0-0.3,0-0.4,0-0.5c-0.4-0.2-0.5-0.2-0.6-0.2c-0.4,0-0.5,0-0.5,0
		L45.4,29.7z"/>
	<path class="st2" d="M59,45.6c-0.4,0-0.7-0.2-1-0.6c-0.2-0.3-0.4-0.8-0.6-1.3l1.4,0c1.2-0.2,1.4-0.3,1.5-0.4l0.1-0.1l0.2-0.2
		c-0.1-0.4-0.1-0.9-0.1-1.4V41l-0.2,0c0,0,0.1,0,0.1,0l0.1-0.8c-0.7-0.3-1.1-0.5-1.3-0.7c-0.1-0.1-0.3-0.4-0.6-1c0,0,0,0,0,0
		c0.1,0,0.3-0.1,0.8-0.3c1-0.4,1-0.4,1.1-0.5c0.2-0.1,0.1-0.4,0.1-0.6l-0.1-0.5c-0.4-0.2-0.6-0.3-0.9-0.5c-0.2-0.1-0.4-0.4-0.6-0.6
		c-0.8,0.4-1.5,0.9-2.1,1.4c-0.9,0.6-1.6,1-1.9,1.2c-0.2,0.1-0.4,0.1-0.7,0.2c0,0-0.1,0-0.2,0c0.9-0.9,1.6-1.8,2.2-2.6
		c0.6-0.8,1.3-1.9,2.1-3.4l1.1-2c0.6-1,1-1.3,1.3-1.3c0.1,0,0.1,0,0.2,0c0.2,0,0.4,0,0.6,0.1c0.5,0.1,0.6,0.2,0.7,0.2
		c0.1,0.1,0.3,0.3,0.4,0.4l0.6,0.2c0.1,0.1,1.1,1,2.8,2.7c1.4,1.3,2.3,2.2,2.9,2.6l2.1,1.2c1.4,0.9,1.4,1.1,1.4,1.1
		c0,0-0.2,0.3-1.8,0.7c-0.9,0.2-1.5,0.3-1.9,0.3c-0.3,0-0.7-0.3-2-1.7c-1.2-1.3-1.8-2-1.8-2l-0.1-0.5c0,0-0.4,0.6-0.5,0.8
		c-0.1,0.2-0.2,0.3-0.3,0.4c0,0-0.1,0.1-0.3,0.3L63.5,36c-0.1,0.2-0.1,0.4-0.1,0.6c0.3,0.1,0.4,0.1,0.5,0.1c0,0,0.1,0,0.1,0
		c0.2,0,0.4,0.1,0.6,0.2c0.1,0.1,0.3,0.3,0.1,0.8c-0.1,0.2-0.2,0.4-0.3,0.6c-0.1,0.2-0.3,0.3-0.4,0.5c-0.2,0.1-0.4,0.2-0.5,0.3
		c-0.1,0.2-0.1,0.5-0.2,0.7c0,0.3-0.1,0.5-0.1,0.7l-0.1,0.5l0.4-0.3c0.2-0.2,0.5-0.4,0.7-0.7c0.1-0.1,0.4-0.4,0.6-0.7l0.7,0.2
		c0.5,0.2,0.5,0.3,0.5,0.3c0,0,0,0.2-0.8,0.9c-0.4,0.3-0.9,0.7-1.5,1c-0.2,0.1-0.3,0.2-0.5,0.3c-0.1,0.2-0.1,0.4-0.1,0.6l0,0.4
		c1.7,0.2,2.6,0.3,2.9,0.4c1.5,0.3,1.4,0.9,1.4,1.1c0,0.3-0.1,0.5-0.3,0.7c-0.2,0.2-0.4,0.3-0.7,0.3c-1.5-0.1-2.4-0.1-2.7-0.1
		c-0.4,0-0.8,0-1.2,0c-0.5,0-1.1,0-1.6,0C61.1,45.4,59.1,45.6,59,45.6z M60.9,32.5l-1.3,1.9l0.4-0.1c0.5-0.1,0.9-0.2,1.3-0.4
		c0.3-0.1,0.7-0.3,1.2-0.6c0.1,0,0.2,0,0.5,0.1l1.3,0.6l-1.2-1.7c-0.3-0.4-1-1.3-1-1.3S61.4,31.8,60.9,32.5z M59.2,42.7
		c-0.4-0.1-0.7-0.4-0.8-1c-0.1-0.4-0.2-0.8-0.2-1.3c0.1,0.1,0.2,0.2,0.4,0.3c0.2,0.1,0.4,0.2,0.7,0.3c0.2,0.1,0.4,0.1,0.5,0.1
		c0.1,0,0.2,0,0.3,0C60,41.7,59.8,42,59.8,42C59.5,42.6,59.3,42.7,59.2,42.7z"/>
	<path class="st4" d="M75.6,35c0.4,0,0.8,0,1.2,0c0.6,0,0.9,0.1,1.1,0.2c0.3,0.2,0.4,0.4,0.3,0.9c-0.1,0.3-0.2,0.7-0.4,1.1
		c-0.1,0.2-0.3,0.4-0.4,0.7c-0.2-0.1-0.5-0.3-0.8-0.7c-0.2-0.3-0.4-0.6-0.5-0.9c0,0-0.1-0.2-0.2-0.6C75.7,35.3,75.6,35.1,75.6,35z
		 M78.7,38c0,0.2,0,0.7,0,1.5c0,0.9,0,1.4-0.1,1.4l-0.3,1.3c-0.2,0.7-0.4,1.1-0.6,1.1c-0.3,0-0.5,0.1-0.7,0.1
		c-0.1,0-0.3-0.3-0.7-0.7c-0.4-0.5-0.6-0.8-0.6-0.8c0.1-0.1,0.5-0.6,1.2-1.4c0.7-0.9,1.1-1.3,1.1-1.5c0-0.1,0.2-0.3,0.4-0.5
		C78.5,38.2,78.6,38.1,78.7,38z M77.8,30.1c0.4,0,0.8,0.1,1.2,0.5c0.5,0.4,0.6,0.7,0.5,1c0,0.1-0.1,0.2-0.2,0.4
		c-0.1,0.2-0.2,0.3-0.3,0.3c-0.3,0.1-0.8,0-1.5-0.3c-0.6-0.2-1-0.5-1.4-0.7c0.1-0.1,0.3-0.3,0.8-0.6C77.4,30.3,77.7,30.1,77.8,30.1z
		 M83.9,27.9c0.9,0.3,1.4,0.4,1.6,0.5c0.7,0.3,1.2,0.5,1.4,0.8c0.1,0.2,0.2,0.5,0.2,1.1c0,0.5,0,0.8,0,1.1c0,0.2-0.1,0.7-0.2,1.7
		c-0.1,1-0.2,1.5-0.2,1.7c0,0.3-0.1,0.9-0.1,1.7c0,0.6,0,1.2,0,1.6l0.5-1.2c0.2-0.5,0.3-0.9,0.5-1.2c0-0.1,0.1-0.2,0.2-0.4
		c0.1-0.2,0.2-0.3,0.2-0.4c0.5,0.2,0.9,0.5,1.1,0.9C89,36,89,36.4,88.9,37c0,0.3-0.2,0.7-0.5,1.3c-0.2,0.5-0.4,0.9-0.6,1.2
		c-0.1,0.2-0.4,0.7-0.9,1.3c-0.3,0.4-0.6,0.7-1,1.2c-0.4,0.5-0.9,1-1.5,1.6c-0.7,0.6-1.2,1.1-1.7,1.4c-0.3,0.2-0.8,0.5-1.6,0.9
		c-0.8,0.4-1.4,0.7-1.6,0.8c0.1-0.1,0.3-0.4,0.7-0.8c0.4-0.4,0.7-0.7,0.8-0.7c0.1-0.1,0.5-0.6,1.2-1.3c0.7-0.8,1.1-1.3,1.2-1.4
		c0,0,0.4-0.4,0.9-1.1c0.6-0.7,0.9-1.1,0.9-1.1c0.1-0.1,0.2-0.3,0.3-0.5L85,39.8c-0.2,0.1-0.3,0.1-0.4,0c-0.1-0.1-0.3-0.4-0.7-1.1
		c-0.4-0.7-0.6-1-0.6-1.1c0.2-0.1,0.5-0.2,0.7-0.3c0.1-0.1,0.1-0.6,0.2-1.5c0-0.5,0-1,0-1.5l0-0.2c-0.1,0.1-0.2,0.2-0.3,0.4
		c-0.1,0.2-0.2,0.4-0.3,0.5c-0.3,0.5-0.6,0.8-0.7,1c-0.4,0.4-0.7,0.6-1,0.6c-0.4,0-0.7-0.2-0.9-0.5c-0.2-0.3-0.2-0.7-0.1-1.1
		c0-0.2,0.1-0.5,0.2-0.8c0.1-0.3,0.1-0.5,0.2-0.7c0.2,0.1,0.4,0.1,0.6,0.2c0.2,0.1,0.4,0.3,0.6,0.4c0.2,0,0.4,0,0.7-0.2
		c0.2-0.1,0.5-0.2,0.8-0.4l0.1-0.1c0-0.2,0-0.7,0-1.4c0-0.8-0.1-1.3-0.1-1.4l-0.2-1c-0.1-0.5-0.1-0.8-0.1-1c0-0.1,0-0.2,0.1-0.3
		C83.7,28.2,83.8,28.1,83.9,27.9z M88.1,31.6c0.1,0,0.3,0.1,0.8,0.2c0.5,0.1,0.8,0.2,0.8,0.2c0.1,0,0.3,0,0.6,0.1
		c0.4,0.1,0.6,0.1,0.6,0.1c0.3,0.1,0.4,0.4,0.4,0.7c0,0.3-0.2,0.6-0.5,0.7c-0.1,0-0.6,0.1-1.5,0.4c-0.9,0.3-1.3,0.4-1.5,0.5
		c0.1-0.2,0.2-0.4,0.2-0.7c0.1-0.3,0.1-0.5,0-0.7c-0.1-0.2-0.2-0.4-0.2-0.6V32V31.6z"/>
	<path class="st2" d="M80.3,46c0.4-0.4,0.6-0.6,0.7-0.7c0.1-0.1,0.6-0.6,1.2-1.3c1-1.1,1.1-1.3,1.2-1.4l0.9-1.1l0.9-1.1l0.5-1
		l-0.9,0.4c-0.3,0-0.4-0.1-0.9-1c-0.3-0.5-0.4-0.8-0.5-0.9c0.2-0.1,0.3-0.2,0.5-0.3c0.1-0.1,0.2-0.3,0.2-1.6c0-0.5,0-1,0-1.5
		L84,34.1c-0.1,0.1-0.2,0.2-0.3,0.4c-0.1,0.2-0.2,0.4-0.3,0.5c-0.3,0.5-0.5,0.8-0.7,0.9c-0.3,0.4-0.6,0.6-0.9,0.6c0,0,0,0,0,0
		c-0.3,0-0.5-0.1-0.7-0.4c-0.2-0.3-0.2-0.6-0.1-1c0-0.2,0.1-0.5,0.2-0.7c0.1-0.3,0.1-0.5,0.2-0.7l0.3,0.3l0.6,0.4c0.1,0,0.2,0,0.2,0
		c0.3,0,0.5-0.1,0.7-0.2c0.2-0.1,0.5-0.2,0.8-0.4l0.1-0.1l0.1-0.2c0-0.2,0-0.7,0-1.4c0-0.8-0.1-1.3-0.1-1.4l-0.2-1
		c-0.1-0.5-0.1-0.8-0.1-1l0.2-0.4c0.8,0.1,1.3,0.2,1.5,0.3c0.7,0.2,1.1,0.5,1.3,0.7c0.1,0.1,0.2,0.4,0.2,1c0,0.4,0,0.8,0,1
		c0,0.2-0.1,0.7-0.2,1.7c-0.1,1-0.2,1.5-0.2,1.7c0,0.3-0.1,0.9-0.1,1.7c0,0.6,0,1.2,0,1.6l0.3,0.1l0.5-1.2c0.2-0.5,0.6-1.5,0.6-1.5
		c0.1-0.3,0.2-0.4,0.2-0.5c0.3,0.3,0.6,0.6,0.7,0.9c0.1,0.3,0.1,0.7,0,1.3c0,0.2-0.2,0.7-0.4,1.2c-0.2,0.5-0.4,0.9-0.6,1.2
		c-0.1,0.2-0.4,0.6-0.9,1.2c-0.3,0.3-0.6,0.7-1,1.2c-0.4,0.5-0.9,1-1.5,1.6c-0.6,0.6-1.2,1.1-1.7,1.4c-0.3,0.2-0.8,0.5-1.6,0.9
		c-0.3,0.2-0.6,0.3-0.9,0.4C80.2,46.1,80.2,46,80.3,46z M77,43.3c-0.1,0-0.2-0.2-0.6-0.6c-0.5-0.6-0.6-0.8-0.7-0.8c0,0,0,0,0,0
		c0.2,0,0.6-0.5,1.2-1.2c0.9-1.1,1.1-1.4,1.1-1.5c0-0.1,0.1-0.2,0.3-0.5c0,0,0,0,0,0c0,0.2,0,0.5,0,0.9c0,0.8,0,1.3-0.1,1.4
		l-0.3,1.3c-0.3,0.9-0.4,1-0.4,1C77.5,43.3,77.2,43.3,77,43.3z M77.3,37.7c-0.2-0.1-0.4-0.3-0.6-0.6c-0.2-0.3-0.4-0.6-0.5-0.9
		L76,35.6c-0.2-0.4-0.2-0.5-0.2-0.6c0.2,0.2,0.6,0.2,1,0.2c0.7,0,0.9,0.1,1,0.2c0.1,0,0.3,0.2,0.2,0.7c-0.1,0.3-0.2,0.7-0.4,1
		C77.5,37.4,77.4,37.5,77.3,37.7z M88.5,33.8c0.1-0.3,0.1-0.5,0-0.7c-0.1-0.2-0.2-0.4-0.2-0.6l0-0.6c0.1,0.1,0.3,0.1,0.6,0.2
		c0.7,0.2,0.8,0.2,0.9,0.2c0.1,0,0.3,0,0.6,0.1c0.5,0.1,0.6,0.1,0.6,0.1c0.2,0.1,0.3,0.3,0.3,0.5c0,0.3-0.1,0.4-0.4,0.5l0,0
		c-0.1,0-0.6,0.1-1.5,0.4c-0.5,0.1-0.8,0.2-1.1,0.3C88.5,34,88.5,33.9,88.5,33.8z M78.8,32.2c-0.3,0-0.7-0.1-1.2-0.3
		c-0.5-0.2-0.9-0.4-1.2-0.6c0.1,0,0.3-0.2,0.6-0.4c0.6-0.5,0.8-0.5,0.8-0.5c0,0,0,0,0,0c0.4,0,0.7,0.1,1.1,0.4
		c0.4,0.3,0.6,0.6,0.5,0.8c0,0.1,0,0.1-0.2,0.3c-0.1,0.2-0.2,0.2-0.2,0.3L78.8,32.2z"/>
	<g>
		<path class="st2" d="M16.1,44.6c-0.1,0.9-0.3,1.3-0.7,1.3c-0.3,0-0.8-0.6-1.4-1.7c-0.5-0.8-0.7-1.3-0.6-1.7
			c0.1-0.3,0.4-0.5,0.9-0.6c0.2,0,0.4-0.2,0.7-0.4c0.2-0.3,0.5-0.6,0.7-0.9c0.3-0.5,0.6-0.9,0.8-1.3c0.2-0.4,0.4-0.7,0.6-1.1
			c0.3-0.6,0.6-1,0.8-1.3c0.2-0.3,0.4-0.4,0.4-0.4s0.1,0.2,0,0.6c-0.1,0.4-0.2,0.9-0.5,1.6c-0.2,0.6-0.4,1.1-0.6,1.7
			c-0.2,0.6-0.4,1.1-0.5,1.7c-0.2,0.5-0.3,1-0.4,1.4C16.2,44,16.2,44.3,16.1,44.6z"/>
		<path class="st2" d="M15.3,36.9c-0.3-0.2-0.5-0.5-0.6-0.7c-0.2-0.3-0.3-0.5-0.5-0.9c-0.3-0.4-0.4-0.7-0.3-0.8
			c0.1-0.1,0.4-0.2,0.8-0.1c0.8,0.1,1.4,0.3,1.7,0.6c0.3,0.3,0.5,0.6,0.5,1.1c0,0.6-0.1,1-0.4,1.2C16.1,37.4,15.7,37.3,15.3,36.9z"
			/>
		<path class="st2" d="M17.3,32.8c-0.3-0.2-0.5-0.5-0.8-0.8c-0.2-0.3-0.5-0.6-0.8-1c-0.2-0.2-0.3-0.4-0.3-0.5
			c-0.1-0.1-0.1-0.2,0-0.3c0.1-0.1,0.2-0.1,0.4-0.1c0.2,0,0.4,0,0.7,0.1c0.8,0.1,1.3,0.2,1.6,0.5c0.3,0.2,0.4,0.6,0.4,1.2
			c0,0.3,0,0.5-0.1,0.7c-0.1,0.2-0.2,0.3-0.3,0.4C18.1,33,17.9,33,17.8,33C17.6,33,17.4,32.9,17.3,32.8z"/>
		<path class="st2" d="M22.4,35.6c-0.1-0.1-0.2-0.2-0.3-0.3c-0.1-0.1-0.2-0.2-0.3-0.4c-0.2-0.3-0.2-0.4-0.1-0.5
			c0.1-0.1,0.3-0.1,0.6-0.1c0.3,0,0.6,0.1,0.7,0.2c0.1,0.1,0.2,0.3,0.2,0.5c0,0.3-0.1,0.5-0.2,0.6C22.8,35.8,22.6,35.8,22.4,35.6z"
			/>
		<path class="st2" d="M31.9,45.4c-0.9-0.1-3.9-1.8-5.2-2.7c-1-0.7-1.3-0.9-1.9-1.4c1.3-0.1,2.3-0.2,3.1-0.2c0.9,0,1.5,0,1.9,0.1
			c0.5,0.1,1,0.1,1.3,0.1c0.3,0,0.5-0.1,0.6-0.2c0.1-0.1,0.1-0.3,0-0.4c-0.1-0.2-0.3-0.4-0.5-0.6c-0.2-0.1-0.3-0.2-0.5-0.3
			c-0.1-0.1-0.3-0.1-0.5-0.1c-0.2,0-0.4,0-0.6,0c-0.2,0-0.6,0.1-0.9,0.1c-0.8,0.2-1.5,0.3-2.2,0.4c-0.6,0.1-1.3,0.2-1.9,0.2
			c0.2-0.3,0.4-0.5,0.3-0.6c0-0.1-0.2-0.3-0.6-0.4c0.1-0.1,0.1-0.1,0.2-0.2c0.1-0.1,0.1-0.2,0.1-0.3c0-0.2,0-0.3,0.1-0.5
			c0-0.2,0-0.4,0-0.7c0-0.2,0-0.3,0-0.5c0-0.2,0-0.4,0-0.7c0.2,0,0.4-0.1,0.7-0.1c0.2,0,0.5-0.1,0.8-0.1c0.3-0.1,0.5-0.1,0.7-0.2
			c0.1-0.1,0.2-0.2,0.2-0.2c0-0.1,0-0.2-0.1-0.2c-0.1-0.1-0.2-0.1-0.4-0.2c-0.1,0-0.2-0.1-0.5-0.1c-0.2,0-0.5,0-0.7,0.1
			c-0.1,0-0.2,0-0.3,0.1c-0.1,0-0.2,0-0.3,0.1c0-0.3,0-0.5,0.1-0.7c0-0.2,0.1-0.3,0.1-0.4C25,34.2,25,34.1,25,34
			c0-0.1-0.2-0.2-0.5-0.3c0.1,0,0.2-0.1,0.3-0.1c0.1,0,0.2-0.1,0.3-0.1c0.2-0.1,0.4-0.1,0.5-0.1c0.1,0,0.2-0.1,0.4-0.1
			c0.2,0,0.4-0.1,0.3-0.2c0-0.1-0.2-0.3-0.4-0.5c-0.2-0.1-0.3-0.2-0.4-0.3c0.3,0,0.5,0,0.7-0.1c0.2,0,0.3,0,0.5,0
			c0.3,0,0.4,0,0.5,0.1c0.1,0.1,0.1,0.2,0.1,0.4c0,0.3,0,0.7,0,1c0,0.3,0,0.7,0,1c0,0.4,0,0.7-0.1,1.2s-0.1,0.9-0.1,1.4
			c0,0.2,0,0.3-0.1,0.5c0,0.1-0.1,0.2-0.1,0.2c-0.1,0-0.2,0.1-0.3,0.1c-0.1,0-0.3,0-0.5-0.1c-0.4-0.1-0.7-0.1-0.7,0.1s0,0.3,0.3,0.5
			c0.3,0.2,0.5,0.4,0.7,0.5c0.2,0.1,0.3,0.3,0.4,0.5c0.2,0.2,0.4,0.4,0.6,0.4c0.2,0,0.5-0.1,0.7-0.4c0.2-0.2,0.3-0.3,0.4-0.5
			c0.1-0.1,0.2-0.3,0.2-0.5c0.1-0.2,0.1-0.4,0.1-0.7c0-0.3,0-0.7,0-1.1c0-1.1,0.1-2,0.2-2.6c0.1-0.6,0.2-1,0.3-1.2
			c0.1-0.2,0.2-0.3,0.3-0.5c0.1-0.1,0.1-0.3,0-0.4c-0.1-0.1-0.2-0.3-0.4-0.4c-0.2-0.2-0.5-0.4-0.9-0.6c-0.2-0.1-0.4-0.2-0.5-0.3
			c-0.1-0.1-0.3-0.1-0.4-0.1s-0.3,0-0.4,0.1c-0.1,0.1-0.3,0.1-0.5,0.2c-0.1,0.1-0.3,0.1-0.4,0.2c-0.2,0.1-0.4,0.1-0.7,0.2
			c-0.3,0.1-0.6,0.1-1,0.2c-0.4,0.1-0.9,0.1-1.5,0.2c0.3-0.2,0.5-0.4,0.6-0.6c0.2-0.2,0.3-0.3,0.5-0.4c0.1-0.1,0.2-0.2,0.3-0.3
			c0.1-0.1,0.2-0.1,0.3-0.2c0.4-0.2,0.5-0.5,0.5-0.7c-0.1-0.3-0.5-0.6-1.3-0.9c-0.7-0.3-1.1-0.4-1.3-0.2c-0.2,0.1-0.2,0.5,0,1
			c0,0.1,0,0.4-0.1,0.7c-0.1,0.4-0.4,0.9-0.9,1.7c-0.2,0-0.3,0-0.4,0.1c-0.1,0-0.3,0-0.4,0.1c-0.5-0.1-0.9-0.2-1.2-0.3
			c-0.3,0-0.5,0-0.6,0c-0.1,0.1-0.2,0.2-0.1,0.3c0,0.2,0.1,0.4,0.3,0.7c0,0.1,0.1,0.2,0.1,0.4s0.1,0.4,0.1,0.7c0,0.7,0,1.2,0,1.7
			c0,0.5,0,0.9,0,1.2c0,0.3-0.1,0.6-0.1,0.9c0,0.2-0.1,0.5-0.2,0.6c-0.1,0.2-0.1,0.3-0.1,0.5c0,0.2,0,0.4,0.2,0.6
			c0.3,0.5,0.5,0.8,0.8,0.9c0.3,0,0.5-0.2,0.7-0.6c0.1-0.2,0.2-0.5,0.2-0.7c0-0.3,0-0.6,0-1c0-0.3,0-0.7,0-1.2c0-0.5,0-0.9,0-1.4
			c0-0.5,0-0.9,0-1.3c0-0.4,0-0.8,0-1.1c0.9-0.1,1.6-0.2,2.3-0.3c0.6-0.1,1.2-0.1,1.6-0.2c0,0,0,0,0,0c0,0,0,0,0,0
			c0,0.1-0.1,0.2-0.3,0.3c-0.2,0.1-0.4,0.2-0.6,0.3c-0.2,0.1-0.5,0.2-0.8,0.3c-0.3,0.1-0.6,0.2-0.9,0.3c-0.4,0.1-0.6,0.2-0.6,0.3
			c0,0.1,0.2,0.1,0.7,0.1c0.1,0,0.2,0,0.4,0c0.1,0,0.3,0,0.4,0c0,0.1,0.1,0.1,0.1,0.2c0,0.1,0.1,0.2,0.1,0.3c0,0.1,0,0.3,0.1,0.5
			c0,0.2,0,0.5,0.1,0.8c-0.3,0.1-0.5,0.1-0.8,0.1c-0.3,0-0.5,0.1-0.6,0.1c-0.9,0.1-0.9,0.3,0,0.6c0.1,0,0.2,0.1,0.4,0.1
			c0.2,0,0.4,0,0.7,0c-0.3,0.3-0.5,0.6-0.7,0.8c-0.2,0.2-0.4,0.4-0.7,0.6c-0.4,0.3-0.6,0.5-0.6,0.6c0,0.1,0.4,0,1-0.2
			c0.2-0.1,0.5-0.2,0.7-0.3c0.2-0.1,0.4-0.3,0.6-0.4c-0.1,0.4-0.1,0.7-0.1,0.9c0,0.2,0.1,0.3,0.2,0.5c-0.6-0.2-0.9-0.2-1,0
			c-0.1,0.1-0.1,0.5,0.2,0.9c0.1,0.1,0.1,0.3,0,0.6c-1.1,0.1-1.9,0.2-2.6,0.3c-0.7,0.1-1.2,0.1-1.4,0.1c-0.6-0.1-0.9,0-1,0.1
			c0,0.1,0.2,0.4,0.6,0.6c0.2,0.1,0.4,0.2,0.5,0.3c0.1,0.1,0.3,0.1,0.4,0.1c0.1,0,0.3,0,0.4,0c0.2,0,0.3-0.1,0.5-0.1
			c0.3-0.1,0.6-0.1,0.9-0.2c0.3-0.1,0.7-0.1,1.2-0.2c-0.3,0.9-0.9,1.6-1.6,2.2c-0.7,0.6-1.6,1.1-2.5,1.5c-0.8,0.4-1.2,0.6-1.1,0.7
			c0.1,0.1,0.6,0.1,1.5-0.1c0.8-0.1,1.5-0.3,2.1-0.6c0.6-0.2,1.1-0.5,1.6-0.9c0.5-0.4,0.8-0.8,1.1-1.3c0.1-0.2,0.3-0.5,0.4-0.8
			c0.7,0.7,3.4,3.8,4.6,3.8c0.6,0,2.3-0.2,3.4-0.3C32.1,45.9,32.2,45.5,31.9,45.4z"/>
		<path class="st2" d="M26,37.7c-0.4-0.2-0.7-0.5-1-0.8c-0.2-0.2-0.3-0.3-0.3-0.3c0,0,0.2-0.1,0.5-0.1c0.5,0,0.9,0,1.1,0.2
			c0.2,0.1,0.3,0.3,0.4,0.5c0.1,0.3,0,0.5-0.1,0.6C26.4,37.8,26.2,37.8,26,37.7z"/>
		<path class="st2" d="M26.5,34.6c-0.1,0.1-0.3,0.1-0.4,0.2c-0.2,0.1-0.4,0.2-0.7,0.3c-0.3,0.2-0.5,0.2-0.6,0.1
			c-0.1-0.1,0-0.3,0.3-0.5c0.2-0.2,0.3-0.4,0.4-0.5c0.1-0.1,0.1-0.2,0.1-0.3c0-0.2,0-0.4,0.1-0.4c0.1-0.1,0.3,0,0.6,0.2
			c0.4,0.3,0.6,0.4,0.6,0.6C27,34.3,26.8,34.5,26.5,34.6z"/>
	</g>
	<g>
		<path class="st2" d="M25.3,65.2h-0.4c0-0.1-0.1-0.3-0.1-0.5c0-0.2-0.1-0.4-0.1-0.7c0-0.2-0.1-0.4-0.1-0.6c0-0.2,0-0.4,0-0.5h5.2
			v0.5c-0.4,0.6-0.7,1.2-1,1.7c-0.3,0.5-0.5,1.1-0.7,1.6c-0.2,0.5-0.3,1.1-0.5,1.7c-0.1,0.6-0.2,1.3-0.3,2h-1.6c0.3-1,0.6-2,1-3
			c0.4-0.9,0.9-1.9,1.5-2.8l0.4-0.5l-0.6,0.1h-2.4L25.3,65.2z"/>
		<path class="st2" d="M31.5,65.2h-0.4c0-0.1-0.1-0.3-0.1-0.5c0-0.2-0.1-0.4-0.1-0.7c0-0.2-0.1-0.4-0.1-0.6c0-0.2,0-0.4,0-0.5H36
			v0.5c-0.4,0.6-0.7,1.2-1,1.7c-0.3,0.5-0.5,1.1-0.7,1.6c-0.2,0.5-0.3,1.1-0.5,1.7c-0.1,0.6-0.2,1.3-0.3,2H32c0.3-1,0.6-2,1-3
			c0.4-0.9,0.9-1.9,1.5-2.8l0.4-0.5l-0.6,0.1H32L31.5,65.2z"/>
		<path class="st2" d="M42.3,69.5c0.1,0.1,0.2,0.2,0.3,0.2c0.1,0.1,0.3,0.1,0.6,0.1c0.4,0,0.7-0.1,1-0.3c0.3-0.2,0.4-0.5,0.4-0.8
			c0-0.3-0.1-0.5-0.3-0.7c-0.2-0.2-0.4-0.3-0.7-0.5s-0.6-0.3-0.9-0.4c-0.3-0.1-0.6-0.3-0.9-0.5s-0.5-0.4-0.7-0.7
			c-0.2-0.3-0.3-0.6-0.3-1c0-0.3,0.1-0.7,0.2-0.9c0.1-0.3,0.3-0.5,0.5-0.6c0.2-0.2,0.5-0.3,0.8-0.4c0.3-0.1,0.7-0.1,1-0.1
			c0.5,0,0.9,0,1.3,0.1c0.4,0.1,0.7,0.2,1,0.3c0,0.1,0,0.3,0,0.5c0,0.2,0,0.4-0.1,0.5c0,0.2-0.1,0.4-0.1,0.5c0,0.2-0.1,0.3-0.1,0.4
			h-0.5l-0.5-1.5c-0.1,0-0.2-0.1-0.4-0.1c-0.2,0-0.4-0.1-0.5-0.1c-0.3,0-0.6,0.1-0.8,0.2s-0.3,0.4-0.3,0.7c0,0.3,0.1,0.5,0.3,0.7
			c0.2,0.2,0.4,0.4,0.7,0.5c0.3,0.2,0.6,0.3,0.9,0.5c0.3,0.2,0.6,0.3,0.9,0.5c0.3,0.2,0.5,0.4,0.7,0.7c0.2,0.3,0.3,0.6,0.3,1
			c0,0.7-0.2,1.3-0.8,1.6c-0.5,0.4-1.2,0.6-2.2,0.6c-0.2,0-0.5,0-0.7,0s-0.5-0.1-0.7-0.1c-0.2,0-0.4-0.1-0.6-0.2
			C41.2,70.1,41.1,70,41,70c0-0.2,0-0.3,0.1-0.5c0-0.2,0.1-0.4,0.1-0.6c0-0.2,0.1-0.4,0.1-0.5c0-0.2,0.1-0.3,0.1-0.4h0.5L42.3,69.5z
			"/>
		<path class="st2" d="M47.4,69.6c0-0.3,0.1-0.5,0.3-0.6c0.2-0.2,0.4-0.2,0.7-0.2c0.3,0,0.5,0.1,0.7,0.2c0.2,0.2,0.3,0.4,0.3,0.6
			c0,0.3-0.1,0.5-0.3,0.6c-0.2,0.2-0.4,0.2-0.7,0.2c-0.3,0-0.5-0.1-0.7-0.2C47.5,70,47.4,69.8,47.4,69.6z"/>
		<path class="st2" d="M56,68.1h0.5c0,0.1,0.1,0.3,0.1,0.4c0,0.2,0,0.3,0.1,0.5c0,0.2,0,0.4,0,0.5c0,0.2,0,0.3,0,0.5
			c-0.3,0.2-0.6,0.3-1,0.3c-0.4,0.1-0.8,0.1-1.2,0.1c-0.6,0-1.2-0.1-1.7-0.2c-0.5-0.1-0.9-0.4-1.3-0.7c-0.4-0.3-0.6-0.7-0.8-1.2
			c-0.2-0.5-0.3-1.1-0.3-1.8c0-0.7,0.1-1.3,0.3-1.7c0.2-0.5,0.5-0.9,0.8-1.2c0.4-0.3,0.8-0.5,1.2-0.7c0.5-0.1,1-0.2,1.5-0.2
			c0.5,0,0.9,0,1.3,0.1c0.4,0.1,0.7,0.2,1,0.3c0,0.1,0,0.3,0,0.4c0,0.2,0,0.4-0.1,0.6c0,0.2-0.1,0.4-0.1,0.6c0,0.2-0.1,0.3-0.1,0.5
			h-0.5l-0.6-1.6c-0.1,0-0.2-0.1-0.3-0.1c-0.1,0-0.3,0-0.5,0c-0.3,0-0.6,0.1-0.9,0.2s-0.5,0.3-0.7,0.6c-0.2,0.3-0.4,0.6-0.5,1
			s-0.2,0.9-0.2,1.4c0,1,0.2,1.8,0.6,2.3c0.4,0.5,1,0.8,1.7,0.8c0.2,0,0.4,0,0.5,0c0.1,0,0.2-0.1,0.3-0.1L56,68.1z"/>
		<path class="st2" d="M57.7,66.6c0-0.6,0.1-1.1,0.2-1.5c0.2-0.5,0.4-0.9,0.7-1.2c0.3-0.3,0.7-0.6,1.2-0.8s1-0.3,1.6-0.3
			s1.1,0.1,1.6,0.3s0.9,0.5,1.2,0.8c0.3,0.3,0.6,0.8,0.7,1.2c0.2,0.5,0.2,1,0.2,1.5s-0.1,1.1-0.2,1.5c-0.2,0.5-0.4,0.9-0.7,1.2
			c-0.3,0.3-0.7,0.6-1.2,0.8s-1,0.3-1.6,0.3s-1.1-0.1-1.6-0.3s-0.9-0.5-1.2-0.8c-0.3-0.3-0.6-0.8-0.7-1.2
			C57.8,67.7,57.7,67.2,57.7,66.6z M59.6,66.6c0,0.5,0,0.9,0.1,1.3c0.1,0.4,0.2,0.7,0.3,1c0.2,0.3,0.4,0.5,0.6,0.7
			c0.2,0.2,0.5,0.2,0.9,0.2c0.3,0,0.6-0.1,0.8-0.2c0.2-0.2,0.4-0.4,0.5-0.7c0.1-0.3,0.2-0.6,0.3-1c0.1-0.4,0.1-0.8,0.1-1.3
			s0-0.9-0.1-1.3c-0.1-0.4-0.2-0.7-0.3-1c-0.2-0.3-0.4-0.5-0.6-0.7c-0.2-0.2-0.5-0.2-0.9-0.2c-0.3,0-0.6,0.1-0.9,0.2
			c-0.2,0.2-0.4,0.4-0.6,0.7c-0.1,0.3-0.2,0.6-0.3,1C59.6,65.7,59.6,66.2,59.6,66.6z"/>
		<path class="st2" d="M75.7,70.3h-3.3v-0.4c0.1-0.1,0.3-0.1,0.4-0.2c0.1,0,0.3-0.1,0.5-0.1v-4.5l0.1-1.2h-0.1l-0.4,1.1l-2.1,5.3
			h-0.5l-2.1-5.2l-0.4-1.2h-0.1l0,1.4v4.4c0.1,0,0.3,0.1,0.5,0.1c0.2,0.1,0.3,0.1,0.5,0.2v0.4h-2.7v-0.4c0.1-0.1,0.3-0.1,0.4-0.2
			c0.2-0.1,0.3-0.1,0.5-0.2v-6c-0.2,0-0.3-0.1-0.5-0.1c-0.2-0.1-0.3-0.1-0.4-0.2v-0.4h3l1.7,4.3l0.3,1h0l0.3-1l1.7-4.3h2.7v0.4
			c-0.1,0.1-0.3,0.1-0.4,0.2c-0.1,0.1-0.3,0.1-0.4,0.1v6c0.2,0,0.3,0.1,0.4,0.1c0.1,0.1,0.3,0.1,0.4,0.2V70.3z"/>
		<path class="st2" d="M37.6,70.8c-0.4,0-0.8-0.1-1.1-0.3c-0.3-0.2-0.5-0.4-0.6-0.8c-0.1-0.2-0.3-0.6-0.3-1.2l0-1.2l1.4,0l0,1.2
			c0,0,0,0.1,0,0.2c0,0.1,0.1,0.2,0.1,0.3c0,0.1,0.1,0.1,0.1,0.1c0.1,0.1,0.2,0.1,0.4,0.1c0.1,0,0.2,0,0.3,0c0,0,0.1,0,0.1-0.1
			c0.1-0.1,0.1-0.2,0.1-0.3c0-0.1,0-0.2,0-0.2l0-4.2h-0.9l0-1.5h3.2v1.5h-0.9l0,4.1c0,0.3,0,0.5-0.1,0.7c-0.1,0.3-0.2,0.6-0.3,0.8
			c-0.1,0.2-0.3,0.4-0.5,0.5C38.4,70.7,38,70.8,37.6,70.8L37.6,70.8z"/>
	</g>
</g>
</svg>
