<svg id="图层_1" data-name="图层 1" xmlns="http://www.w3.org/2000/svg" xmlns:xlink="http://www.w3.org/1999/xlink" viewBox="0 0 100 100"><defs><style>.cls-1{fill:url(#未命名的渐变_24);}.cls-2{fill:url(#未命名的渐变_24-2);}.cls-3{fill:url(#未命名的渐变_24-3);}</style><linearGradient id="未命名的渐变_24" x1="50.16" y1="78.89" x2="50.16" y2="20.08" gradientUnits="userSpaceOnUse"><stop offset="0" stop-color="#ffb86a"/><stop offset="1" stop-color="#ffd457"/></linearGradient><linearGradient id="未命名的渐变_24-2" x1="51.48" y1="51.87" x2="51.48" y2="4.95" xlink:href="#未命名的渐变_24"/><linearGradient id="未命名的渐变_24-3" x1="49.03" y1="94.95" x2="49.03" y2="48.1" xlink:href="#未命名的渐变_24"/></defs><title>个人中心-icon-svg</title><path class="cls-1" d="M37.23,70.57c-2,.31-3.77.58-5.55.87A2.06,2.06,0,0,1,29.17,69c.16-1.62.36-3.25.56-4.87.15-1.13.14-1.19-.92-1.52-1.6-.5-3.18-1-4.79-1.45A2,2,0,0,1,22.8,58q1.43-2.36,2.91-4.68a.66.66,0,0,0-.14-1c-1.39-1.24-2.75-2.5-4.1-3.79a2,2,0,0,1,.27-3.23c1.57-1,3.14-2,4.73-3a.69.69,0,0,0,.3-1c-.66-1.58-1.28-3.18-1.93-4.77s0-2.92,1.7-3.19,3.38-.43,5.08-.6c.58-.07,1-.14,1-.92.06-1.59.21-3.17.32-4.76a3.67,3.67,0,0,1,.36-1.64,1.94,1.94,0,0,1,2.33-.85q2.65.86,5.26,1.82a.75.75,0,0,0,1.1-.43c.84-1.56,1.74-3.1,2.6-4.65A2,2,0,0,1,48,20.76c1.35,1.34,2.7,2.69,4,4,.31.32.54.18.82,0,1.47-1,2.93-2,4.41-3.05s2.88-.58,3.5,1.26c.56,1.64,1.15,3.27,1.71,4.93a.56.56,0,0,0,.7.45l5.55-.85a2.05,2.05,0,0,1,2.46,2.34c-.17,1.65-.36,3.29-.56,4.93-.15,1.15-.13,1.21,1,1.54,1.56.46,3.11.94,4.66,1.42a2.06,2.06,0,0,1,1.19,3.36c-.93,1.49-1.84,3-2.78,4.45-.29.45-.3.71.12,1.08,1.38,1.22,2.72,2.48,4.05,3.75a2,2,0,0,1-.34,3.34c-1.52,1-3,2-4.57,2.92-.48.3-.54.6-.32,1.12.67,1.58,1.29,3.18,1.92,4.77s0,2.87-1.73,3.11-3.42.44-5.14.61c-.6.06-.9.25-.93.92-.08,1.59-.21,3.17-.31,4.76a4.34,4.34,0,0,1-.3,1.53,1.9,1.9,0,0,1-2.39.94c-1.75-.55-3.48-1.16-5.2-1.8-.61-.23-.89-.1-1.19.47-.82,1.55-1.7,3.06-2.57,4.59a2,2,0,0,1-3.4.47c-1.33-1.33-2.67-2.65-4-4-.32-.32-.55-.18-.82,0-1.45,1-2.9,2-4.36,3-1.63,1.12-2.93.63-3.56-1.28-.53-1.6-1.11-3.16-1.64-4.74-.19-.48-.4-.7-.72-.59ZM65.42,57a8.68,8.68,0,0,0-1.09-4.5,5.6,5.6,0,0,0-9.26-1.24,8.65,8.65,0,0,0-.38,10.62,5.49,5.49,0,0,0,8.84.29A7.58,7.58,0,0,0,65.42,57ZM47.22,43c0-2.68-.31-3.78-1.21-5.35a5.57,5.57,0,0,0-9.08-1.11,8.64,8.64,0,0,0-.28,10.86,5.47,5.47,0,0,0,8.15.68A7.43,7.43,0,0,0,47.22,43ZM40.45,62.47a.69.69,0,0,0,.37.64l1.08.69c.69.47,1,.41,1.46-.32.88-1.4,1.73-2.83,2.61-4.25l10.1-16.31c1.17-1.89,2.33-3.8,3.49-5.7.46-.74.38-1.08-.36-1.55-.32-.2-.65-.39-1-.6a.79.79,0,0,0-1.24.3c-.14.24-.3.48-.44.72-2.62,4.25-5.26,8.49-7.88,12.74s-5.32,8.65-8,13a1.26,1.26,0,0,0-.23.67Zm21.86-5.53A4.51,4.51,0,0,1,61.24,60a2.43,2.43,0,0,1-3.78.27,5.22,5.22,0,0,1,0-6.92,2.49,2.49,0,0,1,3.91.45,5.21,5.21,0,0,1,.9,3.14ZM38,42.08A4.53,4.53,0,0,1,39,39a2.43,2.43,0,0,1,3.77-.35,5.21,5.21,0,0,1-.06,7,2.48,2.48,0,0,1-3.86-.53A5,5,0,0,1,38,42.08Zm0,0"/><path class="cls-2" d="M50,5A44.74,44.74,0,0,0,8.09,33.48a1.91,1.91,0,0,0,1,2.44,1.89,1.89,0,0,0,2.43-1,41.28,41.28,0,0,1,79.6,12.2l-6.1-2.63a2,2,0,0,0-2.53,1,2,2,0,0,0,1,2.54l8.82,3.75a2.38,2.38,0,0,0,1.78-.19A1.84,1.84,0,0,0,95,50,45,45,0,0,0,50,5Z"/><path class="cls-3" d="M91.72,61a1.89,1.89,0,0,0-2.34,1.22A41.19,41.19,0,0,1,8.94,53.28L15,56.66a1.87,1.87,0,0,0,1.78-3.28l-9-5.07a2.19,2.19,0,0,0-1.87,0A1.91,1.91,0,0,0,5,49.9,45,45,0,0,0,92.94,63.32,1.82,1.82,0,0,0,91.72,61Z"/></svg>