<svg id="图层_1" data-name="图层 1" xmlns="http://www.w3.org/2000/svg" xmlns:xlink="http://www.w3.org/1999/xlink" viewBox="0 0 100 100"><defs><style>.cls-1{fill:url(#未命名的渐变_24);}.cls-2{fill:url(#未命名的渐变_24-2);}.cls-3{fill:url(#未命名的渐变_24-3);}.cls-4{fill:url(#未命名的渐变_24-4);}.cls-5{fill:url(#未命名的渐变_24-5);}.cls-6{fill:url(#未命名的渐变_24-6);}</style><linearGradient id="未命名的渐变_24" x1="45.13" y1="36.7" x2="45.13" y2="14.57" gradientUnits="userSpaceOnUse"><stop offset="0" stop-color="#ffb86a"/><stop offset="1" stop-color="#ffd457"/></linearGradient><linearGradient id="未命名的渐变_24-2" x1="45.21" y1="50.49" x2="45.21" y2="29.83" xlink:href="#未命名的渐变_24"/><linearGradient id="未命名的渐变_24-3" x1="17.63" y1="43.2" x2="17.63" y2="43.19" xlink:href="#未命名的渐变_24"/><linearGradient id="未命名的渐变_24-4" x1="34.59" y1="63.79" x2="34.59" y2="43.2" xlink:href="#未命名的渐变_24"/><linearGradient id="未命名的渐变_24-5" x1="33.23" y1="77.58" x2="33.23" y2="57" xlink:href="#未命名的渐变_24"/><linearGradient id="未命名的渐变_24-6" x1="70.49" y1="86.57" x2="70.49" y2="48.43" xlink:href="#未命名的渐变_24"/></defs><title>个人中心-icon-svg</title><path class="cls-1" d="M31.38,35.22a64.72,64.72,0,0,0,27.5,0c8.51-2,13.76-5.63,13.76-9.59,0-6.11-12.32-11.06-27.51-11.06s-27.5,4.95-27.5,11.06h0C17.63,29.59,22.87,33.24,31.38,35.22Z"/><path class="cls-2" d="M72.78,40.16v-10c-.39,6-12.52,10.78-27.5,10.78s-27.65-5-27.65-11.07v9.54c0,6.15,12.33,11.12,27.5,11.12a49.2,49.2,0,0,0,10.13-.77h0A24.87,24.87,0,0,1,71,44,4.68,4.68,0,0,0,72.78,40.16Z"/><path class="cls-3" d="M17.63,43.19Z"/><path class="cls-4" d="M45.13,63.79h2c.24-3.35,2.06-6.88,4.4-9.76a54.9,54.9,0,0,1-6.41.42c-15.16,0-27.48-5-27.5-11.25v9.53C17.63,58.83,30,63.79,45.13,63.79Z"/><path class="cls-5" d="M45.1,68.05c-15.24,0-27.54-4.76-27.54-11v9.53c0,6.1,12.35,11,27.54,11h3.8c-1.58-2.77-2.06-5.85-2.06-9.53Z"/><path class="cls-6" d="M70.49,48.43A19.07,19.07,0,1,0,89.56,67.5,19.07,19.07,0,0,0,70.49,48.43Zm6.73,23-6.16,6.15a.79.79,0,0,1-1.13,0l-6.16-6.15a.8.8,0,0,1,.6-1.37l4.11.18v-11a2,2,0,0,1,4,0v11L76.62,70A.8.8,0,0,1,77.22,71.41Z"/></svg>