<svg id="图层_1" data-name="图层 1" xmlns="http://www.w3.org/2000/svg" xmlns:xlink="http://www.w3.org/1999/xlink" viewBox="0 0 100 100"><defs><style>.cls-1{fill:url(#未命名的渐变_24);}.cls-2{fill:url(#未命名的渐变_24-2);}.cls-3{fill:url(#未命名的渐变_24-3);}</style><linearGradient id="未命名的渐变_24" x1="44.77" y1="32.86" x2="44.77" y2="22.31" gradientUnits="userSpaceOnUse"><stop offset="0" stop-color="#ffb86a"/><stop offset="1" stop-color="#ffd457"/></linearGradient><linearGradient id="未命名的渐变_24-2" x1="77.47" y1="88.6" x2="77.47" y2="52.46" xlink:href="#未命名的渐变_24"/><linearGradient id="未命名的渐变_24-3" x1="44.77" y1="73.78" x2="44.77" y2="39.37" xlink:href="#未命名的渐变_24"/></defs><title>个人中心-icon-svg</title><path class="cls-1" d="M82,26.78a4.39,4.39,0,0,0-4.32-4.47H11.86a4.39,4.39,0,0,0-4.32,4.47v6.08H82Z"/><path class="cls-2" d="M77.47,52.46A18.07,18.07,0,1,0,95.54,70.53,18.08,18.08,0,0,0,77.47,52.46Zm5.8,15.66L79.37,68V78.42a1.91,1.91,0,0,1-3.81,0V68l-3.9.17a.76.76,0,0,1-.57-1.3L76.93,61A.75.75,0,0,1,78,61l5.84,5.83A.76.76,0,0,1,83.27,68.12Z"/><path class="cls-3" d="M77.47,47.76a22.7,22.7,0,0,1,4.54.46V39.37H7.54V69.31a4.39,4.39,0,0,0,4.32,4.47H55a21.81,21.81,0,0,1-.26-3.25,22.66,22.66,0,0,1,2.32-10c.12-.25.23-.51.36-.75s.33-.56.49-.83.39-.67.6-1,.5-.71.76-1.06l.41-.54A22.72,22.72,0,0,1,77.47,47.76ZM30.44,63H16.55V56.85H30.44Z"/></svg>