<svg id="图层_1" data-name="图层 1" xmlns="http://www.w3.org/2000/svg" xmlns:xlink="http://www.w3.org/1999/xlink" viewBox="0 0 100 100"><defs><style>.cls-1{fill:url(#未命名的渐变_24);}</style><linearGradient id="未命名的渐变_24" x1="50.44" y1="90.65" x2="50.44" y2="9.35" gradientUnits="userSpaceOnUse"><stop offset="0" stop-color="#ffb86a"/><stop offset="1" stop-color="#ffd457"/></linearGradient></defs><title>个人中心-icon-svg</title><path class="cls-1" d="M90.53,53.44h1.89l0-12.89A7.52,7.52,0,0,0,84.92,33L72.51,33,39.9,10.67a7.5,7.5,0,0,0-10.45,1.94l-4.88,7.24A7.54,7.54,0,0,0,18,24.94l-2.72,8a7.53,7.53,0,0,0-6.8,7.49l0,12.85h1.9a8.43,8.43,0,0,1,0,16.85H8.47L8.44,83A7.54,7.54,0,0,0,16,90.54l14.15,0V87.78h3.75v2.78l50.91.08a7.58,7.58,0,0,0,7.59-7.48l0-12.89H90.5a8.42,8.42,0,1,1,0-16.84Zm-58-38.73a3.84,3.84,0,0,1,5.22-1L65.89,33h-.71L28.61,20.56ZM33.88,82H30.13V76.25h3.75Zm0-11.58H30.15V64.66h3.75Zm0-11.58H30.17V53.08h3.75Zm0-11.58H30.19V41.46H34ZM34,35.7H30.21V32.91l-10.93,0,2.29-6.72a3.75,3.75,0,0,1,3.58-2.57,4,4,0,0,1,1.22.21L53.32,33,34,32.92ZM70.08,66.12a1.9,1.9,0,0,1,0,3.79H62.24v5a1.87,1.87,0,0,1-1.9,1.89,1.89,1.89,0,0,1-1.9-1.9v-5H51.38a1.9,1.9,0,0,1,0-3.79h7.08V63.66H51.39a1.9,1.9,0,1,1,0-3.79h6.72L50.44,49.79a1.89,1.89,0,0,1,3-2.31l6.89,9.07,6.46-9a1.87,1.87,0,1,1,3,2.2L62.5,59.88h7.59a1.9,1.9,0,0,1,0,3.79H62.25v2.44Z"/></svg>