<svg id="图层_1" data-name="图层 1" xmlns="http://www.w3.org/2000/svg" xmlns:xlink="http://www.w3.org/1999/xlink" viewBox="0 0 100 100"><defs><style>.cls-1{fill:url(#未命名的渐变_24);}.cls-2{fill:url(#未命名的渐变_24-2);}</style><linearGradient id="未命名的渐变_24" x1="50.4" y1="75.11" x2="50.4" y2="23.69" gradientUnits="userSpaceOnUse"><stop offset="0" stop-color="#ffb86a"/><stop offset="1" stop-color="#ffd457"/></linearGradient><linearGradient id="未命名的渐变_24-2" x1="50.4" y1="94.4" x2="50.4" y2="4.4" xlink:href="#未命名的渐变_24"/></defs><title>个人中心-icon-svg</title><path class="cls-1" d="M24.69,49.4A25.71,25.71,0,1,0,50.4,23.69,25.71,25.71,0,0,0,24.69,49.4Zm0,0"/><path class="cls-2" d="M50.4,17.26A3.22,3.22,0,0,1,47.19,14V7.62a3.21,3.21,0,1,1,6.42,0V14a3.22,3.22,0,0,1-3.21,3.22ZM82.54,49.4a3.22,3.22,0,0,1,3.22-3.21h6.43a3.21,3.21,0,1,1,0,6.42H85.76a3.22,3.22,0,0,1-3.22-3.21ZM44,91.19A3.23,3.23,0,0,1,47.19,88h6.42a3.22,3.22,0,1,1,0,6.43H47.19A3.23,3.23,0,0,1,44,91.19Zm-6.43-9.65a3.23,3.23,0,0,1,3.22-3.21H60a3.22,3.22,0,1,1,0,6.43H40.76a3.23,3.23,0,0,1-3.22-3.22ZM5.4,49.4a3.22,3.22,0,0,1,3.22-3.21H15a3.21,3.21,0,1,1,0,6.42H8.62A3.22,3.22,0,0,1,5.4,49.4ZM15.54,21a3.22,3.22,0,0,1,4.54,0l4.54,4.55a3.21,3.21,0,1,1-4.54,4.54l-4.54-4.54a3.21,3.21,0,0,1,0-4.55Zm60.64,9.09a3.22,3.22,0,0,1,0-4.54L80.72,21a3.21,3.21,0,1,1,4.54,4.55l-4.54,4.54a3.22,3.22,0,0,1-4.54,0Zm0,0"/></svg>