<svg id="图层_1" data-name="图层 1" xmlns="http://www.w3.org/2000/svg" xmlns:xlink="http://www.w3.org/1999/xlink" viewBox="0 0 100 100"><defs><style>.cls-1{fill:url(#未命名的渐变_24);}.cls-2{fill:url(#未命名的渐变_24-2);}</style><linearGradient id="未命名的渐变_24" x1="52.03" y1="95.33" x2="52.03" y2="58.71" gradientUnits="userSpaceOnUse"><stop offset="0" stop-color="#ffb86a"/><stop offset="1" stop-color="#ffd457"/></linearGradient><linearGradient id="未命名的渐变_24-2" x1="51.66" y1="55.57" x2="51.66" y2="7.68" xlink:href="#未命名的渐变_24"/></defs><title>个人中心-icon-svg</title><path class="cls-1" d="M86.76,83.21C84,73.46,77.87,66.14,70,60c-3.13-2.44-4.61-1.3-5.92,1.66-2.18,5-4.35,9.93-6.71,15.24-2.17-4.79-3.22-9.06-.87-13.67.35-.7-.61-3.05-1.39-3.23a11,11,0,0,0-5.58.18c-.69.26-1.39,2.78-1,3.66,2.44,4.35.78,8.18-1.4,13-2.44-5.66-4.53-10.62-6.7-15.41-.61-1.66-.88-2.79-3.14-1.83C26.83,64.05,20,71.8,17.6,83c-1.48,6.88-.35,8.62,6.62,9.93a147.22,147.22,0,0,0,43.29,1.39,79.37,79.37,0,0,0,14.11-3C85.71,90.18,87.8,86.78,86.76,83.21Z"/><path class="cls-2" d="M46.78,54.91c1.65,1,9,.79,10.45,0C65.94,50.3,70,46.36,74,37.21c.53-1.13.35-3.14-.26-3.75-2-1.74-2.26-3.74-2.17-6.18.26-11.67-9.85-19.08-19.78-19.6C42.16,8.81,36.15,12.3,33.1,22.31c-1.13,3.58.35,7.93-3.66,10.63-.61.35-.43,3,.18,3.92C35.28,44.09,35.45,49.69,46.78,54.91Z"/></svg>