<svg id="图层_1" data-name="图层 1" xmlns="http://www.w3.org/2000/svg" xmlns:xlink="http://www.w3.org/1999/xlink" viewBox="0 0 100 100"><defs><style>.cls-1{fill:url(#未命名的渐变_24);}.cls-2{fill:url(#未命名的渐变_24-2);}.cls-3{fill:url(#未命名的渐变_24-3);}.cls-4{fill:url(#未命名的渐变_24-4);}</style><linearGradient id="未命名的渐变_24" x1="49.82" y1="67.16" x2="49.82" y2="34.16" gradientUnits="userSpaceOnUse"><stop offset="0" stop-color="#ffb86a"/><stop offset="1" stop-color="#ffd457"/></linearGradient><linearGradient id="未命名的渐变_24-2" x1="49.62" y1="78.71" x2="49.62" y2="21.63" xlink:href="#未命名的渐变_24"/><linearGradient id="未命名的渐变_24-3" x1="51.48" y1="51.87" x2="51.48" y2="4.95" xlink:href="#未命名的渐变_24"/><linearGradient id="未命名的渐变_24-4" x1="49.03" y1="94.95" x2="49.03" y2="48.1" xlink:href="#未命名的渐变_24"/></defs><title>个人中心-icon-svg</title><ellipse class="cls-1" cx="49.82" cy="50.66" rx="16.48" ry="16.5"/><path class="cls-2" d="M77.83,46.14A28.5,28.5,0,1,0,49.56,78.71a29.57,29.57,0,0,0,4.08-.29A28.51,28.51,0,0,0,77.83,46.14ZM61.71,73.06,60.62,72a1.91,1.91,0,0,1,0-2.74l8.31-8.16a2,2,0,0,1,2.79,0l.9.88A25.83,25.83,0,0,1,61.71,73.06ZM34.1,70.87a25.69,25.69,0,0,1-7.33-8.56l.91-.89a2,2,0,0,1,2.79,0l8.32,8.16a1.93,1.93,0,0,1,0,2.74l-.93.9A25.91,25.91,0,0,1,34.1,70.87ZM24,53.83a25.87,25.87,0,0,1,.77-10.92h1.63a2,2,0,0,1,2,1.92v11.5a2,2,0,0,1-2,1.92H25.05A27.3,27.3,0,0,1,24,53.83ZM37.34,27.39l1.5,1.5a1.91,1.91,0,0,1,0,2.74l-8.31,8.16a2,2,0,0,1-2.79,0l-1.23-1.23a26.27,26.27,0,0,1,2.43-3.92A25.57,25.57,0,0,1,37.34,27.39Zm27.79,2.08a25.76,25.76,0,0,1,7.75,9.41l-1.27,1.24a2,2,0,0,1-2.79,0L60.56,32a1.91,1.91,0,0,1,0-2.74l1.67-1.62A25.54,25.54,0,0,1,65.13,29.47Zm3.36,21.11A18.82,18.82,0,1,1,49.67,32.12,18.64,18.64,0,0,1,68.49,50.58ZM57.66,28.13a1.94,1.94,0,0,1-2,1.91H44a2,2,0,0,1-2-1.91v-2.7a26,26,0,0,1,7.66-1.14,25.41,25.41,0,0,1,8,1.28ZM42,74.92V73.63a2,2,0,0,1,2-1.91H55.75a2,2,0,0,1,2,1.91v1.12a26.65,26.65,0,0,1-4.45,1A25.72,25.72,0,0,1,42,74.92ZM72.92,58.3a2,2,0,0,1-2-1.92V44.88a2,2,0,0,1,2-1.91h1.53a26,26,0,0,1-.28,15.33Z"/><path class="cls-3" d="M50,5A44.74,44.74,0,0,0,8.09,33.48a1.91,1.91,0,0,0,1,2.44,1.89,1.89,0,0,0,2.43-1,41.28,41.28,0,0,1,79.6,12.2l-6.1-2.63a2,2,0,0,0-2.53,1,2,2,0,0,0,1,2.54l8.82,3.75a2.38,2.38,0,0,0,1.78-.19A1.84,1.84,0,0,0,95,50,45,45,0,0,0,50,5Z"/><path class="cls-4" d="M91.72,61a1.89,1.89,0,0,0-2.34,1.22A41.19,41.19,0,0,1,8.94,53.28L15,56.66a1.87,1.87,0,0,0,1.78-3.28l-9-5.07a2.19,2.19,0,0,0-1.87,0A1.91,1.91,0,0,0,5,49.9,45,45,0,0,0,92.94,63.32,1.82,1.82,0,0,0,91.72,61Z"/></svg>