<svg id="图层_1" data-name="图层 1" xmlns="http://www.w3.org/2000/svg" xmlns:xlink="http://www.w3.org/1999/xlink" viewBox="0 0 100 100"><defs><style>.cls-1{fill:url(#未命名的渐变_24);}.cls-2{fill:url(#未命名的渐变_24-2);}.cls-3{fill:url(#未命名的渐变_24-3);}</style><linearGradient id="未命名的渐变_24" x1="49.84" y1="80.92" x2="49.84" y2="18.65" gradientUnits="userSpaceOnUse"><stop offset="0" stop-color="#ffb86a"/><stop offset="1" stop-color="#ffd457"/></linearGradient><linearGradient id="未命名的渐变_24-2" x1="51.48" y1="51.87" x2="51.48" y2="4.95" xlink:href="#未命名的渐变_24"/><linearGradient id="未命名的渐变_24-3" x1="49.03" y1="94.95" x2="49.03" y2="48.1" xlink:href="#未命名的渐变_24"/></defs><title>个人中心-icon-svg</title><path class="cls-1" d="M49.84,18.65a31.14,31.14,0,1,0,31.1,31.14A31.12,31.12,0,0,0,49.84,18.65ZM60.6,54.83a2.19,2.19,0,0,1,0,4.37l-9,0V64.9a2.14,2.14,0,0,1-2.18,2.18A2.17,2.17,0,0,1,47.2,64.9V59.17H39.06a2.18,2.18,0,1,1,0-4.36h8.15V52l-8.15,0a2.18,2.18,0,1,1,0-4.36h7.74L38,36a2.18,2.18,0,0,1,3.45-2.66l7.94,10.44,7.44-10.42a2.16,2.16,0,1,1,3.49,2.53L51.87,47.64l8.75,0a2.18,2.18,0,1,1,0,4.36h-9v2.81Z"/><path class="cls-2" d="M50,5A44.74,44.74,0,0,0,8.09,33.48a1.91,1.91,0,0,0,1,2.44,1.89,1.89,0,0,0,2.43-1,41.28,41.28,0,0,1,79.6,12.2l-6.1-2.63a2,2,0,0,0-2.53,1,2,2,0,0,0,1,2.54l8.82,3.75a2.38,2.38,0,0,0,1.78-.19A1.84,1.84,0,0,0,95,50,45,45,0,0,0,50,5Z"/><path class="cls-3" d="M91.72,61a1.89,1.89,0,0,0-2.34,1.22A41.19,41.19,0,0,1,8.94,53.28L15,56.66a1.87,1.87,0,0,0,1.78-3.28l-9-5.07a2.19,2.19,0,0,0-1.87,0A1.91,1.91,0,0,0,5,49.9,45,45,0,0,0,92.94,63.32,1.82,1.82,0,0,0,91.72,61Z"/></svg>