<svg id="图层_1" data-name="图层 1" xmlns="http://www.w3.org/2000/svg" xmlns:xlink="http://www.w3.org/1999/xlink" viewBox="0 0 100 100"><defs><style>.cls-1{fill:url(#未命名的渐变_24);}.cls-2{fill:url(#未命名的渐变_24-2);}.cls-3{fill:url(#未命名的渐变_24-3);}</style><linearGradient id="未命名的渐变_24" x1="80.64" y1="81.82" x2="80.64" y2="44.86" gradientUnits="userSpaceOnUse"><stop offset="0" stop-color="#ffb86a"/><stop offset="1" stop-color="#ffd457"/></linearGradient><linearGradient id="未命名的渐变_24-2" x1="45.57" y1="71.52" x2="45.57" y2="20.37" xlink:href="#未命名的渐变_24"/><linearGradient id="未命名的渐变_24-3" x1="34.54" y1="40.41" x2="34.54" y2="33.84" xlink:href="#未命名的渐变_24"/></defs><title>个人中心-icon-svg</title><path class="cls-1" d="M80.64,44.86A18.48,18.48,0,1,0,99.12,63.34,18.48,18.48,0,0,0,80.64,44.86ZM77.09,71.41a2,2,0,0,1-3.9,0V60.7l-4,.18a.78.78,0,0,1-.58-1.33l6-6a.78.78,0,0,1,1.1,0l6,6a.78.78,0,0,1-.58,1.33l-4-.18Zm15.57-4.29-6,6a.77.77,0,0,1-1.1,0l-6-6a.77.77,0,0,1,.58-1.32l4,.17V55.26a2,2,0,0,1,3.91,0V66l4-.17A.77.77,0,0,1,92.66,67.12Z"/><path class="cls-2" d="M80.64,40.45c.46,0,.91,0,1.37.07L82,26.77a6.25,6.25,0,0,0-2-4.59,6.42,6.42,0,0,0-2.12-1.34,7.19,7.19,0,0,0-2.6-.47l-34.2.16.07,16.57a6.35,6.35,0,0,1-1,3.91A6.06,6.06,0,0,1,37.89,43a8.07,8.07,0,0,1-3.35.82,6.3,6.3,0,0,1-4.69-1.91,6.47,6.47,0,0,1-1.91-4.71l-.07-16.57-12.13.07a6.36,6.36,0,0,0-6.62,6.67L9.28,64.9A6.61,6.61,0,0,0,16,71.52l43.26-.21A22.85,22.85,0,0,1,80.64,40.45Z"/><path class="cls-3" d="M34.52,40.41a3.27,3.27,0,0,0,2.37-1,3.27,3.27,0,0,0,0-4.67,3.31,3.31,0,0,0-2.38-.94,3.22,3.22,0,0,0-2.33,1,3.19,3.19,0,0,0-.94,2.34,3.24,3.24,0,0,0,3.3,3.27Z"/></svg>