<?xml version="1.0" encoding="utf-8"?>
<!-- Generator: Adobe Illustrator 22.1.0, SVG Export Plug-In . SVG Version: 6.00 Build 0)  -->
<svg version="1.1" id="图层_1" xmlns="http://www.w3.org/2000/svg" xmlns:xlink="http://www.w3.org/1999/xlink" x="0px" y="0px"
	 viewBox="0 0 100 100" style="enable-background:new 0 0 100 100;" xml:space="preserve">
<style type="text/css">
	.st0{fill:#2C2C34;}
	.st1{fill:#FFFFFF;}
</style>
<g>
	<polygon class="st0" points="100,99.3 100,56 44,0 0.7,0 	"/>
</g>
<g>
	<path class="st1" d="M32.5,19c0.3,0.2,0.6,0.1,0.7,0l9.6-9.6l4.6,4.6l-5.8,5.8l-4-4l-4,4c1.6,0.9,3.1,1.6,4.4,2.2
		c0.2-0.8,0.4-1.6,0.6-2.4l0.9,0.2c-0.4,2.1-0.9,3.8-1.4,5.2l-0.9-0.2c0.2-0.6,0.4-1.2,0.6-1.9c-1.8-0.7-3.8-1.7-5.8-3L32.5,19z
		 M41.6,26.7l0.5-0.9l1.1,1.2c0.4,0.4,0.7,0.4,1.1,0l7.4-7.4L49.2,17L38.8,27.3l-0.7-0.7l11-11l4,4l-8.2,8.2c-0.7,0.7-1.3,0.7-2,0
		L41.6,26.7z M38.4,15.2l3.3,3.3l2-2l-3.3-3.3L38.4,15.2z M46.2,14l-3.3-3.3L41,12.6l3.3,3.3L46.2,14z"/>
	<path class="st1" d="M58.8,24.2L47.2,35.8l-0.7-0.7l4.4-4.4c-1.7-0.1-3.2-0.2-4.5-0.5l0.4-1c1.2,0.3,2.9,0.5,4.9,0.6l6.3-6.3
		L58.8,24.2z M58.4,36.3l1.3-1.3l0.7,0.7L59.1,37l1.6,1.6l-0.7,0.7l-1.6-1.6l-3.6,3.6c-0.7,0.7-1.4,0.7-2.1-0.1L51,39.5l0.5-0.8
		c0.5,0.6,1,1.1,1.5,1.6c0.4,0.4,0.9,0.5,1.3,0.1l3.4-3.4L52.8,32l0.7-0.7L58.4,36.3z M53.2,38l-0.9-0.2c0.2-1.1,0.4-2.3,0.5-3.8
		l0.8,0.2C53.6,35.7,53.4,37,53.2,38z M53.3,27.2l-0.9-0.3c0.5-1.5,0.9-3,1.1-4.4l0.8,0.4C54.2,24.3,53.8,25.8,53.3,27.2z
		 M56.5,28.7l0.1-1c2.1,0.7,4.1,0.7,5.8,0l0.6,0.8c-0.4,0.2-0.9,0.3-1.3,0.4l3.8,3.8l-0.6,0.6c-2.7,1.1-6,0.4-10-2l0.3-1
		c1.3,0.8,2.6,1.4,3.7,1.9c0-0.9-0.1-1.7-0.2-2.5l0.9,0.1c0.1,0.9,0.2,1.7,0.2,2.6c1.6,0.5,3.1,0.5,4.4,0.1l-3.5-3.5
		C59.2,29.3,57.9,29.1,56.5,28.7z"/>
	<path class="st1" d="M63.1,51.2c-0.8-0.9-1.5-1.7-1.8-2.3c-0.4-0.7-0.5-1.5-0.5-2.4c0.1-0.4,0-0.7-0.2-0.9
		c-0.3-0.3-1.5-0.3-3.5,0.1l-0.1-1c1.8-0.4,3.1-0.4,3.8-0.1l4.1-4.1l-1.9-1.9l0.7-0.7l2.6,2.6l-4.8,4.8c0.1,0.2,0.1,0.5,0.1,0.8
		c-0.1,0.7,0,1.4,0.3,1.9c0.3,0.6,0.8,1.3,1.6,2.1c0.6,0.7,1.5,1.6,2.5,2.6c0.5,0.5,1.1,1.1,1.7,1.6c0.6,0.5,1,0.9,1.3,1.2l-0.9,0.5
		l-2.7-2.7C64.7,52.8,64,52,63.1,51.2z M64.9,49.7l0.5-0.8c0.6,0.6,1.1,1.2,1.7,1.8c0.4,0.4,0.8,0.4,1.1,0l5.7-5.7l-4.8-4.8l0.7-0.7
		l4.8,4.8l2.1-2.1l0.7,0.7L75.3,45l1.9,1.9l-0.7,0.7l-1.9-1.9l-5.8,5.8c-0.7,0.7-1.3,0.6-2,0L64.9,49.7z M68.4,47.1l-1-0.2
		c0.3-1.2,0.5-2.7,0.7-4.5l0.9,0.2C68.9,44.5,68.7,45.9,68.4,47.1z M68.9,38.8h-1c0.1-1.2,0.1-2.6-0.1-4.2l0.9,0
		C69,36.1,69,37.6,68.9,38.8z"/>
	<path class="st1" d="M74,57.7c-1.4,0.4-2.8,0.6-4.1,0.6l-0.2-0.9c1.3,0,2.6-0.2,4-0.6L74,57.7z M82.6,48l-1.5,1.5l2.7,2.7l1.5-1.5
		l0.7,0.7l-1.5,1.5l0.9,0.9l-0.6,0.6l-0.9-0.9l-5.6,5.6l0.9,0.9l-0.6,0.6l-6-6l0.6-0.6l1,1l5.6-5.6l-0.9-0.9l0.6-0.6l0.9,0.9
		l1.5-1.5L82.6,48z M75.3,62.7l-1-0.2c0.3-1,0.5-2.2,0.7-3.5l0.9,0.2C75.8,60.6,75.6,61.7,75.3,62.7z M77.5,58.5L79,57l-2.7-2.7
		l-1.5,1.5L77.5,58.5z M75.3,63.8l-0.1-1c2.2-0.3,4.2-1.4,6.2-3.3l5.9-5.9l4,4l-10,10c-0.6,0.6-1.3,0.6-2-0.1l-1.4-1.4l0.5-0.8
		c0.5,0.5,0.9,0.9,1.3,1.3c0.4,0.4,0.8,0.4,1.1,0l2.8-2.8L81,61.2C79.1,62.7,77.2,63.6,75.3,63.8z M79.6,56.4l1.4-1.4l-2.7-2.7
		l-1.4,1.4L79.6,56.4z M80.4,50.2L79,51.6l2.7,2.7l1.5-1.5L80.4,50.2z M82.1,60.2c-0.2,0.2-0.3,0.3-0.4,0.4l2.6,2.6l2.5-2.5
		l-2.6-2.6L82.1,60.2z M89.9,57.6L87.3,55l-2.4,2.4l2.6,2.6L89.9,57.6z"/>
</g>
</svg>
