<?xml version="1.0" encoding="utf-8"?>
<!-- Generator: Adobe Illustrator 22.1.0, SVG Export Plug-In . SVG Version: 6.00 Build 0)  -->
<svg version="1.1" id="图层_1" xmlns="http://www.w3.org/2000/svg" xmlns:xlink="http://www.w3.org/1999/xlink" x="0px" y="0px"
	 viewBox="0 0 100 100" style="enable-background:new 0 0 100 100;" xml:space="preserve">
<style type="text/css">
	.st0{fill:#FFCD00;}
</style>
<path class="st0" d="M77.9,93.5c-0.4,0-0.8-0.1-1.2-0.3L50,78.5L23.4,93.2c-0.8,0.4-1.9,0.4-2.7-0.2s-1.2-1.6-1.1-2.5L24.5,61
	L5.1,41.6c-0.6-0.6-1-1.7-0.6-2.5c0.3-1,1.1-1.6,2-1.7l29.2-4.9L47.8,8.1C48.2,7,49,6.5,50,6.5s1.8,0.5,2.2,1.4l12.1,24.4l29.2,5
	c1,0.1,1.7,0.8,2,1.7c0.3,1,0,1.9-0.6,2.5L75.6,61.1l4.9,29.4c0.1,1-0.2,1.9-1.1,2.5C79,93.3,78.4,93.5,77.9,93.5z"/>
</svg>
