<?xml version="1.0" encoding="utf-8"?>
<!-- Generator: Adobe Illustrator 22.1.0, SVG Export Plug-In . SVG Version: 6.00 Build 0)  -->
<svg version="1.1" id="图层_1" xmlns="http://www.w3.org/2000/svg" xmlns:xlink="http://www.w3.org/1999/xlink" x="0px" y="0px"
	 viewBox="0 0 100 100" style="enable-background:new 0 0 100 100;" xml:space="preserve">
<style type="text/css">
	.st0{fill:#C5C5C5;}
</style>
<path class="st0" d="M76.3,91c-0.4,0-0.8-0.1-1.1-0.3L50,76.9L24.9,90.7c-0.8,0.4-1.8,0.4-2.5-0.2c-0.7-0.6-1.1-1.5-1-2.4L26,60.4
	L7.7,42.1c-0.6-0.6-0.9-1.6-0.6-2.4c0.3-0.9,1-1.5,1.9-1.6l27.5-4.6l11.4-23C48.3,9.5,49.1,9,50,9s1.7,0.5,2.1,1.3l11.4,23L91,38
	c0.9,0.1,1.6,0.8,1.9,1.6c0.3,0.9,0,1.8-0.6,2.4L74.1,60.5l4.6,27.7c0.1,0.9-0.2,1.8-1,2.4C77.3,90.8,76.8,91,76.3,91z"/>
</svg>
