<?xml version="1.0" encoding="utf-8"?>
<!-- Generator: Adobe Illustrator 22.1.0, SVG Export Plug-In . SVG Version: 6.00 Build 0)  -->
<svg version="1.1" id="图层_1" xmlns="http://www.w3.org/2000/svg" xmlns:xlink="http://www.w3.org/1999/xlink" x="0px" y="0px"
	 viewBox="0 0 750 200" style="enable-background:new 0 0 750 200;" xml:space="preserve">
<style type="text/css">
	.st0{fill:none;stroke:#8A939B;stroke-width:0.25;stroke-miterlimit:10;}
	.st1{fill:#777;}
</style>
<g>
	<path class="st0" d="M263,101c0,0-53.7,0-120,0s-120,0-120,0s53.7,0,120,0S263,101,263,101z"/>
	<path class="st0" d="M727,101c0,0-53.7,0-120,0s-120,0-120,0s53.7,0,120,0S727,101,727,101z"/>
</g>
<g>
	<g>
		<path class="st1" d="M306,91.6h-4.3c-0.3,0-0.5,0-0.6-0.1c-0.1-0.1-0.1-0.2-0.1-0.5c0-0.3,0-0.4,0.1-0.5c0.1-0.1,0.3-0.1,0.6-0.1
			h4.3c0-0.3,0-0.7,0-1.2c0-0.5,0-1.2,0-2c0-0.5,0.2-0.7,0.6-0.7c0.4,0,0.7,0.2,0.7,0.7c0,0.4,0,0.8,0,1.4c0,0.5,0,1.2,0,1.9h3.6
			c1.1,0,1.9,0.1,2.4,0.2c0.5,0.1,0.8,0.3,0.9,0.7c0.2,0.4,0.3,1,0.3,1.9c0,0.5,0,1.2,0,2.2c0,1,0,2.3,0,4c0,1.6,0,3.1,0,4.4
			c0,1.3-0.1,2.5-0.1,3.5c-0.1,2-0.3,3.5-0.7,4.4c-0.4,0.9-0.9,1.6-1.5,2.1c-0.7,0.5-1.4,0.7-2.2,0.7c-0.8,0-1.8-0.2-2.9-0.5
			c-1.1-0.3-1.7-0.6-1.7-1c0-0.3,0.1-0.5,0.3-0.6c0.2-0.1,0.6-0.1,1.1,0.1c1.1,0.5,2.1,0.7,2.8,0.7c0.8,0,1.4-0.2,1.9-0.6
			c0.5-0.3,0.9-1,1.2-1.9c0.3-0.8,0.5-2.5,0.6-5.1c0.1-2.5,0.1-5,0.1-7.4c0-2.4,0-4.1-0.1-4.9c-0.1-0.8-0.2-1.3-0.5-1.5
			c-0.2-0.2-0.8-0.3-1.7-0.3h-3.8c-0.5,8.4-1.3,14.3-2.7,17.7c-1.3,3.4-2.3,5.1-2.9,5.1c-0.1,0-0.2-0.1-0.3-0.1
			c-0.1,0-0.2-0.1-0.3-0.2c-0.1-0.1-0.1-0.3,0-0.5c0-0.2,0.2-0.5,0.5-0.8c1.4-2.1,2.4-4.8,3-8C305.2,101.4,305.7,97,306,91.6z
			 M327.1,111.5c0,0.5,0,0.9-0.1,1.2c-0.1,0.3-0.2,0.6-0.3,0.7c-0.2,0.2-0.4,0.3-0.7,0.4c-0.3,0.1-0.7,0.1-1.1,0.1h-5.2
			c-0.4,0-0.8,0-1.1-0.1c-0.3-0.1-0.5-0.2-0.7-0.3c-0.2-0.2-0.3-0.4-0.3-0.7c-0.1-0.3-0.1-0.7-0.1-1.2V91.3c0-0.5,0-0.9,0.1-1.2
			c0-0.3,0.2-0.6,0.3-0.7c0.2-0.2,0.4-0.3,0.7-0.4c0.3-0.1,0.7-0.1,1.2-0.1h5.2c0.4,0,0.8,0,1.1,0.1c0.3,0.1,0.5,0.2,0.7,0.3
			c0.2,0.2,0.3,0.4,0.4,0.7c0.1,0.3,0.1,0.7,0.1,1.2V111.5z M325.8,111.6V91.2c0-0.7-0.3-1.1-1-1.1h-5.2c-0.6,0-0.9,0.4-0.9,1.1
			v20.4c0,0.3,0.1,0.6,0.3,0.8c0.2,0.2,0.4,0.3,0.7,0.3h5.2C325.4,112.7,325.8,112.3,325.8,111.6z"/>
		<path class="st1" d="M340.5,93.9h9.2c-0.1-1.6-0.2-3-0.3-4.1c-0.1-1.1-0.1-1.9-0.1-2.5c0-0.6,0.2-0.8,0.6-0.8
			c0.4,0,0.6,0.3,0.6,0.9c0,0.8,0.1,1.7,0.1,2.8c0.1,1.1,0.2,2.3,0.3,3.7h7.3c0.2,0,0.4,0.1,0.5,0.2c0.1,0.1,0.1,0.3,0.1,0.6
			c0,0.3-0.2,0.5-0.6,0.5h-7.2c0.4,4.3,0.9,7.6,1.6,10c1.8-2.6,3-5.2,3.5-7.7c0.1-0.5,0.3-0.7,0.7-0.7c0.4,0,0.6,0.2,0.6,0.7
			c0,0.4-0.4,1.6-1.1,3.4c-0.4,0.9-0.8,1.9-1.4,2.8c-0.5,1-1.1,2-1.9,3c0.6,1.6,1.2,2.9,2,4.1c0.8,1.2,1.3,1.8,1.6,1.8
			c0.4,0,0.8-1.5,1.1-4.5c0.1-0.5,0.2-0.7,0.5-0.7c0.4,0,0.6,0.3,0.6,0.8c0,0.9-0.2,2-0.6,3.6c-0.4,1.5-0.6,2.4-0.8,2.6
			c-0.1,0.2-0.4,0.3-0.7,0.3c-0.3,0-0.7-0.2-1-0.6c-0.3-0.4-0.9-1.1-1.6-2.3c-0.4-0.6-0.7-1.2-1-1.8c-0.3-0.7-0.6-1.4-0.9-2.1
			c-1.1,1.3-2.3,2.5-3.5,3.6c-1.2,1.1-2,1.8-2.2,1.9c-0.2,0.1-0.4,0.2-0.6,0.2c-0.1,0-0.2,0-0.3-0.1c-0.1-0.1-0.2-0.2-0.2-0.3
			c0-0.1,0-0.3,0-0.4c0-0.2,0.2-0.3,0.4-0.5c2.5-1.9,4.4-3.9,5.8-5.8c-0.9-3.1-1.6-6.8-2-11.1h-18.3c-0.4,0-0.6-0.2-0.6-0.5
			c0-0.3,0-0.5,0.1-0.6c0.1-0.1,0.2-0.1,0.5-0.1h7.8v-3.3h-6.2c-0.4,0-0.6-0.2-0.6-0.5c0-0.3,0-0.5,0.1-0.6c0.1-0.1,0.2-0.1,0.5-0.1
			h6.2v-2.1c0-0.4,0.2-0.6,0.6-0.6c0.4,0,0.6,0.2,0.6,0.6v2.1h6.7c0.2,0,0.4,0.1,0.5,0.2c0.1,0.1,0.1,0.3,0.1,0.6
			c0,0.3-0.2,0.5-0.6,0.5h-6.7V93.9z M336.4,99.5h-3.8c-0.4,0-0.6-0.2-0.6-0.6s0.2-0.6,0.6-0.6h4.6c0.2-0.3,0.4-0.7,0.6-1
			c0.2-0.3,0.3-0.6,0.5-0.8c0.3-0.6,0.6-0.9,0.8-0.9c0.2,0,0.4,0.1,0.5,0.2c0.1,0.1,0.2,0.2,0.2,0.4c0,0.1,0,0.1,0,0.2
			c0,0.1-0.1,0.2-0.2,0.4c-0.1,0.2-0.2,0.3-0.4,0.6c-0.2,0.2-0.4,0.6-0.6,0.9h7.8c0.4,0,0.6,0.2,0.6,0.6s-0.2,0.6-0.6,0.6h-8.6
			c-0.5,0.7-1,1.4-1.5,2c-0.5,0.6-0.9,1.1-1.3,1.6c-0.2,0.2-0.3,0.4-0.3,0.5c0,0.3,0.4,0.5,1.1,0.5h4v-2.8c0-0.4,0.2-0.6,0.6-0.6
			c0.4,0,0.6,0.2,0.6,0.6v2.8h4.9c0.3,0,0.5,0.2,0.5,0.6c0,0.4-0.2,0.6-0.5,0.6h-4.9v3.5c1-0.1,2-0.2,3-0.3s2-0.2,3-0.3
			c0.3,0,0.5,0.2,0.5,0.5c0,0.3-0.2,0.6-0.6,0.7c-0.2,0-0.8,0.1-1.7,0.2c-1,0.1-2.3,0.2-4.1,0.4v4.2c0,0.4-0.2,0.6-0.6,0.6
			c-0.4,0-0.6-0.2-0.6-0.6V110c-1.9,0.2-3.5,0.3-4.9,0.4c-1.3,0.1-2.3,0.1-3,0.1c-0.5,0-0.8-0.2-0.8-0.6c0-0.2,0.1-0.4,0.2-0.5
			c0.1-0.1,0.4-0.1,0.7-0.1c1.9,0,4.5-0.2,7.8-0.5v-3.6h-3.9c-0.7,0-1.3-0.1-1.7-0.2c-0.4-0.1-0.7-0.3-0.9-0.5
			c-0.2-0.2-0.2-0.5-0.2-0.7c0-0.3,0.2-0.5,0.4-0.8c0.5-0.6,1-1.2,1.5-1.8C335.6,100.6,336,100.1,336.4,99.5z M357.8,92
			c0,0.1,0,0.2-0.1,0.3c-0.1,0.1-0.2,0.2-0.3,0.2c-0.1,0-0.3,0-0.5,0c-0.2-0.1-0.4-0.2-0.6-0.5c-1-1.2-2.1-2.3-3.3-3.3
			c-0.2-0.2-0.3-0.3-0.4-0.5c0-0.2,0-0.3,0-0.4c0-0.1,0.1-0.2,0.2-0.3c0.1-0.1,0.2-0.1,0.3-0.1c0.2,0,0.4,0.2,0.8,0.5
			c0.4,0.3,0.9,0.9,1.7,1.6c0.8,0.8,1.3,1.3,1.6,1.6C357.6,91.5,357.8,91.8,357.8,92z"/>
		<path class="st1" d="M374.9,96.2c-0.7-1.4-1.5-2.8-2.3-4c-0.2-0.3-0.3-0.5-0.2-0.6c0-0.2,0.1-0.3,0.2-0.4c0.1-0.1,0.2-0.1,0.4-0.1
			c0.2,0,0.3,0.1,0.4,0.1c0.1,0.1,0.3,0.4,0.7,0.9c0.3,0.5,0.7,1.2,1.1,2c0.3,0.6,0.6,1.2,1,1.8c0.3,0.7,0.6,1.3,0.9,1.9
			c0.3,0.6,0.5,1.1,0.7,1.6c0.2,0.4,0.3,0.7,0.3,0.9c0,0.4-0.2,0.6-0.6,0.6c-0.3,0-0.6-0.3-0.8-0.8c-0.3-1-0.7-1.9-1.2-2.7l-5.3,0.5
			v5.9h6.4c0.4,0,0.6,0.2,0.6,0.6c0,0.4-0.2,0.6-0.6,0.6h-6.4v6.9c1.2-0.1,2.4-0.3,3.7-0.4c1.2-0.1,2.5-0.3,3.7-0.5
			c0.5,0,0.8,0.2,0.8,0.6c0,0.2,0,0.3-0.1,0.4c-0.1,0.1-0.2,0.2-0.3,0.2c-0.2,0.1-0.7,0.2-1.6,0.2l-10.6,1.1
			c-2.5,0.2-3.8,0.4-4.1,0.4c-0.3,0-0.4-0.1-0.5-0.2c-0.1-0.1-0.1-0.3-0.1-0.5c0-0.4,0.5-0.6,1.4-0.7c1,0,3.2-0.2,6.5-0.5v-7h-6.5
			c-0.4,0-0.5-0.2-0.5-0.6c0-0.4,0.2-0.6,0.5-0.6h6.5v-5.8l-4.5,0.4c-1.5,0.1-2.2-0.2-2.2-0.8c0-0.3,0.2-0.7,0.6-1.3
			c0.9-1.2,1.7-2.3,2.5-3.5c0.8-1.1,1.5-2.3,2.1-3.4h-5.5c-0.3,0-0.5-0.2-0.5-0.6c0-0.4,0.2-0.6,0.5-0.6H378c0.3,0,0.5,0.2,0.5,0.6
			c0,0.4-0.2,0.6-0.5,0.6h-9.4c-0.6,1.2-1.7,3-3.4,5.5c-0.9,1.4-1.4,2.1-1.4,2.2c0,0.1,0.1,0.1,0.4,0.1L374.9,96.2z M387.2,111.1
			c0,1-0.1,1.6-0.2,2c-0.1,0.4-0.4,0.7-0.8,1c-0.3,0.2-0.6,0.4-1,0.4c-0.4,0-0.8,0-1.2,0c-0.4-0.1-0.9-0.2-1.4-0.4
			c-0.5-0.2-1-0.4-1.6-0.6c-0.7-0.3-1.1-0.5-1.1-0.5c-0.1-0.1-0.1-0.2-0.1-0.3c0-0.1,0-0.2,0.1-0.4c0.1-0.1,0.2-0.2,0.3-0.3
			c0.1-0.1,0.2-0.1,0.4-0.1c0.2,0,0.3,0,0.5,0.1c1.6,0.7,2.7,1,3.3,1c0.6,0,1-0.2,1.3-0.5c0.2-0.3,0.3-0.8,0.3-1.6V86.9
			c0-0.4,0.2-0.6,0.6-0.6c0.4,0,0.6,0.2,0.6,0.6V111.1z M381.2,107.5c0,0.4-0.2,0.5-0.6,0.5c-0.4,0-0.6-0.2-0.6-0.5V89.8
			c0-0.3,0.2-0.5,0.6-0.5c0.4,0,0.6,0.2,0.6,0.5V107.5z"/>
		<path class="st1" d="M417.9,88.9c0.4,0,0.5,0.2,0.5,0.6c0,0.4-0.2,0.6-0.5,0.6h-22c-0.2,0-0.4,0.1-0.6,0.2
			c-0.2,0.2-0.3,0.4-0.3,0.7v11.1c0,1.2,0,2.4-0.1,3.4c-0.1,1.1-0.2,2.1-0.4,3c-0.2,0.9-0.4,1.8-0.7,2.6c-0.3,0.8-0.7,1.6-1.1,2.4
			c-0.3,0.4-0.6,0.5-0.9,0.3c-0.3-0.2-0.3-0.6,0-1.1c0.8-1.3,1.3-2.9,1.6-4.7c0.3-1.8,0.4-3.8,0.4-6.2V91c0-0.7,0.2-1.3,0.5-1.6
			c0.3-0.3,0.9-0.5,1.7-0.5h9.6c-0.2-0.6-0.4-1.1-0.7-1.6c-0.1-0.2-0.2-0.4-0.2-0.6c0-0.2,0.1-0.3,0.3-0.4c0.2-0.1,0.4-0.1,0.6,0
			c0.2,0.1,0.4,0.3,0.5,0.5c0.1,0.3,0.3,0.6,0.4,0.9c0.1,0.4,0.2,0.7,0.3,1.1H417.9z M410.7,113.6c0,0.4-0.2,0.6-0.7,0.6h-11.1
			c-0.2,0-0.4,0-0.6-0.1c-0.2-0.1-0.2-0.2-0.2-0.5c0-0.2,0.1-0.4,0.2-0.5c0.2-0.1,0.3-0.1,0.6-0.1H410c0.2,0,0.4,0,0.5,0.1
			C410.7,113.2,410.7,113.4,410.7,113.6z M398.5,96.7c0-0.9,0.2-1.6,0.5-2c0.3-0.4,0.9-0.6,1.7-0.6c2.7,0,5.2-0.1,7.5-0.3
			c2.3-0.2,4.6-0.4,6.8-0.8c0.5-0.1,0.8-0.1,1-0.1c0.2,0,0.3,0.2,0.4,0.4c0.1,0.5-0.2,0.8-1,0.9c-1,0.1-2,0.3-3,0.4
			c-1,0.1-2,0.2-3.1,0.3c0,1.2,0.1,2.3,0.2,3.3c0.1,1,0.3,2.1,0.5,3.1h7.9c0.2,0,0.3,0,0.4,0.1c0.1,0.1,0.1,0.2,0.1,0.5
			c0,0.4-0.2,0.6-0.5,0.6h-7.6c0.5,1.9,1,3.7,1.7,5.4c0.7,1.7,1.5,3.2,2.3,4.6c0.3,0.5,0.7,0.8,0.9,0.7c0.3-0.1,0.6-0.4,0.8-1.1
			c0.2-0.7,0.5-1.4,0.7-2.2c0.2-0.8,0.3-1.4,0.4-1.9c0-0.2,0.1-0.4,0.3-0.5c0.1-0.1,0.3-0.2,0.4-0.2c0.2,0,0.3,0.1,0.4,0.3
			c0.1,0.2,0.1,0.3,0.1,0.5c-0.1,0.7-0.3,1.4-0.4,1.9c-0.1,0.6-0.3,1.1-0.4,1.5c-0.1,0.5-0.3,0.9-0.5,1.2c-0.2,0.4-0.4,0.7-0.6,1.1
			c-0.3,0.4-0.7,0.7-1.2,0.7c-0.6,0-1-0.2-1.5-0.7c-0.4-0.5-0.8-1.1-1.3-1.9c-0.4-0.8-0.9-1.7-1.3-2.7s-0.8-2.1-1.2-3.2
			s-0.7-2.3-1.1-3.6h-9.3v7.2c1.3-0.3,2.4-0.7,3.4-1c1-0.3,1.9-0.7,2.6-0.9c0.4-0.2,0.7-0.2,0.8-0.2c0.2,0.1,0.3,0.2,0.4,0.3
			c0.2,0.4-0.1,0.7-0.7,0.9c-0.8,0.3-1.8,0.6-2.9,1c-1.1,0.4-2.2,0.8-3.6,1.1c-0.4,0.1-0.8,0.1-1-0.1c-0.3-0.2-0.4-0.6-0.4-1.1V96.7
			z M401.4,95.1c-0.6,0-1,0.1-1.3,0.3c-0.3,0.2-0.4,0.5-0.4,0.9v4.9h9.1c-0.2-0.8-0.3-1.8-0.5-2.8c-0.1-1.1-0.2-2.2-0.3-3.5
			c-1.1,0.1-2.2,0.1-3.3,0.2C403.6,95.1,402.5,95.1,401.4,95.1z"/>
	</g>
	<g>
		<path class="st1" d="M447.7,88.9h-23.1v-1h24.7v1c-3.2,2.8-6.8,5.4-10.9,7.8v15c0,1.5-0.8,2.3-2.5,2.3c-2,0-3.8,0-5.3-0.1
			l-0.3-1.1c1.6,0.1,3.4,0.1,5.3,0.1c1.1,0,1.8-0.5,1.8-1.5V96.2C441,94.1,444.5,91.7,447.7,88.9z"/>
	</g>
</g>
</svg>
