<?xml version="1.0" encoding="utf-8"?>
<!-- Generator: Adobe Illustrator 22.1.0, SVG Export Plug-In . SVG Version: 6.00 Build 0)  -->
<svg version="1.1" id="图层_1" xmlns="http://www.w3.org/2000/svg" xmlns:xlink="http://www.w3.org/1999/xlink" x="0px" y="0px"
	 viewBox="0 0 100 100" style="enable-background:new 0 0 100 100;" xml:space="preserve">
<style type="text/css">
	.st0{fill:#333333;}
	.st1{fill:#FFFFFF;}
</style>
<polygon class="st0" points="42.6,100 100,42.6 100,0 0,100 "/>
<g>
	<path class="st1" d="M27.8,82.8l0.1,1.7c-1.1-0.1-2.4,0-3.9,0.3l0-1.6C25.3,82.9,26.6,82.8,27.8,82.8z M31,86.6l0.1,1.7
		c-1.1-0.1-2.5-0.1-4.2,0.1l0-1.7C28.3,86.5,29.7,86.5,31,86.6z M33.2,81.3l-1.8-1.8c-0.8,1-1.7,2-2.7,3l-1.5-0.8
		c2.7-2.7,4.6-5.3,5.8-7.8l1.7,0.5c-0.5,1.2-1.3,2.4-2.2,3.7l2,2l3.5-3.5l1.2,1.2l-3.5,3.5l1.8,1.8l2.7-2.7l5.7,5.7l-1.2,1.2
		l-0.7-0.7l-4.2,4.2l0.7,0.7l-1.2,1.2L33.5,87l2.6-2.6l-1.8-1.8L31,86l-1.2-1.2L33.2,81.3z M33.2,88.5c1.2,2.3,2.3,4.5,3.2,6.6
		l-1.8,0.6c-0.9-2.3-1.8-4.5-2.9-6.6L33.2,88.5z M42.7,85.4l-2.6-2.6L35.9,87l2.6,2.6L42.7,85.4z"/>
	<path class="st1" d="M41,67.4l1.2,1.2l-4.6,4.6l-1.2-1.2L41,67.4z M45.2,70.7l1.2,1.2l-2.8,2.8c1.4,2.3,2.4,4,2.9,5.2
		c0.6-1,1.2-2.1,1.7-3.3c-1-0.4-1.9-0.7-2.7-1l0.5-1.5c1.7,0.6,3.5,1.3,5.4,2.1l-0.4,1.6l-1.2-0.5c-0.8,1.8-1.8,3.6-3,5.4l-1.5-0.9
		c0.1-0.2,0.1-0.3,0.1-0.4c-0.2-0.9-1.1-2.7-2.9-5.6l-1.6,1.6l-1.2-1.2L45.2,70.7z M43.6,63.3l2.6,2.6l2.7-2.7
		c4.4,4.4,7.1,7.2,8,8.4c0.9,1.2,0.8,2.3-0.4,3.5c-0.2,0.2-0.6,0.5-1.1,1L54,75.2c0.5-0.4,0.9-0.8,1.2-1.1c0.5-0.5,0.5-1.2,0-1.9
		c-0.6-0.7-2.7-2.9-6.2-6.5l-1.5,1.5l0.1,0.1c3.9,3.9,5.9,7.7,6,11.2l-1.7,0c-0.1-3.1-1.9-6.4-5.4-10l-0.1-0.1L44.7,70l-1.2-1.2
		l1.6-1.6l-2.6-2.6L43.6,63.3z"/>
	<path class="st1" d="M56.1,63.4l3.7,3.7c0.5,0.5,1,0.5,1.5,0.1l6.2-6.2c0.2-0.2,0.4-0.5,0.4-0.9c0-0.4-0.7-1.3-2-2.8l1.6-0.8
		c1.6,1.9,2.4,3.1,2.4,3.7c0,0.6-0.2,1.2-0.7,1.7l-6.9,6.9c-1.1,1.1-2.2,1-3.4-0.2l-7.1-7.1l1.2-1.2l1.9,1.9l6.5-6.5l-3.2-3.2
		l-8.2,8.2l-1.2-1.2l9.4-9.4l5.7,5.7L56.1,63.4z"/>
	<path class="st1" d="M63.6,44c1,2.2,1.8,4.2,2.2,5.8c0.4-0.5,0.8-1.1,1.3-1.7c-0.2-0.7-0.5-1.4-0.7-2.1l1.4-0.6
		c1.1,3.2,1.7,5.6,2,7.3c0.6-1,1.2-2.1,1.8-3.3l1.2,1.2c-0.9,1.9-1.8,3.6-2.9,5l-1.5-0.8c0.1-0.3,0.2-0.6,0.2-0.9
		c-0.1-0.9-0.3-2.1-0.8-3.9c-0.5,0.7-1.1,1.5-1.7,2.3l-1.5-0.9c0.1-0.3,0.1-0.6,0-1c-0.6-1.8-1.4-3.7-2.5-5.7L63.6,44z M68.8,41.1
		l-1.5-1.5l1.2-1.2L70,40l2.9-2.9l1.2,1.2l-2.9,2.9l1.7,1.7l2.5-2.5l1.2,1.2l-6.1,6.1l-1.2-1.2l2.5-2.5L70,42.4l-2.9,2.9L65.9,44
		L68.8,41.1z M75.4,53.1c-0.8,1.8-1.8,3.6-3.1,5.5l-1.4-1.1c1.4-2,2.5-3.9,3.3-5.6L75.4,53.1z M83.1,48.6L82,49.8l-0.5-0.5l-3.3,3.3
		l0.5,0.5l-1.2,1.2l-5.6-5.6l5.6-5.6L83.1,48.6z M80.2,48l-2.7-2.7l-3.3,3.3l2.7,2.7L80.2,48z"/>
	<path class="st1" d="M78.8,30.6l-1.2-1.2l1.2-1.2l1.2,1.2l4.7-4.7l1.2,1.2l-4.7,4.7l1.1,1.1l3.9-3.9l4.1,4.1l-3,3
		C89.4,35.3,92,35,95,34l0.3,1.9c-3.4,0.8-6.4,0.7-8.8,0l4.8,4.8L90,41.8l-4.8-4.8c0.9,2.7,0.8,5.7-0.1,9l-1.9-0.5
		c1-2.8,1.3-5.3,0.9-7.6l-2.9,2.9l-4.1-4.1l3.9-3.9L80,31.8l-4.8,4.8L74,35.4L78.8,30.6z M82.3,34.1l-2.7,2.7l1.7,1.7l2.7-2.7
		L82.3,34.1z M86.2,30.2l-2.7,2.7l1.7,1.7l2.7-2.7L86.2,30.2z"/>
</g>
</svg>
