<?xml version="1.0" encoding="utf-8"?>
<!-- Generator: Adobe Illustrator 22.1.0, SVG Export Plug-In . SVG Version: 6.00 Build 0)  -->
<svg version="1.1" id="图层_1" xmlns="http://www.w3.org/2000/svg" xmlns:xlink="http://www.w3.org/1999/xlink" x="0px" y="0px"
	 viewBox="0 0 100 100" style="enable-background:new 0 0 100 100;" xml:space="preserve">
<style type="text/css">
	.st0{fill:#FF5500;}
	.st1{enable-background:new    ;}
	.st2{fill:#FFFFFF;}
</style>
<polygon class="st0" points="0,57.5 0,100 100,0 57.5,0 "/>
<g class="st1">
	<path class="st2" d="M5.4,65.2l0.1,1.6c-1-0.1-2.3-0.1-3.7,0.1l-0.1-1.6C3.1,65.2,4.3,65.1,5.4,65.2z M8.7,68.9l0.1,1.6
		c-1.1-0.2-2.4-0.2-4-0.1l-0.1-1.6C6.1,68.7,7.5,68.7,8.7,68.9z M10.5,64l-1.8-1.8c-0.7,0.9-1.5,1.8-2.5,2.7l-1.5-0.8
		c2.5-2.5,4.2-4.8,5.2-7.2l1.6,0.6c-0.5,1.1-1.1,2.3-1.9,3.5l2,2l3.2-3.2L16,61l-3.2,3.2l1.8,1.8l2.5-2.5l5.7,5.7l-1.1,1.1L21,69.5
		l-3.9,3.9l0.7,0.7l-1.1,1.1l-5.7-5.7l2.4-2.4l-1.8-1.8l-3.1,3.1l-1.2-1.2L10.5,64z M10.9,70.9c1.3,2.2,2.4,4.4,3.3,6.5l-1.6,0.5
		c-0.9-2.2-1.9-4.3-3.1-6.4L10.9,70.9z M19.8,68.3l-2.6-2.6l-3.9,3.9l2.6,2.6L19.8,68.3z"/>
	<path class="st2" d="M17.4,51.1l1.2,1.2l-4.2,4.2l-1.2-1.2L17.4,51.1z M21.5,54.3l1.2,1.2l-2.5,2.5c1.5,2.3,2.5,4,3,5.1
		c0.6-0.9,1-2,1.5-3.1c-0.9-0.4-1.8-0.8-2.7-1.1l0.4-1.4c1.7,0.6,3.4,1.4,5.3,2.3l-0.4,1.5l-1.2-0.6c-0.7,1.7-1.6,3.3-2.7,5l-1.5-1
		c0.1-0.1,0.1-0.2,0.1-0.3c-0.2-0.8-1.2-2.6-3-5.4l-1.4,1.4l-1.2-1.2L21.5,54.3z M19.6,47.3l2.6,2.6l2.4-2.4c4.4,4.4,7.1,7.2,8,8.3
		c0.9,1.2,0.8,2.2-0.2,3.3c-0.2,0.2-0.5,0.5-1,0.9l-1.4-0.9c0.4-0.4,0.8-0.7,1.1-1c0.5-0.5,0.5-1.1-0.1-1.8
		c-0.6-0.7-2.7-2.9-6.3-6.5l-1.4,1.4l0.1,0.1c3.9,3.9,5.9,7.6,6.2,10.9l-1.7-0.1c-0.2-3-2.1-6.2-5.6-9.8l-0.1-0.1L21,53.6l-1.2-1.2
		l1.4-1.4l-2.6-2.6L19.6,47.3z"/>
	<path class="st2" d="M34.1,54.5c0.2-0.4,0.1-0.8-0.2-1.1l-9.8-9.8l4.4-4.4l6.6,6.6l-3.4,3.4l3.5,3.5c0.6-1.2,1-2.2,1.4-3.2
		c-0.6-0.2-1.1-0.4-1.7-0.5l0.2-1.4c2,0.6,3.6,1.2,5,1.8l-0.1,1.5c-0.6-0.2-1.1-0.5-1.8-0.7c-0.6,1.7-1.4,3.6-2.4,5.5L34.1,54.5z
		 M28.7,41.3l-2.4,2.4l1.5,1.5l2.4-2.4L28.7,41.3z M30.6,47.9l2.4-2.4l-1.6-1.6L29,46.3L30.6,47.9z M41.7,46.4l-1.5-1l0.9-0.8
		c0.3-0.3,0.3-0.7-0.1-1l-7.2-7.2l-1.7,1.7l10.8,10.8L41.8,50l-12-12l3.9-3.9l8.7,8.7c1,1,1.1,1.9,0.3,2.7L41.7,46.4z"/>
	<path class="st2" d="M41.1,34.8l-0.5,1.4c-1.5-0.8-3-1.4-4.3-1.8l0.5-1.4C38.3,33.5,39.7,34.1,41.1,34.8z M37.8,29l12.5,12.5
		l-1.1,1.1l-4.2-4.2c0.1,1.5,0.1,2.7,0,3.8l-1.7-0.8c0.2-1.2,0.3-2.7,0.2-4.6L36.8,30L37.8,29z M42.6,31.8l-1.7-0.3
		c0.5-1.9,0.4-3.6-0.4-5.2l1.4-0.9c0.1,0.3,0.3,0.6,0.4,1l3.2-3.2l1.1,1.1c1.4,2.6,1,5.7-1.3,9.5l-1.7-0.6c0.6-1,1.1-2,1.4-2.9
		c-0.6,0-1.2,0-1.7,0l0.1-1.5c0.7,0,1.4,0,2.1,0c0.3-1.2,0.3-2.3,0-3.3l-2.7,2.7C42.9,29.4,42.9,30.6,42.6,31.8z M49,30.7l-1.3-1.3
		l1.1-1.1l1.3,1.3l1.3-1.3l1.2,1.2l-1.3,1.3l3.4,3.4c0.9,0.9,1,1.8,0.2,2.6l-1.5,1.5l-1.5-1c0.5-0.4,1-0.8,1.5-1.3
		c0.3-0.3,0.3-0.7,0-1L50.3,32l-4.2,4.2l-1.2-1.2L49,30.7z M51.4,35.6l-0.1,1.5c-1-0.3-2.2-0.6-3.5-0.8l0.2-1.4
		C49.4,35.1,50.5,35.3,51.4,35.6z"/>
	<path class="st2" d="M56.2,12.1l1.2,1.2l-1.8,1.8l3.3,3.3l2.4-2.4l1.2,1.2l-2.4,2.4l5.9,5.9l-1.1,1.1l-5.9-5.9l-3,3
		c1.2,1.5,2.2,2.8,2.7,4.1c0.7,1.6,0.9,3.2,0.5,4.8l-1.7-0.5c0.3-1.5,0.1-3-0.6-4.3c-0.5-0.9-1.2-1.9-2.1-3l-2.5,2.5l-1.2-1.2
		l2.6-2.6c-0.1-0.1-0.2-0.2-0.3-0.3l-3-3l-2,2L47.3,21L56.2,12.1z M54.5,22.1c0.1,0.1,0.2,0.2,0.3,0.3l3-3l-3.3-3.3l-3,3L54.5,22.1z
		"/>
	<path class="st2" d="M59.5,7.4c0.8,1,1.5,1.9,2.2,2.7l1.6-1.6L64,9.2c2.1,2.2,3.7,4.4,4.8,6.5c1.1,0.1,2.1,0.3,2.9,0.5L72,18
		c-0.7-0.2-1.5-0.3-2.4-0.5c0.5,1.4,0.8,2.7,0.9,4.1l-1.7-0.3c0-1.3-0.4-2.6-0.9-4c-1-0.1-2-0.2-3.1-0.3c-0.9-1.4-1.9-2.9-3-4.4
		l-0.8,0.8l-1.2-1.2l1-1c-0.7-0.9-1.5-1.9-2.3-2.9L59.5,7.4z M63.5,10.7l-0.8,0.8c1.1,1.5,2.1,2.9,2.7,4c0.6,0,1.1,0.1,1.6,0.1
		C66.2,14,65,12.4,63.5,10.7z M65.4,10.2c0.3-0.8-0.4-3-2.1-6.8l1.4-0.6c1,2.2,1.7,4.1,2.1,5.8c1-1.2,1.9-2.4,2.8-3.6
		c-1-0.4-1.9-0.7-2.7-1.1l0.4-1.4c1.8,0.6,3.6,1.4,5.6,2.3l-0.4,1.6c-0.5-0.2-0.9-0.5-1.3-0.6c-1.2,1.7-2.7,3.5-4.3,5.5L65.4,10.2z
		 M79.3,12.6l-1,1l-0.8-0.8L74.4,16l0.8,0.8l-1,1l-6-6l5.1-5.1L79.3,12.6z M76.3,11.7l-2.8-2.8L70.4,12l2.8,2.8L76.3,11.7z"/>
</g>
</svg>
